<svg xmlns="http://www.w3.org/2000/svg" viewBox="0 0 600.01 600"><defs><style>.cls-1{fill:#305c2c;}.cls-2{fill:#47342a;}.cls-3{fill:#ebdab2;}.cls-4{fill:#cdae87;}.cls-5{fill:#d99d3a;}.cls-6{fill:#668dc8;}.cls-7{fill:#eeb54e;}.cls-8{fill:#a0c2e6;}.cls-9{fill:#f9df9a;}.cls-10{fill:#edf7fb;}.cls-11{fill:#fff;}.cls-12{fill:#bccc43;}.cls-13{fill:#dfe88e;}.cls-14{fill:#dce685;}.cls-15{fill:#b0c545;}.cls-16{fill:#7e9a3c;}.cls-17{fill:#b2967a;}.cls-18{fill:#fff2d8;}.cls-19{fill:#eebb51;}</style></defs><g id="Layer_2" data-name="Layer 2"><g id="Layer_1-2" data-name="Layer 1"><g id="Layer_2-2" data-name="Layer 2"><g id="Layer_1-2-2" data-name="Layer 1-2"><path class="cls-1" d="M145.2,406.17A61.85,61.85,0,0,1,94.65,379c-7.15-10.48-11.72-23.9-8.05-40,9.79-43,43.13-65.14,89.43-92.9s39.95-74,99.89-84.1c39-6.57,53.86,39.64-21.48,81.78C147.61,303.49,281,347.25,324.29,289.62S418.49,155,478.05,192.26c40.2,25.13,29.6,62.52,18.47,84.17a34,34,0,0,0,1.8,34.24c18.85,28.39,45.3,95.2-27.43,95.2C358.74,405.87,208.35,406.5,145.2,406.17Z"/><rect class="cls-2" x="249.86" y="376.81" width="197.99" height="27.98" rx="8.25"/><path class="cls-3" d="M235,234.82l2.17-22.72h0a5.73,5.73,0,0,1,11.33-.55l4.37,22.52Zm7.88-24.36h-.24a2.2,2.2,0,0,0-1.94,2h0L239,231.13l9.68-.41L245,212.22A2.16,2.16,0,0,0,242.91,210.46Z"/><path class="cls-3" d="M270.52,252.63c.61,4.11-.14,7.56-1.25,11.85a22.78,22.78,0,0,1-1.1,2.7,23.85,23.85,0,0,1-3.38,5.25c-9.05,10.46-24.59,5.81-35.51,2.28a21.84,21.84,0,0,1-2.79-2c-7-6-10.32-15.36-6-24.64a31.47,31.47,0,0,1,1.17-3.25A40.39,40.39,0,0,1,229,233.57a19.73,19.73,0,0,1,2.88-2,28.8,28.8,0,0,1,3.17-1.52,25.78,25.78,0,0,1,18.7-.09,26.37,26.37,0,0,1,3,1.39c.75.43,1.52.89,2.29,1.39,4.63,3.72,11.63,8.63,11.32,16.3A24,24,0,0,1,270.52,252.63Z"/><path class="cls-2" d="M229,233.9a.35.35,0,0,1-.28-.13.35.35,0,0,1,0-.48l0,0a20.76,20.76,0,0,1,2.93-2,29.69,29.69,0,0,1,3.22-1.54,26.17,26.17,0,0,1,19-.1.37.37,0,0,1,.21.47.35.35,0,0,1-.46.2,25.53,25.53,0,0,0-18.45.09,30,30,0,0,0-3.13,1.5,21.87,21.87,0,0,0-2.85,1.92A.27.27,0,0,1,229,233.9Z"/><path class="cls-4" d="M245.67,260a16.26,16.26,0,0,1-4.91-1h-.07a5,5,0,0,1-.72-.52,5.3,5.3,0,0,1-1.54-6.34,7.08,7.08,0,0,1,.28-.77,10.23,10.23,0,0,1,1.83-2.81,6.78,6.78,0,0,1,.78-.54c.26-.14.53-.27.8-.39a7,7,0,0,1,2.21-.45,6.71,6.71,0,0,1,2.55.43c.26.11.52.22.76.35l.56.32.28.23c1.13.89,2.67,2.11,2.6,4a3.84,3.84,0,0,1,0,.83,6.91,6.91,0,0,1-.31,3,4.41,4.41,0,0,1-.29.71,3.59,3.59,0,0,1-.35.64,4,4,0,0,1-.52.7A5,5,0,0,1,245.67,260ZM241,258.32c2.93.94,6.2,1.75,8.11-.46a4.64,4.64,0,0,0,.46-.61c.11-.18.21-.37.31-.57a6.5,6.5,0,0,0,.25-.61,6.23,6.23,0,0,0,.28-2.68v-.06a5.47,5.47,0,0,0,0-.81c.06-1.58-1.26-2.63-2.33-3.47l-.25-.21-.51-.3a6.85,6.85,0,0,0-.67-.31,5.84,5.84,0,0,0-2.27-.39,6,6,0,0,0-2,.41c-.24.1-.48.22-.72.34s-.43.28-.64.44a9.71,9.71,0,0,0-1.67,2.57c-.1.25-.18.49-.26.74a4.57,4.57,0,0,0,1.33,5.54A5.9,5.9,0,0,0,241,258.32Z"/><path class="cls-4" d="M246.92,266.89c-3.7,0-7.52-1.24-10.32-2.14h-.07a9.51,9.51,0,0,1-1.47-1.07,10.86,10.86,0,0,1-3.18-13,14.25,14.25,0,0,1,.59-1.66,21.52,21.52,0,0,1,3.84-5.86.37.37,0,0,1,.5,0,.36.36,0,0,1,0,.5h0a20.52,20.52,0,0,0-3.7,5.65c-.22.54-.42,1.08-.59,1.63-2,4.31-.84,9,3,12.23a9.93,9.93,0,0,0,1.34,1c4.94,1.6,13.15,4.25,17.75-1.07a.36.36,0,0,1,.51,0h0a.36.36,0,0,1,0,.5h0A10.3,10.3,0,0,1,246.92,266.89Z"/><path class="cls-4" d="M256.64,260.92a.22.22,0,0,1-.16,0,.35.35,0,0,1-.17-.46h0a10.6,10.6,0,0,0,.55-1.35,13.87,13.87,0,0,0,.62-5.9,10.33,10.33,0,0,0-.1-1.84c.14-3.52-2.77-5.82-5.12-7.68l-.54-.43c-.36-.23-.74-.47-1.12-.68a13.42,13.42,0,0,0-1.49-.69,12.79,12.79,0,0,0-9.31,0,.36.36,0,0,1-.47-.2.37.37,0,0,1,.2-.47,13.63,13.63,0,0,1,9.84-.05c.54.22,1.07.46,1.58.73s.79.47,1.19.73l.57.45c2.34,1.85,5.54,4.39,5.39,8.21a10.33,10.33,0,0,1,.1,1.84,14.4,14.4,0,0,1-.65,6.15,10.07,10.07,0,0,1-.58,1.44A.33.33,0,0,1,256.64,260.92Z"/><path class="cls-4" d="M227.33,247.32a.17.17,0,0,1-.14,0,.35.35,0,0,1-.19-.45h0a30.6,30.6,0,0,1,5.59-8.54,15.77,15.77,0,0,1,2.25-1.55,21.56,21.56,0,0,1,2.42-1.17,19.69,19.69,0,0,1,14.29-.07.36.36,0,0,1,.22.45h0a.35.35,0,0,1-.46.22h0a19,19,0,0,0-13.76.07,18.46,18.46,0,0,0-2.33,1.12,16.72,16.72,0,0,0-2.11,1.44,30.41,30.41,0,0,0-5.42,8.3A.34.34,0,0,1,227.33,247.32Z"/><path class="cls-4" d="M248,272.91c-5.39,0-11-1.81-15.07-3.14h-.07a16.86,16.86,0,0,1-2.14-1.55.35.35,0,0,1,0-.5h0a.36.36,0,0,1,.5,0h0a16.85,16.85,0,0,0,2,1.47c7.27,2.35,19.4,6.27,26.22-1.61a15.57,15.57,0,0,0,2.5-3.85,15.73,15.73,0,0,0,.8-2c.82-3.18,1.37-5.68.92-8.72a17.58,17.58,0,0,0-.14-2.71.36.36,0,1,1,.71-.09,19.58,19.58,0,0,1,.15,2.75c.46,3.11-.13,5.8-.95,9a16.62,16.62,0,0,1-.85,2.09,14.89,14.89,0,0,1-1.06,1.92,15.24,15.24,0,0,1-1.56,2.1C256.75,271.69,252.45,272.91,248,272.91Z"/><circle class="cls-2" cx="242.84" cy="212.84" r="6.88"/><circle class="cls-2" cx="209.19" cy="212.84" r="6.88"/><path class="cls-5" d="M386.25,184.11h26.34a.58.58,0,0,1,.58.58V198h-27.5V184.69a.58.58,0,0,1,.58-.58Z"/><path class="cls-6" d="M277.92,234.32V368.06a8.67,8.67,0,0,0,8.67,8.67H433a8.67,8.67,0,0,0,8.67-8.67h0L425.05,212.32a11.08,11.08,0,0,0-10.32-11v-2.22a1.61,1.61,0,0,0-1.59-1.6H385.8a1.6,1.6,0,0,0-1.6,1.6h0v2.15h-.07a8.68,8.68,0,0,1-6.13-2.54l-9.8-9.82a8.75,8.75,0,0,0-6.14-2.52H299a8.68,8.68,0,0,0-8.67,8.67h0v19.79a8.57,8.57,0,0,1-2.53,6.12l-7.3,7.3A8.74,8.74,0,0,0,277.92,234.32Zm25.72-27.64a7,7,0,0,1,7-7H353.2a7,7,0,0,1,7,7v5.25a7,7,0,0,1-7,7H310.6a7,7,0,0,1-7-7Z"/><path class="cls-7" d="M374.2,184.11h26.93V198H373.62V184.69A.58.58,0,0,1,374.2,184.11Z"/><path class="cls-8" d="M265.88,234.32l-5,133.73a8.67,8.67,0,0,0,8.66,8.67H409.35a8.67,8.67,0,0,0,8.67-8.67h0l-.71-22-3.11-95.73-1.22-38a11.09,11.09,0,0,0-10.32-11v-2.22a1.6,1.6,0,0,0-1.6-1.6H373.75a1.61,1.61,0,0,0-1.59,1.6v2.15h-.07a8.68,8.68,0,0,1-6.13-2.54l-9.82-9.82a8.68,8.68,0,0,0-6.12-2.52h-63.1a8.68,8.68,0,0,0-8.67,8.67v19.79a8.58,8.58,0,0,1-2.54,6.12l-7.29,7.3A8.69,8.69,0,0,0,265.88,234.32Zm25.72-27.63a7,7,0,0,1,7-7h42.6a7,7,0,0,1,7,7v5.25a7,7,0,0,1-7,7H298.6a7,7,0,0,1-7-7Z"/><path class="cls-9" d="M413.2,191.61h0a.7.7,0,0,1-.7-.71v0c.06-2.57.08-5.43,0-6.06L385,184.76a.73.73,0,0,1-.71-.72.71.71,0,0,1,.71-.71h0l27.58.06a1.47,1.47,0,0,1,1.24.92c0,.14.2.54.06,6.6A.71.71,0,0,1,413.2,191.61Z"/><path class="cls-2" d="M409.77,197.81H387.38a.35.35,0,0,1-.41-.29.37.37,0,0,1,.29-.42h22.51a.36.36,0,0,1,.42.3.35.35,0,0,1-.3.41Z"/><path class="cls-10" d="M414.2,251a.72.72,0,0,1-.71-.69l-1.19-38A10.4,10.4,0,0,0,402.64,202a.71.71,0,0,1-.59-.82.73.73,0,0,1,.69-.61,11.82,11.82,0,0,1,11,11.76l1.23,38a.72.72,0,0,1-.69.74Z"/><path class="cls-10" d="M366,199.37a.71.71,0,0,1-.51-.21l-9.81-9.84A7.93,7.93,0,0,0,350,187a.72.72,0,0,1-.8-.63.73.73,0,0,1,.63-.8H350a9.36,9.36,0,0,1,6.63,2.76l9.81,9.81a.7.7,0,0,1,0,1A.64.64,0,0,1,366,199.37Z"/><path class="cls-2" d="M291.49,212.32a.36.36,0,0,1-.36-.36v-5.27a7.34,7.34,0,0,1,7.32-7.32h23.29a.36.36,0,0,1,.36.36.36.36,0,0,1-.36.36H298.45a6.62,6.62,0,0,0-6.6,6.6v5.25a.35.35,0,0,1-.34.38Z"/><path class="cls-2" d="M263,312.72h0a.37.37,0,0,1-.35-.37l2.92-78a9,9,0,0,1,2.67-6.41l7.29-7.29a8.18,8.18,0,0,0,2.43-5.87.37.37,0,0,1,.36-.36.36.36,0,0,1,.36.36h0a9,9,0,0,1-2.65,6.38l-7.29,7.29a8.33,8.33,0,0,0-2.5,5.87l-2.92,78.05A.35.35,0,0,1,263,312.72Z"/><path class="cls-2" d="M409.35,377.08a.35.35,0,0,1-.41-.29.37.37,0,0,1,.29-.42h.12a8.31,8.31,0,0,0,8.31-8.31l-.71-22a.38.38,0,0,1,.35-.37h0a.37.37,0,0,1,.37.35h0l.7,22a9,9,0,0,1-9,9Z"/><path class="cls-6" d="M277.3,272.32l-1.73,64.18a24,24,0,0,0,23.37,24.63h.55l79.94.22a24,24,0,0,0,24.07-23.93c0-.18,0-.36,0-.54l-.29-16.44a24,24,0,0,0-24-23.51h-13a24,24,0,0,1-24-24h0a24,24,0,0,0-24-24h-17A24,24,0,0,0,277.3,272.32Z"/><polygon class="cls-11" points="416.28 230.78 413.7 224.31 411.11 230.78 404.82 233.19 411.01 235.16 413.7 242.06 416.39 235.16 422.57 233.19 416.28 230.78"/><path class="cls-2" d="M413.7,242.41a.15.15,0,0,1-.13,0,.35.35,0,0,1-.21-.44v0l2.75-7,6.35-2a.36.36,0,0,1,.45.22h0a.35.35,0,0,1-.23.45l-6,1.93-2.63,6.73A.35.35,0,0,1,413.7,242.41Z"/><path class="cls-8" d="M386.25,351.4h0a1.54,1.54,0,0,1,.39-1.56,2.47,2.47,0,0,0,.7-1.88c0-.78-.23-1.35-.61-1.35s-.8.63-1.37,2.16c-1,2.75-2.24,4-3.86,4-1.95,0-3.27-1.8-3.27-4.47a5.08,5.08,0,0,1,1.6-4,1.45,1.45,0,0,1,2,.15,1.32,1.32,0,0,1,.28.52v.1a1.48,1.48,0,0,1-.49,1.53,2.17,2.17,0,0,0-.63,1.67c0,.84.25,1.32.69,1.32s.68-.44,1.18-1.93c1-3,2.08-4.15,3.76-4.15,2,0,3.35,1.72,3.35,4.47a5.38,5.38,0,0,1-1.39,4,1.46,1.46,0,0,1-2.06-.07A1.66,1.66,0,0,1,386.25,351.4Z"/><path class="cls-8" d="M384.2,341.83a5.79,5.79,0,1,1,5.87-5.79,5.73,5.73,0,0,1-5.66,5.8Zm0-8.35a2.57,2.57,0,0,0-.45,5.12,1.69,1.69,0,0,0,.45,0,2.57,2.57,0,1,0,.46-5.12Z"/><path class="cls-8" d="M386.79,328.63a3.4,3.4,0,0,1-3.27-2.89c-.72-2.86-1-3.63-1.6-3.63s-.65.46-.65,1.15a2.09,2.09,0,0,0,.68,1.64,1.35,1.35,0,0,1,.44,1.5l-.08.2a1.52,1.52,0,0,1-2,.88,1.53,1.53,0,0,1-.47-.29,5.14,5.14,0,0,1-1.61-4c0-2.77,1.64-4.45,4.3-4.45h3.86a.76.76,0,0,0,.75-.41,1.32,1.32,0,0,1,1.16-.7h.39a1.29,1.29,0,0,1,1.31,1.25h0a3,3,0,0,1-.94,2.31,5.53,5.53,0,0,1,.94,3.27C390,327,388.72,328.63,386.79,328.63Zm-.23-6.71H385c.89,2,.7,3.59,1.62,3.59.53,0,.78-.51.78-1.33a3.3,3.3,0,0,0-.8-2.26Z"/><path class="cls-8" d="M378.46,315v-1.17a1,1,0,0,1,1-1h0a2.75,2.75,0,0,1-1.2-2.45c0-2.75,2.46-4.79,5.9-4.79s5.89,2.08,5.89,4.79a3.49,3.49,0,0,1-.9,2.45h3.74a1.61,1.61,0,0,1,1.59,1.6h0a1.59,1.59,0,0,1-1.59,1.59H379.47a1,1,0,0,1-1-1Zm5.67-6.23c-1.58,0-2.73.86-2.73,2s1.15,2,2.73,2,2.72-.86,2.72-2-1.15-2-2.72-2Z"/><path class="cls-12" d="M547.43,302.05v91.58a11,11,0,0,1-11,11H481a11,11,0,0,1-11-11V306.15A64,64,0,0,1,480.53,271l8-12,8.36-12.69a5.89,5.89,0,0,1,7.82-1.87l14,8a5.89,5.89,0,0,1,2.68,7l-.66,2a15.63,15.63,0,0,0,9.7,19.71l2.84,1A21.16,21.16,0,0,1,547.43,302.05Z"/><path class="cls-2" d="M469.94,306.51a.36.36,0,0,1-.35-.36,64.35,64.35,0,0,1,10.61-35.34.36.36,0,0,1,.6.4,63.57,63.57,0,0,0-10.51,34.94A.35.35,0,0,1,469.94,306.51Z"/><path class="cls-13" d="M487.31,271.16a.62.62,0,0,1-.39-.12.72.72,0,0,1-.21-1h0l13.49-20.41a.72.72,0,0,1,1-.2.7.7,0,0,1,.2,1L487.9,270.84A.7.7,0,0,1,487.31,271.16Z"/><path class="cls-13" d="M509.08,278.68h-.22a.73.73,0,0,1-.46-.9L515,257.12a.73.73,0,0,1,.9-.46.71.71,0,0,1,.46.9l-6.56,20.66A.69.69,0,0,1,509.08,278.68Z"/><path class="cls-13" d="M500.32,270.91a.59.59,0,0,1-.31-.07.72.72,0,0,1-.36-.95.08.08,0,0,0,0-.05l8.65-17.92a.72.72,0,0,1,.95-.33.7.7,0,0,1,.33.95h0L501,270.46A.68.68,0,0,1,500.32,270.91Z"/><rect class="cls-12" x="506.18" y="234.86" width="15.54" height="20.72" transform="translate(44.61 567.7) rotate(-60)"/><path class="cls-13" d="M547.43,302.76a.71.71,0,0,1-.71-.71h0A20.46,20.46,0,0,0,533,282.73l-2.84-1A16.4,16.4,0,0,1,520,261.13l.66-2a5.18,5.18,0,0,0-2.35-6.13l-14-8a.69.69,0,0,1-.29-.94l0-.06a.73.73,0,0,1,1-.28h0l14,8a6.61,6.61,0,0,1,3,7.82l-.67,2a15,15,0,0,0,9.26,18.81l2.84,1a21.89,21.89,0,0,1,14.72,20.69.7.7,0,0,1-.7.72Z"/><rect class="cls-7" x="511.3" y="223.95" width="15.54" height="26.06" rx="0.78" transform="translate(54.3 568.02) rotate(-60)"/><path class="cls-9" d="M533.87,238.1a.6.6,0,0,1-.36-.1.69.69,0,0,1-.29-.94l0-.06-21.32-12.29a.72.72,0,1,1,.61-1.3l.11.06L534,235.78a1.44,1.44,0,0,1,.56,2l0,0A.69.69,0,0,1,533.87,238.1Z"/><path class="cls-2" d="M514,243.32a.28.28,0,0,1-.18,0l-9.43-5.44a1.12,1.12,0,0,1-.5-.66,1,1,0,0,1,.11-.82.36.36,0,0,1,.66.31.1.1,0,0,1,0,0,.32.32,0,0,0,0,.27.4.4,0,0,0,.17.23l9.43,5.44a.36.36,0,0,1,.13.49A.33.33,0,0,1,514,243.32Z"/><rect class="cls-14" x="477.93" y="334.87" width="60.8" height="59.54" rx="14.66"/><path class="cls-15" d="M530.93,379c-2.87,0-4.8-1.79-4.8-4.42s2-4.23,5.07-4.23h0a.74.74,0,0,1,.74.74v5.26a2,2,0,0,0,1.31-2,2.57,2.57,0,0,0-.4-1.42,1.26,1.26,0,0,1,0-1.37h0a1.24,1.24,0,0,1,1.71-.36,1.5,1.5,0,0,1,.29.27,4.34,4.34,0,0,1,1,2.9A4.55,4.55,0,0,1,530.93,379Zm-1-6a1.48,1.48,0,0,0-1.22,1.55,1.75,1.75,0,0,0,1.22,1.72Z"/><path class="cls-15" d="M530.92,369.08c-2.81,0-4.79-1.74-4.79-4.18a3.92,3.92,0,0,1,1.36-3,1.3,1.3,0,0,1,1.82.14,1.18,1.18,0,0,1,.27.52h0a1.28,1.28,0,0,1-.44,1.31,1.22,1.22,0,0,0-.44,1c0,1,.91,1.65,2.22,1.65s2.3-.7,2.3-1.68a1.3,1.3,0,0,0-.61-1.12,1.25,1.25,0,0,1-.49-1.36h0a1.27,1.27,0,0,1,1.54-.93,1.51,1.51,0,0,1,.35.14,3.63,3.63,0,0,1,1.77,3.25C535.78,367.37,533.86,369.08,530.92,369.08Z"/><path class="cls-15" d="M531,359.81a4.47,4.47,0,1,1,.17,0Zm0-6.85a2.11,2.11,0,0,0-.41,4.2,1.41,1.41,0,0,0,.41,0,2.11,2.11,0,1,0,.41-4.2Z"/><polygon class="cls-10" points="545.45 287.17 543.21 281.56 540.98 287.17 535.52 289.25 540.88 290.98 543.21 296.94 545.55 290.98 550.91 289.25 545.45 287.17"/><path class="cls-2" d="M543.2,297.32a.15.15,0,0,1-.13,0,.35.35,0,0,1-.21-.44v0l2.39-6.13,5.53-1.77a.38.38,0,0,1,.49.17.36.36,0,0,1-.17.48.2.2,0,0,1-.11,0l-5.19,1.67-2.27,5.81A.34.34,0,0,1,543.2,297.32Z"/><path class="cls-2" d="M201.58,375.85h0c-54.5-5.39-122-48.65-135.69-104.46a.37.37,0,0,1,.27-.43.35.35,0,0,1,.43.26c13.59,55.52,80.8,98.55,135.06,103.92a.36.36,0,0,1,.32.39A.35.35,0,0,1,201.58,375.85Z"/><path class="cls-16" d="M100.45,314.14c14.37-5.82,24.37-10.82,30.54-29.41C137.22,266,106.51,244,93.43,272.1,88.28,283.19,91.56,302.65,100.45,314.14Z"/><path class="cls-2" d="M108.47,334.59a.34.34,0,0,1-.31-.19c-15.23-29-9.94-52.1,16.18-70.79a.38.38,0,0,1,.51.09.35.35,0,0,1-.09.5c-25.78,18.43-31,41.29-16,69.87a.35.35,0,0,1-.14.48h0A.23.23,0,0,1,108.47,334.59Z"/><path class="cls-15" d="M77.66,255.82c7.62-3.6,15.21-4.22,20.54-12.68,6.76-10.59-5-24.9-17.19-12.82C75.44,235.8,75.3,247.68,77.66,255.82Z"/><path class="cls-2" d="M77.67,299.06a.36.36,0,0,1-.35-.28c-6.95-29.2-.42-56.15,17.45-72.1a.36.36,0,0,1,.51,0h0a.36.36,0,0,1,0,.5h0C77.6,243,71.16,269.65,78.05,298.58a.37.37,0,0,1-.27.44Z"/><path class="cls-16" d="M81,321.92c-3.34,17.62-10.12,32.1-32.34,33.29-13.46.72-29.72-16.5-14-32.24C45.89,311.75,66.2,312.84,81,321.92Z"/><path class="cls-2" d="M31.4,346.67a.28.28,0,0,1-.21-.07.34.34,0,0,1-.07-.48v0C38,337,49,329.54,62.18,325.21c12.4-4.08,25-4.87,34.64-2.17a.37.37,0,0,1,.22.47.36.36,0,0,1-.42.22c-18.66-5.24-50.4,3.39-64.93,22.8A.36.36,0,0,1,31.4,346.67Z"/><path class="cls-16" d="M129.2,360.05c-2.09,16.74-2.88,31-20.7,41.76-22.3,13.43-50.24-20.13-23-39.49C96.32,354.63,115.42,354.71,129.2,360.05Z"/><path class="cls-2" d="M81.57,398.58a.28.28,0,0,1-.18,0,.37.37,0,0,1-.13-.49C95,374.26,122.52,350.7,155,362.72a.36.36,0,0,1,.22.45h0a.34.34,0,0,1-.44.22h0c-32-11.86-59.28,11.47-72.86,35.06A.36.36,0,0,1,81.57,398.58Z"/><path class="cls-15" d="M54.64,261.59c5.64,3,8,10.18,8.84,16.75-7.3,1.87-12.93,4.12-20-2.54S42.39,255,54.64,261.59Z"/><path class="cls-15" d="M75.71,347c-.12-6.84,6.15-12.36,12.67-15.17,3.48,5.9,7.66,9.52,5.77,17.84C91.77,360.07,76,361.32,75.71,347Z"/><path class="cls-15" d="M123,324.4c-4.34-.6-9.79-4.79-13.4-8.15,4-6.77,8.48-11.16,18.08-7.92C136.78,311.39,136.69,326.32,123,324.4Z"/><path class="cls-2" d="M84,357.7h-.1a.35.35,0,0,1-.24-.44h0c3.42-11.31,6.08-23.37,2.46-35a.36.36,0,0,1,.66-.3.31.31,0,0,1,0,.08c3.68,11.79,1,24-2.46,35.4A.34.34,0,0,1,84,357.7Z"/><path class="cls-2" d="M102.52,319.94a.35.35,0,0,1-.28-.14.36.36,0,0,1,.06-.5c8.36-6.38,20.77-5.07,31.75-3.35a.36.36,0,0,1,.29.41.35.35,0,0,1-.39.31h0c-10.83-1.7-23.06-3-31.19,3.2A.35.35,0,0,1,102.52,319.94Z"/><path class="cls-2" d="M68,279.32h0c-13.06-1.43-22.22-11.64-25.24-16.84a.36.36,0,0,1,.21-.46.35.35,0,0,1,.41.11c3,5.08,11.92,15.08,24.7,16.48a.37.37,0,0,1,.31.4A.34.34,0,0,1,68,279.32Z"/><path class="cls-17" d="M384.7,391.9h0a12.26,12.26,0,0,1-12.29,12.25h0l-54.31-.1a9.15,9.15,0,0,1-9.13-9.16v-7l71.88.13a3.85,3.85,0,0,1,3.86,3.84Z"/><path class="cls-3" d="M384.74,367.94c1.58.45,1.47.62-.36,1.49,1.67-.22.49,1.26-.89,3.72,1.11-.2-.13,3.44-.47,5a14.71,14.71,0,0,1-1.85,4.66c.87,1.14-1.25,5.21-1.25,5.21l-66.16-.12L309,367.78h11.84c3.68-.15,7.94-1.17,12.4-1.64s9.13-.37,13.63,1.69c2.15-2.18,10.33-6.57,11.86-1.52,5.22-4.36,9.6-1.47,14.18,1.57,2-1.51,4.94-1.51,7.4-1.13C383.46,367.4,386.32,368.39,384.74,367.94Z"/><path class="cls-4" d="M372.91,391.52h0a12.64,12.64,0,0,1-12.69,12.63h0l-54.83-.1a8.25,8.25,0,0,1-8.24-8.26h0v-4.23a3.64,3.64,0,0,1,3.63-3.63h0l68.63.12a3.48,3.48,0,0,1,3.51,3.45Z"/><path class="cls-2" d="M361.56,404.51H348.79a.35.35,0,0,1-.41-.29.37.37,0,0,1,.29-.42h12.89a11,11,0,0,0,11-11,.35.35,0,0,1,.35-.35h0a.36.36,0,0,1,.36.35A11.71,11.71,0,0,1,361.56,404.51Z"/><path class="cls-18" d="M373,367.94a12,12,0,0,1,.1,2.32c-.07,1.2-.08,3.09-1.35,2.89.8,2.16,2.22,4.88-.52,5,2.12,1.51-.61,2.93-1.8,4.65.52.91-.67,2.79-.9,3.72s-.36,1.49-.36,1.49L302,387.89,297.2,367.8H309c3.68-.15,7.94-1.17,12.4-1.64s9.13-.37,13.63,1.69c2.15-2.18,10.33-6.57,11.86-1.52,5.22-4.36,9.6-1.47,14.17,1.57C365.09,364.9,373,367.94,373,367.94Z"/><path class="cls-2" d="M368.48,386.91h-.08a.37.37,0,0,1-.27-.43,10.56,10.56,0,0,1,.42-1.11c.34-.79.79-1.87.52-2.35l-.12-.2.13-.19a13.13,13.13,0,0,1,1.22-1.37c.7-.71,1.35-1.38,1.31-1.94a1.29,1.29,0,0,0-.64-.84l-.83-.59,1-.05a1.35,1.35,0,0,0,1.12-.46c.42-.66-.14-2.09-.63-3.35-.1-.25-.2-.5-.29-.75l-.21-.57.6.1a.52.52,0,0,0,.42-.09c.41-.33.47-1.47.51-2.22v-.26a.35.35,0,0,1,.37-.33h0a.35.35,0,0,1,.34.35v.27c-.05,1-.12,2.21-.77,2.75a1.07,1.07,0,0,1-.41.21.82.82,0,0,0,.11.28c.58,1.49,1.18,3,.56,4a1.55,1.55,0,0,1-.92.66,1.58,1.58,0,0,1,.36.84c.07.89-.7,1.67-1.51,2.5-.35.36-.69.73-1,1.12a4.38,4.38,0,0,1-.58,2.77,7.59,7.59,0,0,0-.38,1A.34.34,0,0,1,368.48,386.91Z"/><path class="cls-2" d="M297.2,395.38h0a.36.36,0,0,1-.35-.36v-2.47a5,5,0,0,1,5-5h0l29.48.06a.36.36,0,0,1,.42.3.35.35,0,0,1-.3.41h-29.6a4.28,4.28,0,0,0-4.28,4.28v2.47A.35.35,0,0,1,297.2,395.38Z"/><path class="cls-4" d="M336.36,374.56a.37.37,0,0,1-.34-.23c-.31-.88-1.19-5.11-1.23-5.29a.35.35,0,0,1,.27-.41h0a.35.35,0,0,1,.42.27h0c0,.05.91,4.36,1.21,5.2a.34.34,0,0,1-.21.45h0A.16.16,0,0,1,336.36,374.56Z"/><path class="cls-4" d="M357.7,377.75a.39.39,0,0,1-.36-.31c0-.12-.1-.49,2.93-8.51a.36.36,0,0,1,.45-.21h0a.35.35,0,0,1,.21.46c-1.1,2.9-2.85,7.69-2.89,8.18a.32.32,0,0,1-.26.39h-.09Z"/><path class="cls-4" d="M314.78,380.57a.35.35,0,0,1-.35-.26l-3.92-13.38a.35.35,0,0,1,.24-.43h0a.36.36,0,0,1,.45.24h0l3.92,13.38a.34.34,0,0,1-.23.44h0Z"/><path class="cls-4" d="M323.77,368.57a.35.35,0,0,1-.35-.34c0-.26-.58-2.67-.92-4.14a.36.36,0,1,1,.69-.21.11.11,0,0,1,0,.05c.35,1.5.93,4,.93,4.28A.36.36,0,0,1,323.77,368.57Z"/><path class="cls-4" d="M349.2,380h-.07a.37.37,0,0,1-.28-.43l1.31-6.07a.37.37,0,0,1,.43-.28h0a.35.35,0,0,1,.27.43l-1.31,6.07A.34.34,0,0,1,349.2,380Z"/><path class="cls-7" d="M160.31,201l-5.84-2.19a7.58,7.58,0,0,0-5.31,0L143.31,201a1.48,1.48,0,0,0-.83,1.91,1.44,1.44,0,0,0,.83.83l3.49,14.71h10l3.54-14.71a1.46,1.46,0,0,0,.82-1.91A1.48,1.48,0,0,0,160.31,201Z"/><path class="cls-2" d="M146.8,218.77a.36.36,0,0,1-.35-.27L143,204a1.8,1.8,0,0,1,.24-3.32l5.84-2.2a.37.37,0,0,1,.46.21.35.35,0,0,1-.19.46h0l-5.85,2.21a1.13,1.13,0,0,0-.62,1.46,1.08,1.08,0,0,0,.62.62.32.32,0,0,1,.21.24l3.55,14.68a.35.35,0,0,1-.25.43h0Z"/><path class="cls-8" d="M182.47,294.86C180,272.4,191.64,265.75,189.8,252c-1.51-11.34-16.6-20.51-21.83-23.36a3.35,3.35,0,0,1-1.74-3l.14-8.54a3.32,3.32,0,0,0-3.29-3.38H140.59a3.35,3.35,0,0,0-3.33,3.35v0l.14,8.54a3.32,3.32,0,0,1-1.75,3c-5.23,2.85-20.32,12-21.83,23.36-1.83,13.75,9.86,20.4,7.34,42.86C119,314.4,105,371.05,106.05,395.42A8.92,8.92,0,0,0,115,404h73.73a8.89,8.89,0,0,0,8.89-8.54C198.65,371.05,184.66,314.4,182.47,294.86Z"/><path class="cls-2" d="M106.05,395.78a.35.35,0,0,1-.36-.34c-.7-16,5.1-46.06,9.77-70.18,2.46-12.74,4.59-23.74,5.34-30.44,1.4-12.4-1.6-19.93-4.18-26.57-2.14-5.42-4-10.1-3.15-16.3a.37.37,0,0,1,.4-.3h0a.36.36,0,0,1,.32.39h0c-.81,6,1,10.61,3.1,15.94,2.65,6.72,5.64,14.33,4.23,26.91-.75,6.73-2.88,17.74-5.35,30.5-4.66,24.08-10.45,54-9.75,70a.36.36,0,0,1-.34.38Z"/><path class="cls-10" d="M182.47,295.58a.71.71,0,0,1-.71-.64c-1.42-12.66,1.59-20.32,4.25-27.08,2.08-5.28,3.87-9.84,3.08-15.77-1.48-11.11-16.8-20.28-21.46-22.83a.71.71,0,0,1,.68-1.25h0c6.17,3.37,20.67,12.44,22.2,23.9.84,6.29-1.11,11.23-3.17,16.47-2.6,6.61-5.54,14.09-4.16,26.4a.71.71,0,0,1-.63.79Z"/><path class="cls-7" d="M167.2,225.26h-31V214.45a2.19,2.19,0,0,1,2.18-2.13H165a2.18,2.18,0,0,1,2.23,2.13h0Z"/><path class="cls-9" d="M167.2,215.5a.72.72,0,0,1-.72-.72h0a1.79,1.79,0,0,0-1.79-1.79h-26a.72.72,0,0,1-.8-.63.73.73,0,0,1,.63-.8h26.09a3.22,3.22,0,0,1,3.22,3.22h0A.7.7,0,0,1,167.2,215.5Z"/><path class="cls-6" d="M127.62,246.09s41.12-19.31,48.12,20.53C175.74,266.62,142.7,286,127.62,246.09Z"/><path class="cls-8" d="M142.2,265.47h0a1.17,1.17,0,0,1-1.18,1.18h-1.63a1.18,1.18,0,0,1-1.18-1.18h0V248.78a2,2,0,0,1,2-2h0a2,2,0,0,1,2,2v4.54a4.52,4.52,0,0,1,3-1.13c3.39,0,6,3.11,6,7.39s-2.55,7.39-6,7.39A3.45,3.45,0,0,1,142.2,265.47Zm5-5.84c0-2-1.08-3.41-2.53-3.41s-2.47,1.44-2.47,3.41,1.08,3.42,2.52,3.42S147.2,261.6,147.2,259.63Z"/><path class="cls-8" d="M153.73,248.15a2.37,2.37,0,0,1,4.74,0,2.36,2.36,0,0,1-2.36,2.38h0a2.36,2.36,0,0,1-2.37-2.35Zm2.37,4.31h0a2,2,0,0,1,2,2v10.25a2,2,0,0,1-2,2h0a2,2,0,0,1-2-2V254.43A2,2,0,0,1,156.1,252.46Z"/><path class="cls-8" d="M160.77,259.61A7.26,7.26,0,1,1,168,267a7.18,7.18,0,0,1-7.26-7.09Zm10.46,0a3.22,3.22,0,1,0-3.2,3.49,3.31,3.31,0,0,0,3.18-3.44v-.05Z"/><path class="cls-6" d="M182.84,369.11c0,25.7-14.15,25.89-31.61,25.89s-31.6-.19-31.6-25.89,14.15-67.17,31.6-67.17S182.84,343.41,182.84,369.11Z"/><polygon class="cls-11" points="190.09 246.07 188.06 241 186.03 246.07 181.09 247.97 185.95 249.53 188.06 254.94 190.17 249.53 195.04 247.97 190.09 246.07"/><path class="cls-2" d="M188.06,255.32a.28.28,0,0,1-.13,0,.34.34,0,0,1-.2-.45h0l2.17-5.57,5-1.61a.38.38,0,0,1,.49.17.36.36,0,0,1-.17.48.2.2,0,0,1-.11,0l-4.69,1.51-2.06,5.25A.33.33,0,0,1,188.06,255.32Z"/><path class="cls-7" d="M321.38,395.25s-4.78-67.93-6.18-79.86-12.25-11-12.25-11v-2.87H283.47v2.87s-10.81-1-12.25,11-6.2,79.86-6.2,79.86-1.91,9.54,9.86,9.54h36.63C323.29,404.79,321.38,395.25,321.38,395.25Z"/><path class="cls-9" d="M316.76,332.67a.72.72,0,0,1-.71-.69s-.18-4.75-1.59-16.5C313.13,304.4,303.4,305.1,303,305.13a.72.72,0,0,1-.78-.65.74.74,0,0,1,.65-.78c.12,0,11.53-.87,13,11.61,1.42,11.82,1.59,16.57,1.6,16.62a.72.72,0,0,1-.69.74Z"/><path class="cls-2" d="M265.88,383.53h0a.36.36,0,0,1-.33-.38c0-.56,3.93-56,5.35-67.8,1.45-12.13,12.52-11.3,12.63-11.29a.36.36,0,0,1,.38.34.34.34,0,0,1-.33.38.21.21,0,0,1-.11,0c-.43,0-10.49-.77-11.86,10.67-1.42,11.78-5.31,67.2-5.34,67.76a.37.37,0,0,1-.38.34Z"/><path class="cls-5" d="M311.3,380.21s-3.06-43.65-4-51.31-7.87-7.06-7.87-7.06h-12.5s-6.95-.61-7.87,7.06-4,51.31-4,51.31-1.23,6.13,6.34,6.13h23.54C312.53,386.32,311.3,380.21,311.3,380.21Z"/><path class="cls-12" d="M286.46,294V282.32l-2.77-1.78a3,3,0,0,1-1.11-3.71h0l7,1.45a111.78,111.78,0,0,1,19.17-1.12c8.09.25,17.09,1.6,23.46,5.58L328,287.66H300.29V294Z"/><path class="cls-13" d="M332.25,283.43a.6.6,0,0,1-.38-.11c-5.3-3.31-13.07-5.15-23.1-5.47a110.82,110.82,0,0,0-19,1.12.7.7,0,0,1-.81-.58h0a.71.71,0,0,1,.59-.81h0a113.49,113.49,0,0,1,19.31-1.14c10.28.33,18.29,2.24,23.81,5.69a.73.73,0,0,1,.24,1h0A.69.69,0,0,1,332.25,283.43Z"/><path class="cls-2" d="M328.63,288H300.57l-13.89-5.37-2.1-1.34a.36.36,0,0,1-.16-.48.36.36,0,0,1,.49-.16l.06,0L287,282l13.74,5.3H328.3l2.52-3a.36.36,0,0,1,.51,0,.34.34,0,0,1,0,.45Z"/><rect class="cls-12" x="282.82" y="292.86" width="20.72" height="8.94"/><path class="cls-2" d="M303.54,296.32a.36.36,0,0,1-.35-.36v-2.7H284.77a.36.36,0,0,1-.36-.36.37.37,0,0,1,.36-.36H303.9V296a.36.36,0,0,1-.36.36Z"/><path class="cls-19" d="M294.13,383.17c-2.91,0-4.87-1.81-4.87-4.48s2-4.33,5.13-4.33h0a.75.75,0,0,1,.76.74h0v5.39a2,2,0,0,0,1.32-2,2.66,2.66,0,0,0-.4-1.44,1.24,1.24,0,0,1,0-1.38h0a1.24,1.24,0,0,1,1.72-.35,1.35,1.35,0,0,1,.28.25,4.47,4.47,0,0,1,1,2.94C299.06,381.32,297.1,383.17,294.13,383.17Zm-1.06-6.09a1.48,1.48,0,0,0-1.24,1.57,1.79,1.79,0,0,0,1.24,1.75Z"/><path class="cls-19" d="M294.12,373.13c-2.85,0-4.86-1.76-4.86-4.24a4,4,0,0,1,1.38-3.06,1.31,1.31,0,0,1,1.85.15,1.3,1.3,0,0,1,.27.52h0a1.3,1.3,0,0,1-.44,1.32,1.27,1.27,0,0,0-.46,1c0,1,.93,1.68,2.26,1.68s2.33-.72,2.33-1.71a1.33,1.33,0,0,0-.62-1.14,1.31,1.31,0,0,1-.5-1.38h0a1.33,1.33,0,0,1,1.61-.93,1.69,1.69,0,0,1,.31.13,3.68,3.68,0,0,1,1.81,3.3C299.06,371.41,297.1,373.13,294.12,373.13Z"/><path class="cls-19" d="M294.2,363.72a4.82,4.82,0,1,1,4.89-4.81,4.77,4.77,0,0,1-4.7,4.82Zm0-6.94a2.14,2.14,0,1,0,2.32,2.13,2.21,2.21,0,0,0-2.28-2.13Z"/><polygon class="cls-11" points="312.48 305.56 311.38 302.81 310.28 305.56 307.6 306.58 310.24 307.44 311.38 310.37 312.52 307.44 315.15 306.58 312.48 305.56"/><path class="cls-2" d="M311.38,310.72h-.13a.34.34,0,0,1-.21-.43v0l1.2-3.09,2.79-.9a.37.37,0,0,1,.45.23.34.34,0,0,1-.21.45h0l-2.47.8-1.08,2.77A.34.34,0,0,1,311.38,310.72Z"/><path class="cls-4" d="M452.45,405c-4,.9-7.88-.87-9.06-6L417.2,284c-1.18-5.16,1.15-10.1,5.2-11h0c4-.9,8.26,2.52,9.43,7.67l26.24,115.06c1.18,5.16-1.52,8.45-5.57,9.38Z"/><path class="cls-2" d="M450.47,405.6c-3.67,0-6.49-2.4-7.43-6.51L416.8,284a.36.36,0,0,1,.26-.42h0a.36.36,0,0,1,.43.27l26.24,115.06c1.23,5.38,5.26,6.5,8.63,5.74a.36.36,0,0,1,.41.31.35.35,0,0,1-.25.39A8.85,8.85,0,0,1,450.47,405.6Z"/><path class="cls-18" d="M423.2,318.13c-3.1,1.8-1.1-4.75-2.57-11.1-.73-3.17-1.56-6.74-2.38-10.3-1.17-3.73-5.75-8.08-2.39-10.31-4.37-2.14-4.2-4.4-1.83-7.93-3,.58-2.29-1.41-.74-3.17-1.1-.53-1.25-2.19-1-4.11a25.29,25.29,0,0,1,1.32-5.61c1-3.9,2.13-11.26,4.82-8-.42-5.48,2.41-5.43,8.32-4.54-3.7-1.4,5.46-1.13,8.09-1.36s4.18.08,1.46,1.81c9-2.29,13-3.21,7.79,5.05,6.89-6.42,5.37.7,4.51,8.57.72-2.71,1-1.59,1.18.77s1.84,7.47.89,8.19c2.31,5.13,5.53,9.19,2.08,9,3.8,1.76,2.25,3.91-1.17,7,1.52-.07-3.25,3.53-5.8,4.14h-.06a9.33,9.33,0,0,1-9.19-3.13l4.82,20.82c.29,1.25-.63,2.45-2.18,3.46a19.12,19.12,0,0,1-6,2.38c-2.26.52-6.83,1.29-6.45.5C423.08,320.67,420.28,320.83,423.2,318.13Z"/><path class="cls-3" d="M443.52,296.84a9.09,9.09,0,0,1-7.32-3.52c-.41-.55-1-1.21-1.57-1.91-1.82-2.13-3.7-4.34-3.42-5.7a1.3,1.3,0,0,1,.33-.61c-3.8-4.19-5.24-7.91-2.79-16a.37.37,0,0,1,.44-.24h0a.36.36,0,0,1,.24.45h0c-2.42,8-1,11.37,2.91,15.57l.32.35-.43.22a.56.56,0,0,0-.32.37c-.21,1,1.8,3.38,3.26,5.09.6.71,1.17,1.38,1.61,2a8.59,8.59,0,0,0,8.82,3,.4.4,0,0,1,.46.26.33.33,0,0,1-.23.42h0A9.83,9.83,0,0,1,443.52,296.84Z"/><path class="cls-3" d="M452.91,277.32h-.11l-3.49-1.1a.38.38,0,0,1-.24-.45.35.35,0,0,1,.44-.23h0l3.5,1.09a.36.36,0,0,1,.24.44h0A.33.33,0,0,1,452.91,277.32Z"/><path class="cls-3" d="M442.14,287.26a.36.36,0,0,1-.36-.35l-.1-3.66a.39.39,0,0,1,.35-.37.35.35,0,0,1,.37.33v0l.09,3.66a.35.35,0,0,1-.34.37Z"/><path class="cls-3" d="M447,268.91a.4.4,0,0,1-.23-.08.36.36,0,0,1-.05-.5l2.89-3.54a.37.37,0,0,1,.51,0,.34.34,0,0,1,0,.47l-2.89,3.54A.31.31,0,0,1,447,268.91Z"/><path class="cls-3" d="M425.35,278.09a.33.33,0,0,1-.28-.13.35.35,0,0,1,.05-.49h0l3.75-2.94a.38.38,0,0,1,.5.14.36.36,0,0,1-.06.42L425.57,278A.29.29,0,0,1,425.35,278.09Z"/><path class="cls-3" d="M414.94,268.08a.35.35,0,0,1-.35-.31l-.54-4a.37.37,0,0,1,.31-.4.36.36,0,0,1,.4.31l.54,4a.35.35,0,0,1-.31.4Z"/><path class="cls-3" d="M421,293.44a.3.3,0,0,1-.2-.06.35.35,0,0,1-.1-.48v0l1.9-2.76a.37.37,0,0,1,.5-.1h0a.37.37,0,0,1,.09.5l-1.91,2.8A.33.33,0,0,1,421,293.44Z"/><path class="cls-3" d="M433.74,299.76a.35.35,0,0,1-.28-.14l-1.89-2.47a.39.39,0,0,1,.07-.51.37.37,0,0,1,.5.06h0l1.89,2.47a.36.36,0,0,1,0,.5h0A.3.3,0,0,1,433.74,299.76Z"/><path class="cls-3" d="M433.66,259.76a.42.42,0,0,1-.21-.06.36.36,0,0,1-.08-.5l2-2.84a.36.36,0,0,1,.48-.09h0a.36.36,0,0,1,.1.49h0l-2,2.84A.31.31,0,0,1,433.66,259.76Z"/><path class="cls-3" d="M426.44,313.89a.25.25,0,0,1-.17,0,.36.36,0,0,1-.14-.48h0l2-3.78a.35.35,0,0,1,.47-.15h0a.37.37,0,0,1,.15.49l-2,3.78A.34.34,0,0,1,426.44,313.89Z"/><path class="cls-3" d="M439.57,309.72a.4.4,0,0,1-.23-.08.35.35,0,0,1,0-.49h0l1.48-1.85a.37.37,0,0,1,.5-.13.36.36,0,0,1,.13.49.27.27,0,0,1-.07.08l-1.49,1.85A.32.32,0,0,1,439.57,309.72Z"/><path class="cls-3" d="M421.69,306.22a.19.19,0,0,1-.15,0l-3-1.35a.34.34,0,0,1-.18-.44v0a.38.38,0,0,1,.47-.18l3,1.35a.37.37,0,0,1,.18.48A.34.34,0,0,1,421.69,306.22Z"/><path class="cls-3" d="M415.83,286.78a.28.28,0,0,1-.13,0l-3.28-1.33a.37.37,0,0,1-.2-.47.37.37,0,0,1,.47-.2l3.28,1.34a.36.36,0,0,1,.2.46h0A.34.34,0,0,1,415.83,286.78Z"/><path class="cls-3" d="M427.77,254.06h-.15c-2.35-1-2.4-1.15-2.46-1.29a.34.34,0,0,1,.17-.46h0a.38.38,0,0,1,.41.07,22.86,22.86,0,0,0,2.17,1,.35.35,0,0,1,.19.47A.34.34,0,0,1,427.77,254.06Z"/><rect class="cls-12" x="200.26" y="297.88" width="25.41" height="8.72" rx="0.3"/><path class="cls-12" d="M240,328.09l-3.84,71.66a4.26,4.26,0,0,1-4.27,4H194.14a4.28,4.28,0,0,1-4.27-4L188,364l-.38-7.12-1-19.63-.5-9.15v-.87a18.2,18.2,0,0,1,3.63-11l8.51-11.31a2.65,2.65,0,0,1,2.08-1.05h25.63a2.63,2.63,0,0,1,2.08,1.05l8.5,11.31A18.08,18.08,0,0,1,240,328.09Z"/><path class="cls-2" d="M187.61,358a.36.36,0,0,1-.36-.35l-1.59-29.56v-.89a18.64,18.64,0,0,1,3.71-11.2.39.39,0,0,1,.53,0,.36.36,0,0,1,.06.46,17.89,17.89,0,0,0-3.57,10.75v.85L188,357.63a.35.35,0,0,1-.32.39h0Z"/><path class="cls-13" d="M240,328.83h0a.73.73,0,0,1-.69-.76h0a17.42,17.42,0,0,0-3.47-11.37l-8.49-11.31a1.91,1.91,0,0,0-1.5-.76H209.54a.73.73,0,1,1,0-1.46h16.31a3.4,3.4,0,0,1,2.67,1.34L237,315.81a18.79,18.79,0,0,1,3.76,12.33A.73.73,0,0,1,240,328.83Z"/><rect class="cls-7" x="198.11" y="291.19" width="29.7" height="10.22" rx="2.15"/><path class="cls-7" d="M220.87,296.77H205.05a3.38,3.38,0,0,1-3.39-3.37h0v-1.95l3.39-3.39h15.82l3.39,3.39v1.95a3.38,3.38,0,0,1-3.38,3.38Z"/><path class="cls-9" d="M227.82,293.77a.71.71,0,0,0,.73-.71v0a2.48,2.48,0,0,0-2.37-2.58H199.77a.75.75,0,0,0-.82.65.74.74,0,0,0,.65.82h26.6a1,1,0,0,1,.92,1.08v0A.73.73,0,0,0,227.82,293.77Z"/><path class="cls-11" d="M199.14,336.55h0a1.12,1.12,0,0,1-1.12,1.12h-1.56a1.13,1.13,0,0,1-1.13-1.12V320.63a1.94,1.94,0,0,1,1.87-1.91h0a1.91,1.91,0,0,1,1.9,1.91V325a4.34,4.34,0,0,1,2.94-1.07c3.23,0,5.71,3,5.71,7s-2.43,7-5.71,7A3.28,3.28,0,0,1,199.14,336.55ZM204,331c0-1.88-1-3.26-2.4-3.26s-2.41,1.38-2.41,3.26,1,3.26,2.41,3.26,2.4-1.38,2.4-3.26Z"/><path class="cls-11" d="M212.43,324.14h0a1.88,1.88,0,0,1,1.88,1.88h0v9.77a1.88,1.88,0,0,1-1.88,1.88h0a1.88,1.88,0,0,1-1.88-1.88h0V326A1.89,1.89,0,0,1,212.43,324.14Zm.09-1.66s5.4-1.59,2.58-6.49c0,0-6,1.88-2.58,6.49Z"/><path class="cls-11" d="M216.89,331a6.92,6.92,0,1,1,6.92,7,6.84,6.84,0,0,1-6.92-6.75Zm10,0a3.07,3.07,0,1,0-3.06,3.33,3.17,3.17,0,0,0,3-3.29v0Z"/><polygon class="cls-11" points="239.2 316.96 237.76 313.37 236.32 316.96 232.82 318.31 236.26 319.42 237.76 323.25 239.26 319.42 242.7 318.31 239.2 316.96"/><path class="cls-2" d="M237.76,323.6a.15.15,0,0,1-.13,0,.36.36,0,0,1-.21-.47h0l1.56-4,3.6-1.16a.38.38,0,0,1,.46.24.35.35,0,0,1-.22.46h0l-3.28,1-1.43,3.67A.35.35,0,0,1,237.76,323.6Z"/><path class="cls-18" d="M179.33,371.53a5.14,5.14,0,0,1-3.52,6.38,4.94,4.94,0,0,1-1.15.19,55.2,55.2,0,0,1-8.13-.18,4,4,0,0,0-1.37.13c-3.6,1.05-4.83,7.63-2.76,14.69s6.66,11.94,10.26,10.88a3.31,3.31,0,0,0,1.26-.66,53,53,0,0,1,6.65-4.57,5.15,5.15,0,0,1,7,1.87,4.86,4.86,0,0,1,.48,1.13h0a3.37,3.37,0,0,0,4.18,2.3h0l7.18-2.1-10.67-36.4-7.19,2.14a3.38,3.38,0,0,0-2.28,4.19h0Z"/><path class="cls-2" d="M168.94,386a.36.36,0,0,1-.34-.26,21.88,21.88,0,0,0-3.74-7.49.35.35,0,0,1,0-.49h0a.37.37,0,0,1,.51,0h0a23.08,23.08,0,0,1,3.87,7.74.35.35,0,0,1-.25.44Z"/><path class="cls-2" d="M191.31,404.16a3.75,3.75,0,0,1-3.58-2.68A.37.37,0,0,1,188,401a.36.36,0,0,1,.44.24,3,3,0,0,0,3.71,2.08l.07,0,7.18-2.1a.36.36,0,0,1,.44.24.35.35,0,0,1-.24.44h0L192.4,404A3.34,3.34,0,0,1,191.31,404.16Z"/><path class="cls-3" d="M199.91,361.9s3.6,5,2.77,9.43c3.31,2.67,6,5,3,8.64,4.25,1.12,2.79,5.08,2.11,8.89,2.68,3.68,2.77,9.43,2.77,9.43l-12,.43-9-30.72Z"/><path class="cls-2" d="M188.08,401.73a.39.39,0,0,1-.35-.25l-5.93-20.24a.35.35,0,0,1,.24-.44h0a.37.37,0,0,1,.45.25l5.93,20.28a.35.35,0,0,1-.23.45h0Z"/><path class="cls-2" d="M194.27,384.24a.35.35,0,0,1-.35-.26l-5.39-18.37-2.54.74a.35.35,0,0,1-.44-.24.37.37,0,0,1,.24-.44l3.23-.95,5.59,19.06a.36.36,0,0,1-.24.45Z"/><path class="cls-4" d="M196.55,374.13a.35.35,0,0,1-.33-.21.37.37,0,0,1,.19-.47l6.83-2.9a.36.36,0,0,1,.47.18h0a.34.34,0,0,1-.16.46h0l-6.83,2.91A.22.22,0,0,1,196.55,374.13Z"/><path class="cls-4" d="M203.44,390.15a.36.36,0,0,1-.36-.31.37.37,0,0,1,.31-.4l5-.66a.36.36,0,0,1,.4.31.34.34,0,0,1-.29.4h0l-5,.66Z"/><path class="cls-4" d="M203.09,381.09a.35.35,0,0,1-.36-.35.38.38,0,0,1,.21-.34l3.46-1.53a.36.36,0,0,1,.47.19.35.35,0,0,1-.17.47h0l-3.48,1.53A.2.2,0,0,1,203.09,381.09Z"/><path class="cls-4" d="M200.27,385.86a.34.34,0,0,1-.35-.3.34.34,0,0,1,.28-.4h0l9.28-1.41a.36.36,0,0,1,.41.3.34.34,0,0,1-.29.4h0l-9.28,1.42Z"/></g></g><g id="Layer_2-3" data-name="Layer 2"><g id="Layer_1-2-3" data-name="Layer 1-2"><path class="cls-1" d="M117,244.85a61.87,61.87,0,0,1-50.55-27.21c-7.15-10.48-11.72-23.9-8-40,9.79-43,43.13-65.14,89.43-92.9s39.95-74,99.89-84.1c39-6.57,53.86,39.64-21.48,81.78-106.83,59.75,26.58,103.51,69.85,45.88S390.3-6.29,449.86,30.94c40.2,25.13,29.6,62.52,18.47,84.17a33.91,33.91,0,0,0,1.8,34.24c18.85,28.39,45.3,95.2-27.43,95.2C330.55,244.55,180.16,245.18,117,244.85Z"/><rect class="cls-2" x="221.67" y="215.49" width="197.99" height="27.98" rx="8.25"/><path class="cls-3" d="M206.84,73.5,209,50.78h0a5.73,5.73,0,0,1,11.33-.55l4.37,22.52Zm7.88-24.36h-.24a2.18,2.18,0,0,0-1.94,2h0l-1.78,18.67,9.68-.41-3.59-18.5A2.15,2.15,0,0,0,214.72,49.14Z"/><path class="cls-3" d="M242.33,91.31c.61,4.11-.14,7.56-1.25,11.85a26.33,26.33,0,0,1-1.1,2.7,23.63,23.63,0,0,1-1.38,2.52,21.49,21.49,0,0,1-2,2.73c-9,10.46-24.59,5.81-35.51,2.28a20.51,20.51,0,0,1-2.79-2c-7-6-10.32-15.36-6-24.64a26.78,26.78,0,0,1,1.17-3.25,39.81,39.81,0,0,1,7.37-11.25,19.21,19.21,0,0,1,2.88-2,26.35,26.35,0,0,1,3.17-1.52,25.78,25.78,0,0,1,18.7-.09,25.48,25.48,0,0,1,3,1.39c.75.43,1.52.89,2.29,1.39,4.63,3.72,11.63,8.63,11.32,16.3A25.3,25.3,0,0,1,242.33,91.31Z"/><path class="cls-2" d="M200.77,72.58a.37.37,0,0,1-.28-.13.34.34,0,0,1,0-.48l0,0a18.94,18.94,0,0,1,2.93-2,26.44,26.44,0,0,1,3.22-1.54,26.12,26.12,0,0,1,19-.1.38.38,0,0,1,.21.47.36.36,0,0,1-.46.2,25.29,25.29,0,0,0-21.58,1.59A19.74,19.74,0,0,0,201,72.49.32.32,0,0,1,200.77,72.58Z"/><path class="cls-4" d="M217.48,98.72a16.45,16.45,0,0,1-4.91-1h-.07a4.72,4.72,0,0,1-.72-.52,5.29,5.29,0,0,1-1.54-6.34,4.45,4.45,0,0,1,.28-.77,9.79,9.79,0,0,1,1.83-2.81,4.17,4.17,0,0,1,.78-.54c.26-.14.52-.27.8-.39a6.65,6.65,0,0,1,2.21-.45,6.55,6.55,0,0,1,2.55.43,7.43,7.43,0,0,1,.76.35L220,87l.28.23c1.13.89,2.67,2.11,2.6,4a5.75,5.75,0,0,1,0,.83,7.27,7.27,0,0,1-.31,3,6.22,6.22,0,0,1-.29.71,4.94,4.94,0,0,1-.35.64,6,6,0,0,1-.52.7A5,5,0,0,1,217.48,98.72ZM212.83,97c2.93.94,6.2,1.75,8.11-.46a7,7,0,0,0,.46-.61c.11-.18.21-.37.31-.57a6.5,6.5,0,0,0,.25-.61,6.57,6.57,0,0,0,.28-2.68V92a5.48,5.48,0,0,0,0-.81c.06-1.58-1.26-2.63-2.33-3.47l-.25-.21-.51-.3a5.79,5.79,0,0,0-.67-.31,5.9,5.9,0,0,0-2.27-.39,5.46,5.46,0,0,0-2,.41,5.93,5.93,0,0,0-.72.34,4.83,4.83,0,0,0-.64.44,9.24,9.24,0,0,0-1.67,2.57,5,5,0,0,0-.26.74,4.56,4.56,0,0,0,1.33,5.54A4.21,4.21,0,0,0,212.83,97Z"/><path class="cls-4" d="M218.73,105.57c-3.7,0-7.52-1.24-10.32-2.14h-.07a9.22,9.22,0,0,1-1.47-1.07,10.84,10.84,0,0,1-3.18-13,12.13,12.13,0,0,1,.59-1.66,20.92,20.92,0,0,1,3.84-5.86.37.37,0,0,1,.5,0,.35.35,0,0,1,0,.49v0a20,20,0,0,0-3.7,5.65,13.81,13.81,0,0,0-.59,1.63c-2,4.31-.84,9,3,12.23a10.15,10.15,0,0,0,1.34,1c4.94,1.6,13.15,4.25,17.75-1.07a.36.36,0,0,1,.51,0h0a.35.35,0,0,1,0,.49h0A10.33,10.33,0,0,1,218.73,105.57Z"/><path class="cls-4" d="M228.45,99.6a.22.22,0,0,1-.16,0,.35.35,0,0,1-.18-.46h0c.2-.44.39-.89.55-1.35a14.21,14.21,0,0,0,.62-5.9,12.54,12.54,0,0,0-.1-1.84c.14-3.52-2.77-5.82-5.12-7.68l-.54-.43c-.36-.23-.74-.47-1.12-.68a14.31,14.31,0,0,0-1.49-.69,12.68,12.68,0,0,0-9.31,0,.36.36,0,1,1-.27-.67,13.63,13.63,0,0,1,9.84,0,16.08,16.08,0,0,1,1.58.73c.39.23.79.47,1.19.73l.57.45c2.34,1.85,5.54,4.39,5.39,8.21a12.54,12.54,0,0,1,.1,1.84,14.74,14.74,0,0,1-.65,6.15,12.74,12.74,0,0,1-.58,1.44A.36.36,0,0,1,228.45,99.6Z"/><path class="cls-4" d="M199.14,86a.33.33,0,0,1-.14,0,.36.36,0,0,1-.2-.46h0A30,30,0,0,1,204.4,77a13.42,13.42,0,0,1,2.25-1.55,17.41,17.41,0,0,1,2.42-1.17,19.68,19.68,0,0,1,14.29-.07.34.34,0,0,1,.21.45h0a.36.36,0,0,1-.47.21h0a18.94,18.94,0,0,0-13.76.07A16.11,16.11,0,0,0,207,76.07a14.54,14.54,0,0,0-2.11,1.44,29.8,29.8,0,0,0-5.42,8.3A.37.37,0,0,1,199.14,86Z"/><path class="cls-4" d="M219.83,111.59c-5.39,0-11-1.81-15.07-3.14h-.07a16.43,16.43,0,0,1-2.14-1.55.36.36,0,0,1,0-.51h0a.35.35,0,0,1,.49,0h0a16.07,16.07,0,0,0,2,1.47c7.27,2.35,19.4,6.27,26.22-1.61a15.57,15.57,0,0,0,2.5-3.85,20.33,20.33,0,0,0,.8-2c.82-3.18,1.37-5.68.92-8.72a18.86,18.86,0,0,0-.14-2.71.35.35,0,0,1,.31-.4.37.37,0,0,1,.4.31,21,21,0,0,1,.15,2.75c.46,3.11-.13,5.8-1,9a22.3,22.3,0,0,1-.85,2.09,19.9,19.9,0,0,1-1.06,1.92,17.85,17.85,0,0,1-1.56,2.1C228.56,110.37,224.26,111.59,219.83,111.59Z"/><circle class="cls-2" cx="214.65" cy="51.52" r="6.88"/><circle class="cls-2" cx="181" cy="51.52" r="6.88"/><path class="cls-5" d="M358.06,22.79H384.4a.58.58,0,0,1,.58.58V36.63h-27.5V23.37a.58.58,0,0,1,.58-.58Z"/><path class="cls-6" d="M249.73,73V206.74a8.67,8.67,0,0,0,8.67,8.67H404.82a8.67,8.67,0,0,0,8.67-8.67h0L396.86,51a11.09,11.09,0,0,0-10.32-11V37.73a1.6,1.6,0,0,0-1.59-1.6H357.61a1.6,1.6,0,0,0-1.6,1.6h0v2.15h-.07a8.68,8.68,0,0,1-6.13-2.54L340,27.52A8.72,8.72,0,0,0,333.87,25h-63.1a8.67,8.67,0,0,0-8.67,8.67h0V53.46a8.67,8.67,0,0,1-2.53,6.12l-7.3,7.3A8.62,8.62,0,0,0,249.73,73Zm25.72-27.64a7,7,0,0,1,7-7H325a7,7,0,0,1,7,7v5.25a7,7,0,0,1-7,7h-42.6a7,7,0,0,1-7-7Z"/><path class="cls-7" d="M346,22.79h26.93V36.63H345.43V23.37A.58.58,0,0,1,346,22.79Z"/><path class="cls-8" d="M237.69,73l-5,133.73a8.67,8.67,0,0,0,8.66,8.67H381.16a8.67,8.67,0,0,0,8.67-8.67h0l-.71-22L386,89l-1.22-38a11.1,11.1,0,0,0-10.32-11V37.73a1.6,1.6,0,0,0-1.6-1.6H345.56a1.6,1.6,0,0,0-1.59,1.6v2.15h-.07a8.64,8.64,0,0,1-6.13-2.54L328,27.52A8.68,8.68,0,0,0,321.83,25h-63.1a8.67,8.67,0,0,0-8.67,8.67V53.46a8.66,8.66,0,0,1-2.54,6.12l-7.29,7.3A8.62,8.62,0,0,0,237.69,73Zm25.72-27.63a7,7,0,0,1,7-7H313a7,7,0,0,1,7,7v5.25a7,7,0,0,1-7,7h-42.6a7,7,0,0,1-7-7Z"/><path class="cls-9" d="M385,30.29h0a.71.71,0,0,1-.7-.72h0c.06-2.57.08-5.43,0-6.06l-27.48-.06a.72.72,0,0,1-.71-.72.71.71,0,0,1,.71-.71h0l27.58.06a1.48,1.48,0,0,1,1.24.92c0,.14.2.54.06,6.6A.72.72,0,0,1,385,30.29Z"/><path class="cls-2" d="M381.58,36.49H359.19a.36.36,0,0,1-.42-.3.36.36,0,0,1,.3-.41h22.51a.36.36,0,0,1,.12.71Z"/><path class="cls-10" d="M386,89.71a.71.71,0,0,1-.71-.69l-1.19-38a10.41,10.41,0,0,0-9.66-10.36.72.72,0,0,1,.1-1.43,11.82,11.82,0,0,1,11,11.76l1.23,38a.74.74,0,0,1-.69.74Z"/><path class="cls-10" d="M337.77,38.05a.74.74,0,0,1-.51-.21L327.45,28a8,8,0,0,0-5.62-2.33.72.72,0,0,1-.17-1.43h.17A9.34,9.34,0,0,1,328.46,27l9.81,9.81a.72.72,0,0,1,0,1A.7.7,0,0,1,337.77,38.05Z"/><path class="cls-2" d="M263.3,51a.36.36,0,0,1-.36-.36V45.37a7.33,7.33,0,0,1,7.32-7.32h23.29a.36.36,0,0,1,0,.72H270.26a6.61,6.61,0,0,0-6.6,6.6v5.25a.36.36,0,0,1-.34.38Z"/><path class="cls-2" d="M234.77,151.4h0a.37.37,0,0,1-.35-.37l2.92-78A8.93,8.93,0,0,1,240,66.62l7.29-7.29a8.28,8.28,0,0,0,2.43-5.87.36.36,0,0,1,.72,0h0a9,9,0,0,1-2.65,6.38l-7.29,7.29A8.23,8.23,0,0,0,238,73l-2.92,78.05A.36.36,0,0,1,234.77,151.4Z"/><path class="cls-2" d="M381.16,215.76a.36.36,0,0,1-.42-.3.36.36,0,0,1,.3-.41.24.24,0,0,1,.12,0,8.33,8.33,0,0,0,8.31-8.31l-.71-22a.36.36,0,0,1,.35-.37h0a.36.36,0,0,1,.37.35h0l.7,22a9,9,0,0,1-9,9Z"/><path class="cls-6" d="M249.11,111l-1.73,64.18a24,24,0,0,0,23.36,24.62h.56l79.94.22a24,24,0,0,0,24.06-23.94v-.53L375,159.12a24,24,0,0,0-24-23.51H338a24,24,0,0,1-24-24h0a24,24,0,0,0-24-24H273A24,24,0,0,0,249.11,111Z"/><polygon class="cls-11" points="388.09 69.45 385.51 62.98 382.92 69.45 376.63 71.86 382.82 73.84 385.51 80.73 388.2 73.84 394.38 71.86 388.09 69.45"/><path class="cls-2" d="M385.51,81.09h-.13a.35.35,0,0,1-.22-.45h0l2.75-7,6.35-2a.34.34,0,0,1,.44.22h0a.36.36,0,0,1-.23.45l-6,1.93L385.86,81A.36.36,0,0,1,385.51,81.09Z"/><path class="cls-8" d="M358.06,190.08h0a1.51,1.51,0,0,1,.39-1.56,2.55,2.55,0,0,0,.7-1.88c0-.78-.23-1.35-.61-1.35s-.8.63-1.37,2.16c-1,2.75-2.24,4-3.86,4-1.95,0-3.27-1.8-3.27-4.47a5,5,0,0,1,1.6-4,1.44,1.44,0,0,1,2,.15,1.48,1.48,0,0,1,.29.52v.1a1.52,1.52,0,0,1-.49,1.53,2.1,2.1,0,0,0-.63,1.67c0,.84.25,1.32.69,1.32s.68-.44,1.18-1.93c1-3,2.08-4.15,3.76-4.15,2,0,3.35,1.72,3.35,4.47a5.48,5.48,0,0,1-1.39,4,1.44,1.44,0,0,1-2.37-.58Z"/><path class="cls-8" d="M356,180.51a5.77,5.77,0,1,1,.2,0Zm0-8.35a2.57,2.57,0,1,0-.46,5.12H356a2.57,2.57,0,0,0,.45-5.12Z"/><path class="cls-8" d="M358.6,167.31a3.39,3.39,0,0,1-3.27-2.89c-.72-2.86-1.05-3.63-1.6-3.63s-.65.46-.65,1.15a2.08,2.08,0,0,0,.68,1.64,1.38,1.38,0,0,1,.44,1.5l-.08.2a1.53,1.53,0,0,1-2,.87,1.36,1.36,0,0,1-.46-.28,5.1,5.1,0,0,1-1.61-4c0-2.77,1.64-4.45,4.3-4.45h3.86A.8.8,0,0,0,359,157a1.26,1.26,0,0,1,1.16-.7h.39a1.3,1.3,0,0,1,1.31,1.25h0a3,3,0,0,1-.94,2.31,5.67,5.67,0,0,1,.94,3.27C361.85,165.63,360.53,167.31,358.6,167.31Zm-.23-6.71h-1.6c.89,2,.7,3.59,1.62,3.59.53,0,.78-.51.78-1.33a3.38,3.38,0,0,0-.8-2.26Z"/><path class="cls-8" d="M350.27,153.69v-1.17a1,1,0,0,1,1-1h0a2.73,2.73,0,0,1-1.2-2.45c0-2.75,2.46-4.79,5.9-4.79s5.89,2.08,5.89,4.79a3.56,3.56,0,0,1-.9,2.45h3.74a1.6,1.6,0,0,1,1.59,1.6h0a1.59,1.59,0,0,1-1.59,1.59H351.28a1,1,0,0,1-1-1Zm5.67-6.23c-1.58,0-2.73.86-2.73,2s1.15,2,2.73,2,2.72-.86,2.72-2-1.15-2-2.72-2Z"/><path class="cls-12" d="M519.24,140.73v91.58a11,11,0,0,1-11,11H452.77a11,11,0,0,1-11-11V144.83a63.84,63.84,0,0,1,10.57-35.14l8-12L468.65,85a5.88,5.88,0,0,1,7.82-1.87l14,8a5.91,5.91,0,0,1,2.68,7l-.66,2a15.61,15.61,0,0,0,9.7,19.71l2.84,1A21.17,21.17,0,0,1,519.24,140.73Z"/><path class="cls-2" d="M441.75,145.19a.36.36,0,0,1-.35-.36A64.19,64.19,0,0,1,452,109.49a.36.36,0,0,1,.49-.1.38.38,0,0,1,.11.5,63.48,63.48,0,0,0-10.51,34.94A.37.37,0,0,1,441.75,145.19Z"/><path class="cls-13" d="M459.12,109.84a.67.67,0,0,1-.39-.12.73.73,0,0,1-.22-1h0L472,88.31a.71.71,0,0,1,1-.21.72.72,0,0,1,.21,1l-13.49,20.43A.73.73,0,0,1,459.12,109.84Z"/><path class="cls-13" d="M480.89,117.36a.81.81,0,0,1-.22,0,.71.71,0,0,1-.46-.9l6.56-20.66a.71.71,0,0,1,.9-.46.72.72,0,0,1,.46.9l-6.56,20.66A.73.73,0,0,1,480.89,117.36Z"/><path class="cls-13" d="M472.13,109.59a.64.64,0,0,1-.31-.07.72.72,0,0,1-.37-1l0,0,8.65-17.92a.71.71,0,1,1,1.28.62h0l-8.64,17.92A.73.73,0,0,1,472.13,109.59Z"/><rect class="cls-12" x="477.98" y="73.53" width="15.54" height="20.72" transform="translate(170.22 462.62) rotate(-60)"/><path class="cls-13" d="M519.24,141.44a.71.71,0,0,1-.71-.71h0a20.46,20.46,0,0,0-13.74-19.32l-2.84-1a16.39,16.39,0,0,1-10.14-20.6l.66-2a5.2,5.2,0,0,0-2.35-6.13l-14-8a.7.7,0,0,1-.3-1l0,0a.71.71,0,0,1,1-.28h0l14,8a6.61,6.61,0,0,1,3,7.82l-.67,2A15,15,0,0,0,502.45,119l2.84,1A21.9,21.9,0,0,1,520,140.73a.71.71,0,0,1-.71.71Z"/><rect class="cls-7" x="483.1" y="62.63" width="15.54" height="26.06" rx="0.78" transform="translate(179.91 462.94) rotate(-60)"/><path class="cls-9" d="M505.68,76.78a.63.63,0,0,1-.36-.1.7.7,0,0,1-.3-1l0,0L483.74,63.39a.72.72,0,0,1,.6-1.31l.12.07,21.31,12.31a1.44,1.44,0,0,1,.55,2l0,0A.72.72,0,0,1,505.68,76.78Z"/><path class="cls-2" d="M485.76,82a.54.54,0,0,1-.18,0l-9.43-5.44a1,1,0,0,1-.5-.66,1,1,0,0,1,.11-.82.36.36,0,0,1,.47-.18.37.37,0,0,1,.18.48l0,.06a.32.32,0,0,0,0,.27.36.36,0,0,0,.17.23L486,81.38a.38.38,0,0,1,.13.49A.39.39,0,0,1,485.76,82Z"/><rect class="cls-14" x="449.74" y="173.55" width="60.8" height="59.54" rx="14.66"/><path class="cls-15" d="M502.74,217.65c-2.87,0-4.8-1.79-4.8-4.42S499.89,209,503,209h0a.74.74,0,0,1,.74.74V215a2,2,0,0,0,1.31-2,2.55,2.55,0,0,0-.4-1.42,1.22,1.22,0,0,1,0-1.37h0a1.23,1.23,0,0,1,1.7-.36,1.27,1.27,0,0,1,.3.27,4.36,4.36,0,0,1,1,2.9A4.55,4.55,0,0,1,502.74,217.65Zm-1.05-6a1.46,1.46,0,0,0-1.22,1.55,1.74,1.74,0,0,0,1.22,1.72Z"/><path class="cls-15" d="M502.73,207.76c-2.81,0-4.79-1.74-4.79-4.18a3.86,3.86,0,0,1,1.36-3,1.3,1.3,0,0,1,1.82.14,1.44,1.44,0,0,1,.27.52h0a1.33,1.33,0,0,1-.44,1.31,1.14,1.14,0,0,0-.44,1c0,1,.91,1.65,2.22,1.65s2.3-.7,2.3-1.68a1.33,1.33,0,0,0-.61-1.12,1.23,1.23,0,0,1-.49-1.36h0a1.27,1.27,0,0,1,1.53-.94,1.25,1.25,0,0,1,.36.15,3.64,3.64,0,0,1,1.77,3.25C507.59,206.05,505.67,207.76,502.73,207.76Z"/><path class="cls-15" d="M502.78,198.49a4.73,4.73,0,1,1,.16,0Zm0-6.85a2.11,2.11,0,1,0-.41,4.2h.41a2.11,2.11,0,0,0,.41-4.2Z"/><polygon class="cls-10" points="517.26 125.84 515.02 120.24 512.79 125.84 507.33 127.93 512.69 129.65 515.02 135.62 517.36 129.65 522.72 127.93 517.26 125.84"/><path class="cls-2" d="M515,136h-.13a.35.35,0,0,1-.22-.45h0l2.39-6.13,5.53-1.77a.36.36,0,0,1,.48.17.37.37,0,0,1-.17.48l-.1,0L517.61,130l-2.27,5.81A.38.38,0,0,1,515,136Z"/><path class="cls-2" d="M173.39,214.53h0c-54.5-5.39-122-48.65-135.69-104.46a.35.35,0,0,1,.26-.43.37.37,0,0,1,.44.26C52,165.42,119.2,208.45,173.46,213.82a.37.37,0,0,1,.32.39A.38.38,0,0,1,173.39,214.53Z"/><path class="cls-16" d="M72.26,152.82C86.63,147,96.63,142,102.8,123.41S78.32,82.68,65.24,110.78C60.09,121.87,63.37,141.33,72.26,152.82Z"/><path class="cls-2" d="M80.28,173.27a.34.34,0,0,1-.31-.19c-15.23-29-9.94-52.1,16.18-70.79a.35.35,0,0,1,.5.09.36.36,0,0,1-.08.5c-25.78,18.43-31,41.29-16,69.87a.35.35,0,0,1-.14.47h0A.37.37,0,0,1,80.28,173.27Z"/><path class="cls-15" d="M49.47,94.5C57.09,90.9,64.68,90.28,70,81.82,76.77,71.23,65,56.92,52.82,69,47.25,74.48,47.11,86.36,49.47,94.5Z"/><path class="cls-2" d="M49.48,137.74a.36.36,0,0,1-.35-.28c-7-29.2-.42-56.15,17.45-72.1a.36.36,0,0,1,.51,0h0a.35.35,0,0,1,0,.49h0C49.41,81.63,43,108.33,49.86,137.26a.38.38,0,0,1-.27.44Z"/><path class="cls-16" d="M52.8,160.6c-3.34,17.62-10.12,32.1-32.34,33.29-13.46.72-29.72-16.5-14-32.24C17.7,150.43,38,151.52,52.8,160.6Z"/><path class="cls-2" d="M3.21,185.35a.31.31,0,0,1-.21-.07.34.34,0,0,1-.08-.49h0C9.77,175.64,20.8,168.22,34,163.89c12.4-4.08,25-4.87,34.64-2.17a.36.36,0,0,1,.21.46.36.36,0,0,1-.41.23C49.77,157.17,18,165.8,3.5,185.21A.37.37,0,0,1,3.21,185.35Z"/><path class="cls-16" d="M101,198.73c-2.09,16.74-2.88,31-20.7,41.76C58,253.92,30.07,220.36,57.36,201,68.13,193.31,87.23,193.39,101,198.73Z"/><path class="cls-2" d="M53.38,237.26a.54.54,0,0,1-.18,0,.36.36,0,0,1-.13-.49c13.72-23.83,41.26-47.39,73.73-35.37a.34.34,0,0,1,.21.45h0a.37.37,0,0,1-.45.22h0c-32-11.86-59.28,11.47-72.86,35.06A.38.38,0,0,1,53.38,237.26Z"/><path class="cls-15" d="M26.45,100.27c5.64,3,8,10.18,8.84,16.75-7.3,1.87-12.93,4.12-20-2.54S14.2,93.69,26.45,100.27Z"/><path class="cls-15" d="M47.52,185.63c-.12-6.84,6.15-12.36,12.67-15.17,3.48,5.9,7.66,9.52,5.77,17.84C63.58,198.75,47.78,200,47.52,185.63Z"/><path class="cls-15" d="M94.85,163.08c-4.34-.6-9.79-4.79-13.4-8.15,4-6.77,8.48-11.16,18.08-7.92C108.59,150.07,108.5,165,94.85,163.08Z"/><path class="cls-2" d="M55.79,196.38h-.1a.36.36,0,0,1-.24-.45h0c3.42-11.31,6.08-23.37,2.46-35a.36.36,0,0,1,.17-.48.37.37,0,0,1,.48.18l0,.08c3.68,11.79,1,24-2.46,35.4A.35.35,0,0,1,55.79,196.38Z"/><path class="cls-2" d="M74.33,158.62a.34.34,0,0,1-.28-.14.35.35,0,0,1,.06-.5c8.36-6.38,20.77-5.07,31.75-3.35a.37.37,0,0,1,.29.41.35.35,0,0,1-.4.3h0c-10.83-1.7-23.06-3-31.19,3.2A.37.37,0,0,1,74.33,158.62Z"/><path class="cls-2" d="M39.77,118h0c-13.06-1.43-22.22-11.64-25.24-16.84a.35.35,0,0,1,.2-.46.37.37,0,0,1,.42.11c3,5.08,11.92,15.08,24.7,16.48a.38.38,0,0,1,.31.4A.36.36,0,0,1,39.77,118Z"/><path class="cls-17" d="M356.51,230.58h0a12.27,12.27,0,0,1-12.29,12.25h0l-54.31-.1a9.15,9.15,0,0,1-9.13-9.16v-7l71.88.13a3.85,3.85,0,0,1,3.86,3.84Z"/><path class="cls-3" d="M356.55,206.62c1.58.45,1.47.62-.36,1.49,1.67-.22.49,1.26-.89,3.72,1.11-.2-.13,3.44-.47,5a15.3,15.3,0,0,1-1.85,4.66c.87,1.14-1.25,5.21-1.25,5.21l-66.16-.12-4.76-20.12h11.84c3.68-.15,7.94-1.17,12.4-1.64s9.13-.37,13.63,1.69c2.15-2.18,10.33-6.57,11.86-1.52,5.22-4.36,9.6-1.47,14.18,1.57,2-1.51,4.94-1.51,7.4-1.13C355.27,206.08,358.13,207.07,356.55,206.62Z"/><path class="cls-4" d="M344.72,230.2h0A12.66,12.66,0,0,1,332,242.83h0l-54.83-.1a8.25,8.25,0,0,1-8.24-8.26h0v-4.23a3.63,3.63,0,0,1,3.63-3.63h0l68.63.12a3.48,3.48,0,0,1,3.51,3.45Z"/><path class="cls-2" d="M333.37,243.19H320.6a.36.36,0,0,1-.42-.3.36.36,0,0,1,.3-.41h12.89a11,11,0,0,0,11-11,.35.35,0,0,1,.35-.35h0a.37.37,0,0,1,.36.35A11.73,11.73,0,0,1,333.37,243.19Z"/><path class="cls-18" d="M344.76,206.62a13.86,13.86,0,0,1,.1,2.32c-.07,1.2-.08,3.09-1.35,2.89.8,2.16,2.22,4.88-.52,5,2.12,1.51-.61,2.93-1.8,4.65.52.91-.67,2.79-.9,3.72s-.36,1.49-.36,1.49l-66.16-.12L269,206.48h11.84c3.68-.15,7.94-1.17,12.4-1.64s9.13-.37,13.63,1.69c2.15-2.18,10.33-6.57,11.86-1.52,5.22-4.36,9.6-1.47,14.17,1.57C336.9,203.58,344.76,206.62,344.76,206.62Z"/><path class="cls-2" d="M340.29,225.59h-.08a.37.37,0,0,1-.27-.43,7.44,7.44,0,0,1,.42-1.11c.34-.79.79-1.87.52-2.35l-.12-.2.13-.19a9.88,9.88,0,0,1,1.22-1.37c.7-.71,1.35-1.38,1.31-1.94a1.33,1.33,0,0,0-.64-.84l-.83-.59,1,0a1.38,1.38,0,0,0,1.12-.46c.42-.66-.14-2.09-.63-3.35-.1-.25-.2-.5-.29-.75l-.21-.57.6.1a.54.54,0,0,0,.42-.09c.41-.33.47-1.47.51-2.22v-.26a.35.35,0,0,1,.36-.33h0a.34.34,0,0,1,.33.35v.27c-.05,1-.12,2.21-.77,2.75a1.14,1.14,0,0,1-.41.21.82.82,0,0,0,.11.28c.58,1.49,1.18,3,.56,4a1.66,1.66,0,0,1-.92.66,1.63,1.63,0,0,1,.36.84c.07.89-.7,1.67-1.51,2.5a11.77,11.77,0,0,0-1,1.12,4.48,4.48,0,0,1-.58,2.77,6,6,0,0,0-.38,1A.37.37,0,0,1,340.29,225.59Z"/><path class="cls-2" d="M269,234.06h0a.36.36,0,0,1-.35-.36v-2.47a5,5,0,0,1,5-5h0l29.48.06a.36.36,0,0,1,.12.71h-29.6a4.28,4.28,0,0,0-4.28,4.28v2.47A.37.37,0,0,1,269,234.06Z"/><path class="cls-4" d="M308.17,213.24a.36.36,0,0,1-.34-.23c-.31-.88-1.19-5.11-1.23-5.29a.34.34,0,0,1,.26-.42h0a.37.37,0,0,1,.42.26h0c0,.05.91,4.36,1.21,5.2a.36.36,0,0,1-.22.45h0A.25.25,0,0,1,308.17,213.24Z"/><path class="cls-4" d="M329.51,216.43a.38.38,0,0,1-.36-.31c0-.12-.1-.49,2.93-8.51a.35.35,0,0,1,.44-.22h0a.37.37,0,0,1,.21.46c-1.1,2.9-2.85,7.69-2.89,8.18a.34.34,0,0,1-.27.39h-.08Z"/><path class="cls-4" d="M286.59,219.25a.35.35,0,0,1-.35-.26l-3.92-13.38a.35.35,0,0,1,.23-.44h0a.36.36,0,0,1,.45.24h0l3.92,13.38a.36.36,0,0,1-.24.44h0Z"/><path class="cls-4" d="M295.58,207.25a.35.35,0,0,1-.35-.34c0-.26-.58-2.67-.92-4.14a.36.36,0,1,1,.68-.21l0,.05c.35,1.5.93,4,.93,4.28A.36.36,0,0,1,295.58,207.25Z"/><path class="cls-4" d="M321,218.63h-.07a.38.38,0,0,1-.28-.43l1.31-6.07a.36.36,0,0,1,.42-.28h0a.36.36,0,0,1,.27.43l-1.31,6.07A.35.35,0,0,1,321,218.63Z"/><path class="cls-7" d="M132.12,39.65l-5.84-2.19a7.58,7.58,0,0,0-5.31,0l-5.85,2.19a1.47,1.47,0,0,0-.84,1.9,1.45,1.45,0,0,0,.84.84l3.49,14.71h10l3.54-14.71a1.46,1.46,0,0,0,.81-1.91A1.49,1.49,0,0,0,132.12,39.65Z"/><path class="cls-2" d="M118.61,57.45a.35.35,0,0,1-.35-.27l-3.49-14.54a1.79,1.79,0,0,1-1-1.64A1.76,1.76,0,0,1,115,39.32l5.84-2.2a.36.36,0,0,1,.46.21.35.35,0,0,1-.2.45h0L115.25,40a1.12,1.12,0,0,0,0,2.08.36.36,0,0,1,.21.24L119,57a.36.36,0,0,1-.25.43h0Z"/><path class="cls-8" d="M154.28,133.54c-2.52-22.46,9.17-29.11,7.33-42.86C160.1,79.34,145,70.17,139.78,67.32a3.32,3.32,0,0,1-1.74-3l.14-8.54a3.35,3.35,0,0,0-3.29-3.39H112.4a3.33,3.33,0,0,0-3.33,3.35v0l.14,8.54a3.37,3.37,0,0,1-1.75,3c-5.23,2.85-20.32,12-21.83,23.36-1.83,13.75,9.86,20.4,7.34,42.86-2.2,19.54-16.18,76.19-15.11,100.56a8.92,8.92,0,0,0,8.9,8.54h73.73a8.91,8.91,0,0,0,8.89-8.54C170.46,209.73,156.47,153.08,154.28,133.54Z"/><path class="cls-2" d="M77.86,234.46a.36.36,0,0,1-.36-.34c-.7-16,5.1-46.06,9.77-70.18,2.46-12.74,4.59-23.74,5.34-30.44,1.4-12.4-1.6-19.93-4.18-26.57-2.14-5.42-4-10.1-3.15-16.3a.34.34,0,0,1,.39-.3h0a.35.35,0,0,1,.31.38v0c-.81,6,1,10.61,3.1,15.94,2.65,6.72,5.64,14.33,4.23,26.91-.75,6.73-2.88,17.74-5.35,30.5-4.66,24.08-10.45,54-9.75,70a.38.38,0,0,1-.34.38Z"/><path class="cls-10" d="M154.28,134.26a.71.71,0,0,1-.71-.64c-1.42-12.66,1.59-20.32,4.25-27.08,2.08-5.28,3.87-9.84,3.08-15.77-1.48-11.11-16.8-20.28-21.46-22.83a.71.71,0,1,1,.68-1.25h0c6.17,3.37,20.67,12.44,22.2,23.9.84,6.29-1.11,11.23-3.17,16.47-2.6,6.61-5.54,14.09-4.16,26.4a.72.72,0,0,1-.63.79Z"/><path class="cls-7" d="M139,63.94H108V53.13A2.17,2.17,0,0,1,110.19,51h26.59A2.19,2.19,0,0,1,139,53.13h0Z"/><path class="cls-9" d="M139,54.18a.72.72,0,0,1-.72-.72h0a1.79,1.79,0,0,0-1.79-1.79h-26a.72.72,0,1,1-.17-1.43.48.48,0,0,1,.17,0h25.92a3.22,3.22,0,0,1,3.22,3.22h0A.72.72,0,0,1,139,54.18Z"/><path class="cls-6" d="M99.43,84.77s41.12-19.31,48.12,20.53C147.55,105.3,114.51,124.71,99.43,84.77Z"/><path class="cls-8" d="M114,104.15h0a1.18,1.18,0,0,1-1.18,1.18H111.2a1.18,1.18,0,0,1-1.18-1.18h0V87.46a2,2,0,0,1,2-2h0a2,2,0,0,1,2,2V92a4.48,4.48,0,0,1,3-1.13c3.39,0,6,3.11,6,7.39s-2.55,7.39-6,7.39A3.47,3.47,0,0,1,114,104.15Zm5-5.84c0-2-1.08-3.41-2.53-3.41S114,96.34,114,98.31s1.08,3.42,2.52,3.42S119,100.28,119,98.31Z"/><path class="cls-8" d="M125.54,86.83a2.37,2.37,0,1,1,2.38,2.36h0a2.35,2.35,0,0,1-2.37-2.35Zm2.37,4.31h0a2,2,0,0,1,2,2v10.25a2,2,0,0,1-2,2h0a2,2,0,0,1-2-2V93.11A2,2,0,0,1,127.91,91.14Z"/><path class="cls-8" d="M132.58,98.29a7.26,7.26,0,1,1,7.26,7.36,7.18,7.18,0,0,1-7.27-7.1A2.35,2.35,0,0,1,132.58,98.29Zm10.46,0a3.22,3.22,0,1,0-3.2,3.49A3.31,3.31,0,0,0,143,98.34v0Z"/><path class="cls-6" d="M154.65,207.79c0,25.7-14.15,25.89-31.61,25.89s-31.6-.19-31.6-25.89,14.15-67.17,31.6-67.17S154.65,182.09,154.65,207.79Z"/><polygon class="cls-11" points="161.9 84.75 159.87 79.67 157.84 84.75 152.9 86.65 157.76 88.21 159.87 93.62 161.98 88.21 166.85 86.65 161.9 84.75"/><path class="cls-2" d="M159.87,94a.28.28,0,0,1-.13,0,.35.35,0,0,1-.21-.45h0L161.71,88l5-1.61a.36.36,0,0,1,.48.17A.37.37,0,0,1,167,87l-.1,0-4.69,1.51-2.06,5.25A.36.36,0,0,1,159.87,94Z"/><path class="cls-7" d="M293.19,233.93S288.41,166,287,154.07s-12.25-11-12.25-11V140.2H255.28v2.87s-10.81-1-12.25,11-6.2,79.86-6.2,79.86-1.91,9.54,9.86,9.54h36.63C295.1,243.47,293.19,233.93,293.19,233.93Z"/><path class="cls-9" d="M288.57,171.35a.71.71,0,0,1-.71-.69s-.18-4.75-1.59-16.5c-1.33-11.08-11.06-10.38-11.47-10.35a.72.72,0,1,1-.13-1.43c.12,0,11.53-.87,13,11.61,1.42,11.82,1.59,16.57,1.6,16.62a.74.74,0,0,1-.69.74Z"/><path class="cls-2" d="M237.69,222.21h0a.35.35,0,0,1-.33-.38c0-.56,3.93-56,5.35-67.8,1.45-12.13,12.52-11.3,12.63-11.29a.37.37,0,0,1,.38.34.36.36,0,0,1-.34.38h-.1c-.43,0-10.49-.77-11.86,10.67-1.42,11.78-5.31,67.2-5.34,67.76a.36.36,0,0,1-.39.33Z"/><path class="cls-5" d="M283.11,218.89s-3.06-43.65-4-51.31-7.87-7.06-7.87-7.06h-12.5s-7-.61-7.87,7.06-4,51.31-4,51.31-1.23,6.13,6.34,6.13h23.54C284.34,225,283.11,218.89,283.11,218.89Z"/><path class="cls-12" d="M258.27,132.69V121l-2.77-1.78a3,3,0,0,1-1.11-3.71h0l7,1.45a110.72,110.72,0,0,1,19.17-1.12c8.09.25,17.09,1.6,23.46,5.58l-4.19,4.92H272.1v6.37Z"/><path class="cls-13" d="M304.06,122.11a.7.7,0,0,1-.38-.11c-5.3-3.31-13.07-5.15-23.1-5.47a110.76,110.76,0,0,0-19,1.12.7.7,0,0,1-.82-.58h0a.71.71,0,0,1,.58-.82h0a112.35,112.35,0,0,1,19.31-1.14c10.28.33,18.29,2.24,23.81,5.69a.72.72,0,0,1,.23,1h0A.75.75,0,0,1,304.06,122.11Z"/><path class="cls-2" d="M300.44,126.68H272.38l-13.89-5.37-2.1-1.34a.36.36,0,0,1,.32-.64l.07,0,2.06,1.32,13.74,5.3h27.53l2.52-3a.36.36,0,0,1,.55.46Z"/><rect class="cls-12" x="254.63" y="131.54" width="20.72" height="8.94"/><path class="cls-2" d="M275.35,135a.36.36,0,0,1-.35-.36v-2.7H256.58a.36.36,0,1,1,0-.72h19.13v3.42a.36.36,0,0,1-.36.36Z"/><path class="cls-19" d="M265.94,221.85c-2.91,0-4.87-1.81-4.87-4.48s2-4.33,5.13-4.33h0a.76.76,0,0,1,.76.74h0v5.39a2,2,0,0,0,1.32-2,2.7,2.7,0,0,0-.4-1.44,1.24,1.24,0,0,1,0-1.38h0a1.24,1.24,0,0,1,1.71-.36,1.2,1.2,0,0,1,.29.26,4.54,4.54,0,0,1,1,2.94C270.87,220,268.91,221.85,265.94,221.85Zm-1.06-6.09a1.46,1.46,0,0,0-1.24,1.57,1.79,1.79,0,0,0,1.24,1.75Z"/><path class="cls-19" d="M265.93,211.81c-2.85,0-4.86-1.76-4.86-4.24a4,4,0,0,1,1.38-3.06,1.3,1.3,0,0,1,1.84.14,1.43,1.43,0,0,1,.28.53h0a1.34,1.34,0,0,1-.44,1.32,1.18,1.18,0,0,0-.46,1c0,1,.93,1.68,2.26,1.68s2.33-.72,2.33-1.71a1.35,1.35,0,0,0-.62-1.14,1.28,1.28,0,0,1-.5-1.38h0a1.3,1.3,0,0,1,1.6-.93,1.27,1.27,0,0,1,.32.13,3.7,3.7,0,0,1,1.81,3.3C270.87,210.09,268.91,211.81,265.93,211.81Z"/><path class="cls-19" d="M266,202.4a4.82,4.82,0,1,1,4.89-4.81,4.76,4.76,0,0,1-4.71,4.81Zm0-6.94a2.14,2.14,0,1,0,2.32,2.13,2.22,2.22,0,0,0-2.29-2.13Z"/><polygon class="cls-11" points="284.29 144.24 283.19 141.49 282.09 144.24 279.41 145.26 282.05 146.11 283.19 149.04 284.33 146.11 286.96 145.26 284.29 144.24"/><path class="cls-2" d="M283.19,149.4h-.13a.33.33,0,0,1-.21-.43v0l1.2-3.09,2.79-.9a.36.36,0,0,1,.23.68h0l-2.47.8-1.08,2.77A.38.38,0,0,1,283.19,149.4Z"/><path class="cls-4" d="M424.26,243.7c-4,.9-7.88-.87-9.06-6L389,122.63c-1.18-5.16,1.15-10.1,5.2-11h0c4-.9,8.26,2.52,9.43,7.67l26.24,115.06c1.18,5.16-1.52,8.45-5.57,9.38Z"/><path class="cls-2" d="M422.28,244.28c-3.67,0-6.49-2.4-7.43-6.51L388.61,122.71a.35.35,0,0,1,.25-.43h0a.37.37,0,0,1,.43.27l26.24,115.06c1.23,5.38,5.26,6.5,8.63,5.74a.36.36,0,0,1,.16.7A9.56,9.56,0,0,1,422.28,244.28Z"/><path class="cls-18" d="M395,156.81c-3.1,1.8-1.1-4.75-2.57-11.1-.73-3.17-1.56-6.74-2.38-10.3-1.17-3.73-5.75-8.08-2.39-10.31-4.37-2.14-4.2-4.4-1.83-7.93-3,.58-2.29-1.41-.74-3.17-1.1-.53-1.25-2.19-1-4.11a24.62,24.62,0,0,1,1.32-5.61c1-3.9,2.13-11.26,4.82-8-.42-5.48,2.41-5.43,8.32-4.54-3.7-1.4,5.46-1.13,8.09-1.36s4.18.08,1.46,1.81c9-2.29,13-3.21,7.79,5,6.89-6.42,5.37.7,4.51,8.57.72-2.71,1-1.59,1.18.77s1.84,7.47.89,8.19c2.31,5.13,5.53,9.19,2.08,9,3.8,1.76,2.25,3.91-1.17,7,1.52-.07-3.25,3.53-5.8,4.14h-.06a9.32,9.32,0,0,1-9.19-3.13l4.82,20.82c.29,1.25-.63,2.45-2.18,3.46a19.46,19.46,0,0,1-6,2.38c-2.26.52-6.83,1.29-6.45.5C394.89,159.35,392.09,159.51,395,156.81Z"/><path class="cls-3" d="M415.33,135.52A9.09,9.09,0,0,1,408,132c-.41-.55-1-1.21-1.57-1.91-1.82-2.13-3.7-4.34-3.42-5.7a1.15,1.15,0,0,1,.33-.61c-3.8-4.19-5.24-7.91-2.79-16a.34.34,0,0,1,.43-.24h0a.37.37,0,0,1,.24.45h0c-2.42,8-1,11.37,2.91,15.57l.32.35-.43.22a.48.48,0,0,0-.32.37c-.21,1,1.8,3.38,3.26,5.09.6.71,1.17,1.38,1.61,2a8.57,8.57,0,0,0,8.82,3,.41.41,0,0,1,.46.26.34.34,0,0,1-.24.42h0A10.52,10.52,0,0,1,415.33,135.52Z"/><path class="cls-3" d="M424.72,116h-.11l-3.49-1.1a.36.36,0,0,1-.24-.45.33.33,0,0,1,.43-.23h0l3.5,1.09a.35.35,0,0,1,.23.44h0A.37.37,0,0,1,424.72,116Z"/><path class="cls-3" d="M414,125.94a.36.36,0,0,1-.36-.35l-.1-3.66a.37.37,0,0,1,.35-.37.36.36,0,0,1,.37.33v0l.09,3.66a.36.36,0,0,1-.34.37Z"/><path class="cls-3" d="M418.79,107.59a.36.36,0,0,1-.23-.08.35.35,0,0,1-.05-.5l2.89-3.54a.35.35,0,0,1,.51,0,.36.36,0,0,1,0,.47l-2.89,3.54A.39.39,0,0,1,418.79,107.59Z"/><path class="cls-3" d="M397.16,116.77a.33.33,0,0,1-.28-.13.34.34,0,0,1,.05-.49h0l3.75-2.94a.36.36,0,0,1,.44.56l-3.75,2.94A.36.36,0,0,1,397.16,116.77Z"/><path class="cls-3" d="M386.75,106.76a.35.35,0,0,1-.35-.31l-.54-4a.35.35,0,0,1,.31-.4.36.36,0,0,1,.4.31l.54,4a.37.37,0,0,1-.31.4Z"/><path class="cls-3" d="M392.8,132.12a.36.36,0,0,1-.2-.06.34.34,0,0,1-.1-.48v0l1.9-2.76a.36.36,0,0,1,.5-.1h0a.39.39,0,0,1,.09.5l-1.91,2.8A.36.36,0,0,1,392.8,132.12Z"/><path class="cls-3" d="M405.55,138.44a.34.34,0,0,1-.28-.14l-1.89-2.47a.37.37,0,0,1,.07-.51.35.35,0,0,1,.49.06h0l1.89,2.47a.35.35,0,0,1-.06.49h0A.37.37,0,0,1,405.55,138.44Z"/><path class="cls-3" d="M405.47,98.44a.37.37,0,0,1-.21-.06.36.36,0,0,1-.08-.5l2-2.84a.33.33,0,0,1,.47-.09h0a.35.35,0,0,1,.09.49h0l-2,2.84A.38.38,0,0,1,405.47,98.44Z"/><path class="cls-3" d="M398.25,152.57a.48.48,0,0,1-.17,0,.35.35,0,0,1-.14-.49h0l2-3.78a.36.36,0,0,1,.47-.16h0a.37.37,0,0,1,.15.49l-2,3.78A.38.38,0,0,1,398.25,152.57Z"/><path class="cls-3" d="M411.38,148.4a.36.36,0,0,1-.23-.08.34.34,0,0,1-.06-.49h0l1.48-1.85a.36.36,0,1,1,.62.36l-.06.08-1.49,1.85A.35.35,0,0,1,411.38,148.4Z"/><path class="cls-3" d="M393.5,144.9h-.15l-3-1.35a.34.34,0,0,1-.19-.45l0,0a.36.36,0,0,1,.47-.18l3,1.35a.38.38,0,0,1,.18.48A.37.37,0,0,1,393.5,144.9Z"/><path class="cls-3" d="M387.64,125.46a.28.28,0,0,1-.13,0l-3.28-1.33a.35.35,0,0,1-.2-.47.36.36,0,0,1,.47-.2l3.28,1.34a.35.35,0,0,1,.19.46h0A.38.38,0,0,1,387.64,125.46Z"/><path class="cls-3" d="M399.58,92.74a.38.38,0,0,1-.15,0c-2.35-1-2.4-1.15-2.46-1.29a.35.35,0,0,1,.16-.47h0a.35.35,0,0,1,.41.07,22.86,22.86,0,0,0,2.17,1,.36.36,0,0,1-.14.69Z"/><rect class="cls-12" x="172.07" y="136.56" width="25.41" height="8.72" rx="0.3"/><path class="cls-12" d="M211.85,166.77,208,238.43a4.28,4.28,0,0,1-4.27,4H166a4.27,4.27,0,0,1-4.27-4l-1.92-35.76-.38-7.12-1-19.63-.5-9.15v-.87a18.11,18.11,0,0,1,3.63-11L170,143.59a2.58,2.58,0,0,1,2.08-1.05h25.63a2.59,2.59,0,0,1,2.08,1.05l8.5,11.31A18.07,18.07,0,0,1,211.85,166.77Z"/><path class="cls-2" d="M159.42,196.7a.36.36,0,0,1-.36-.35l-1.59-29.56v-.89a18.53,18.53,0,0,1,3.71-11.2.37.37,0,0,1,.59.44,17.8,17.8,0,0,0-3.57,10.75v.85l1.59,29.57a.37.37,0,0,1-.33.39h0Z"/><path class="cls-13" d="M211.85,167.51h0a.72.72,0,0,1-.69-.77h0a17.46,17.46,0,0,0-3.47-11.37l-8.49-11.31a1.93,1.93,0,0,0-1.5-.76H181.35a.73.73,0,0,1,0-1.46h16.31a3.36,3.36,0,0,1,2.67,1.34l8.49,11.31a18.9,18.9,0,0,1,3.76,12.33A.74.74,0,0,1,211.85,167.51Z"/><rect class="cls-7" x="169.92" y="129.87" width="29.7" height="10.22" rx="2.15"/><path class="cls-7" d="M192.68,135.45H176.86a3.37,3.37,0,0,1-3.39-3.37h0v-1.95c1.32-1.33,2.07-2.07,3.39-3.39h15.82c1.32,1.32,2.07,2.06,3.39,3.39v1.95a3.38,3.38,0,0,1-3.38,3.38Z"/><path class="cls-9" d="M199.63,132.45a.72.72,0,0,0,.73-.71v0a2.49,2.49,0,0,0-2.37-2.58H171.58a.74.74,0,0,0-.18,1.47H198a1,1,0,0,1,.91,1.08v0A.72.72,0,0,0,199.63,132.45Z"/><path class="cls-11" d="M171,175.23h0a1.12,1.12,0,0,1-1.12,1.12h-1.56a1.13,1.13,0,0,1-1.13-1.12V159.31A1.91,1.91,0,0,1,169,157.4h0a1.91,1.91,0,0,1,1.9,1.91v4.33a4.29,4.29,0,0,1,2.94-1.07c3.23,0,5.71,3,5.71,7s-2.43,7-5.71,7A3.29,3.29,0,0,1,171,175.23Zm4.84-5.57c0-1.88-1-3.26-2.4-3.26s-2.41,1.38-2.41,3.26,1,3.26,2.41,3.26,2.4-1.38,2.4-3.26Z"/><path class="cls-11" d="M184.24,162.82h0a1.88,1.88,0,0,1,1.88,1.88h0v9.77a1.88,1.88,0,0,1-1.88,1.88h0a1.88,1.88,0,0,1-1.88-1.88h0V164.7A1.88,1.88,0,0,1,184.24,162.82Zm.09-1.66s5.4-1.59,2.58-6.49c0,0-6,1.88-2.58,6.49Z"/><path class="cls-11" d="M188.7,169.64a6.92,6.92,0,1,1,6.92,7,6.83,6.83,0,0,1-6.92-6.76A1,1,0,0,1,188.7,169.64Zm10,0a3.07,3.07,0,1,0-3.06,3.33,3.16,3.16,0,0,0,3-3.29v0Z"/><polygon class="cls-11" points="211.01 155.64 209.57 152.04 208.13 155.64 204.63 156.98 208.07 158.09 209.57 161.92 211.07 158.09 214.51 156.98 211.01 155.64"/><path class="cls-2" d="M209.57,162.28h-.13a.37.37,0,0,1-.21-.48h0l1.56-4,3.6-1.16a.38.38,0,0,1,.46.24.37.37,0,0,1-.23.46h0l-3.28,1L209.91,162A.39.39,0,0,1,209.57,162.28Z"/><path class="cls-18" d="M151.14,210.21a5.16,5.16,0,0,1-3.52,6.38,5.64,5.64,0,0,1-1.15.19,55.17,55.17,0,0,1-8.13-.18,3.72,3.72,0,0,0-1.37.13c-3.6,1.05-4.83,7.63-2.76,14.69s6.66,11.94,10.26,10.88a3.54,3.54,0,0,0,1.26-.66,52.23,52.23,0,0,1,6.65-4.57,5.16,5.16,0,0,1,7.51,3h0a3.36,3.36,0,0,0,4.17,2.29h0l7.18-2.1-10.67-36.4L153.4,206a3.38,3.38,0,0,0-2.29,4.18h0Z"/><path class="cls-2" d="M140.75,224.72a.35.35,0,0,1-.34-.26,22.15,22.15,0,0,0-3.74-7.49.34.34,0,0,1,0-.49h0a.34.34,0,0,1,.5.05h0a23.36,23.36,0,0,1,3.87,7.74.36.36,0,0,1-.25.44Z"/><path class="cls-2" d="M163.12,242.84a3.75,3.75,0,0,1-3.58-2.68.37.37,0,0,1,.25-.45.36.36,0,0,1,.44.24,3,3,0,0,0,3.7,2.07l.08,0,7.18-2.1a.35.35,0,0,1,.44.24.37.37,0,0,1-.24.44h0l-7.18,2.11A4,4,0,0,1,163.12,242.84Z"/><path class="cls-3" d="M171.72,200.58s3.6,5,2.77,9.43c3.31,2.67,6,5,3,8.64,4.25,1.12,2.79,5.08,2.11,8.89,2.68,3.68,2.77,9.43,2.77,9.43l-12,.43-9-30.72Z"/><path class="cls-2" d="M159.89,240.41a.37.37,0,0,1-.35-.25l-5.93-20.24a.36.36,0,0,1,.24-.45h0a.37.37,0,0,1,.45.25L160.23,240a.37.37,0,0,1-.24.45h0Z"/><path class="cls-2" d="M166.08,222.92a.35.35,0,0,1-.35-.26l-5.39-18.37-2.54.74a.35.35,0,0,1-.44-.24.35.35,0,0,1,.24-.44l3.23-.95,5.59,19.06a.38.38,0,0,1-.24.45Z"/><path class="cls-4" d="M168.36,212.81a.35.35,0,0,1-.14-.68l6.83-2.9a.35.35,0,0,1,.46.17v0a.35.35,0,0,1-.17.45h0l-6.83,2.91A.36.36,0,0,1,168.36,212.81Z"/><path class="cls-4" d="M175.25,228.83a.36.36,0,0,1-.36-.31.35.35,0,0,1,.31-.4l5-.66a.36.36,0,0,1,.4.31.36.36,0,0,1-.3.4h0l-5,.66Z"/><path class="cls-4" d="M174.9,219.77a.36.36,0,0,1-.15-.69l3.46-1.53a.36.36,0,0,1,.47.19.34.34,0,0,1-.18.46h0L175,219.74Z"/><path class="cls-4" d="M172.08,224.54a.33.33,0,0,1-.35-.3.35.35,0,0,1,.28-.41h0l9.28-1.41a.35.35,0,1,1,.11.7h0l-9.28,1.42Z"/></g></g><rect class="cls-11" x="0.01" width="600" height="600" rx="48.86"/><g id="Layer_2-4" data-name="Layer 2"><g id="Layer_1-2-4" data-name="Layer 1-2"><path class="cls-1" d="M154.07,437a61.91,61.91,0,0,1-50.55-27.21c-7.15-10.48-11.72-23.9-8-40,9.79-43,43.13-65.14,89.43-92.9s39.95-74,99.89-84.1c39-6.57,53.86,39.64-21.48,81.78-106.83,59.75,26.58,103.51,69.85,45.88s94.2-134.59,153.76-97.36c40.2,25.13,29.6,62.51,18.47,84.17a33.91,33.91,0,0,0,1.8,34.24c18.85,28.39,45.3,95.2-27.43,95.2C367.61,436.74,217.22,437.36,154.07,437Z"/><rect class="cls-2" x="258.73" y="407.68" width="197.99" height="27.98" rx="8.25"/><path class="cls-3" d="M243.9,265.69,246.07,243h0a5.73,5.73,0,0,1,11.33-.54l4.37,22.52Zm7.88-24.36h-.24a2.18,2.18,0,0,0-1.94,2h0L247.82,262l9.68-.41-3.59-18.49A2.15,2.15,0,0,0,251.78,241.33Z"/><path class="cls-3" d="M279.39,283.49c.61,4.11-.14,7.56-1.25,11.85A24.61,24.61,0,0,1,277,298a22.7,22.7,0,0,1-1.38,2.52,19.93,19.93,0,0,1-2,2.73c-9.05,10.46-24.59,5.81-35.51,2.28a21.15,21.15,0,0,1-2.79-2c-7-6-10.32-15.36-6-24.64a27.4,27.4,0,0,1,1.17-3.25,40,40,0,0,1,7.37-11.25,19.21,19.21,0,0,1,2.88-2,28,28,0,0,1,3.17-1.52,25.73,25.73,0,0,1,18.7-.08,25.41,25.41,0,0,1,3,1.38c.75.43,1.52.89,2.29,1.39,4.63,3.73,11.63,8.63,11.32,16.31A25.21,25.21,0,0,1,279.39,283.49Z"/><path class="cls-2" d="M237.83,264.77a.41.41,0,0,1-.28-.13.35.35,0,0,1,0-.49h0a18.26,18.26,0,0,1,2.93-2,25.69,25.69,0,0,1,3.22-1.54,26.07,26.07,0,0,1,19-.1.36.36,0,1,1-.25.67,25.43,25.43,0,0,0-18.45.09,25.69,25.69,0,0,0-3.13,1.5,20.25,20.25,0,0,0-2.85,1.91A.33.33,0,0,1,237.83,264.77Z"/><path class="cls-4" d="M254.54,290.91a16.76,16.76,0,0,1-4.91-1h-.07a5.52,5.52,0,0,1-.72-.52,5.29,5.29,0,0,1-1.54-6.34,4.69,4.69,0,0,1,.28-.77,9.53,9.53,0,0,1,1.83-2.81,4.17,4.17,0,0,1,.78-.54,5.91,5.91,0,0,1,.8-.39,6.62,6.62,0,0,1,4.76,0,5.77,5.77,0,0,1,.76.35l.56.32.28.23c1.13.89,2.67,2.11,2.6,4a5.75,5.75,0,0,1,0,.83,7.27,7.27,0,0,1-.31,3,7.06,7.06,0,0,1-.29.71,5.71,5.71,0,0,1-.35.64,7,7,0,0,1-.52.7A5,5,0,0,1,254.54,290.91Zm-4.65-1.72c2.93.94,6.2,1.75,8.11-.46.16-.2.32-.4.46-.61s.21-.38.31-.57.17-.41.25-.61a6.42,6.42,0,0,0,.28-2.68v-.06a5.47,5.47,0,0,0,0-.81c.06-1.58-1.26-2.63-2.33-3.47l-.25-.21-.51-.3a4.49,4.49,0,0,0-.67-.31,5.55,5.55,0,0,0-2.27-.39,5.46,5.46,0,0,0-2,.41,4.74,4.74,0,0,0-.72.34,4,4,0,0,0-.64.44,9,9,0,0,0-1.67,2.57,5.88,5.88,0,0,0-.26.74,4.57,4.57,0,0,0,1.33,5.54A6.77,6.77,0,0,0,249.89,289.19Z"/><path class="cls-4" d="M255.79,297.76c-3.7,0-7.52-1.24-10.32-2.14h-.07a10.43,10.43,0,0,1-1.47-1.07,10.84,10.84,0,0,1-3.18-13,12.26,12.26,0,0,1,.59-1.67,21.06,21.06,0,0,1,3.84-5.86.37.37,0,0,1,.5,0,.35.35,0,0,1,0,.5h0a20.42,20.42,0,0,0-3.7,5.66,13.66,13.66,0,0,0-.59,1.62c-2,4.31-.84,9,3,12.24a11.11,11.11,0,0,0,1.34,1c4.94,1.59,13.15,4.25,17.75-1.07a.35.35,0,0,1,.51,0h0a.34.34,0,0,1,0,.49h0A10.39,10.39,0,0,1,255.79,297.76Z"/><path class="cls-4" d="M265.51,291.78a.22.22,0,0,1-.16,0,.34.34,0,0,1-.18-.46h0a12.3,12.3,0,0,0,.55-1.35,14.19,14.19,0,0,0,.62-5.9,12.4,12.4,0,0,0-.1-1.83c.14-3.52-2.77-5.82-5.12-7.68l-.54-.43a12.85,12.85,0,0,0-1.12-.68,11.88,11.88,0,0,0-1.49-.7,12.79,12.79,0,0,0-9.31,0,.36.36,0,1,1-.27-.66,13.58,13.58,0,0,1,9.84-.06,16.16,16.16,0,0,1,1.58.74c.39.23.79.47,1.19.73l.57.45c2.34,1.84,5.54,4.39,5.39,8.2a12.67,12.67,0,0,1,.1,1.85,14.76,14.76,0,0,1-.65,6.15,12.74,12.74,0,0,1-.58,1.44A.35.35,0,0,1,265.51,291.78Z"/><path class="cls-4" d="M236.2,278.19h-.14a.35.35,0,0,1-.19-.46h0a30.32,30.32,0,0,1,5.59-8.54,14.09,14.09,0,0,1,2.25-1.56,20,20,0,0,1,2.42-1.17,19.74,19.74,0,0,1,14.29-.07.35.35,0,0,1,.21.45h0a.36.36,0,0,1-.46.22h0a19,19,0,0,0-13.76.07,16.69,16.69,0,0,0-2.33,1.13A15.11,15.11,0,0,0,242,269.7a29.66,29.66,0,0,0-5.42,8.3A.39.39,0,0,1,236.2,278.19Z"/><path class="cls-4" d="M256.89,303.77c-5.39,0-11-1.81-15.07-3.14h-.07a15.55,15.55,0,0,1-2.14-1.55.35.35,0,0,1,0-.5h0a.35.35,0,0,1,.49,0h0a15.81,15.81,0,0,0,2,1.47c7.27,2.35,19.4,6.27,26.22-1.61a15.57,15.57,0,0,0,1.5-2,17.29,17.29,0,0,0,1-1.85,19.38,19.38,0,0,0,.8-2c.82-3.18,1.37-5.68.92-8.72a18.93,18.93,0,0,0-.14-2.71.36.36,0,0,1,.31-.4.38.38,0,0,1,.4.31,21.22,21.22,0,0,1,.15,2.75c.46,3.11-.13,5.8-.95,9a20.29,20.29,0,0,1-.85,2.09,17.78,17.78,0,0,1-1.06,1.92,16.33,16.33,0,0,1-1.56,2.1C265.62,302.56,261.32,303.77,256.89,303.77Z"/><circle class="cls-2" cx="251.71" cy="243.71" r="6.88"/><circle class="cls-2" cx="218.06" cy="243.71" r="6.88"/><path class="cls-5" d="M395.12,215h26.34a.57.57,0,0,1,.58.58v13.26h-27.5V215.56a.57.57,0,0,1,.58-.58Z"/><path class="cls-6" d="M286.79,265.19V398.93a8.67,8.67,0,0,0,8.67,8.67H441.88a8.67,8.67,0,0,0,8.67-8.67h0L433.92,243.19a11.07,11.07,0,0,0-10.32-11.05v-2.22a1.6,1.6,0,0,0-1.59-1.6H394.67a1.58,1.58,0,0,0-1.6,1.59h0v2.15H393a8.74,8.74,0,0,1-6.13-2.54l-9.8-9.82a8.68,8.68,0,0,0-6.14-2.52h-63.1a8.66,8.66,0,0,0-8.67,8.66h0v19.79a8.65,8.65,0,0,1-2.53,6.12l-7.3,7.3A8.66,8.66,0,0,0,286.79,265.19Zm25.72-27.64a7,7,0,0,1,7-7h42.56a7,7,0,0,1,7,7v5.25a7,7,0,0,1-7,7h-42.6a7,7,0,0,1-7-7Z"/><path class="cls-7" d="M383.07,215H410v13.84H382.49V215.56A.57.57,0,0,1,383.07,215Z"/><path class="cls-8" d="M274.75,265.19l-5,133.72a8.66,8.66,0,0,0,8.66,8.67H418.22a8.67,8.67,0,0,0,8.67-8.66h0l-.71-22-3.11-95.72-1.22-38a11.09,11.09,0,0,0-10.32-11.05v-2.22a1.6,1.6,0,0,0-1.6-1.6H382.62a1.6,1.6,0,0,0-1.59,1.6v2.15H381a8.73,8.73,0,0,1-6.13-2.54L365,219.71a8.63,8.63,0,0,0-6.12-2.52h-63.1a8.67,8.67,0,0,0-8.67,8.66v19.79a8.62,8.62,0,0,1-2.54,6.12l-7.29,7.3A8.66,8.66,0,0,0,274.75,265.19Zm25.72-27.64a7,7,0,0,1,7-7h42.6a7,7,0,0,1,7,7v5.25a7,7,0,0,1-7,7h-42.6a7,7,0,0,1-7-7Z"/><path class="cls-9" d="M422.07,222.48h0a.71.71,0,0,1-.7-.72h0c.06-2.57.08-5.43,0-6.06l-27.48-.06a.73.73,0,0,1-.71-.72.71.71,0,0,1,.71-.72h0l27.58.06a1.46,1.46,0,0,1,1.24.92c0,.14.2.54.06,6.6A.73.73,0,0,1,422.07,222.48Z"/><path class="cls-2" d="M418.64,228.68H396.25a.37.37,0,0,1-.42-.3.35.35,0,0,1,.3-.41h22.51a.35.35,0,0,1,.41.29.36.36,0,0,1-.29.42Z"/><path class="cls-10" d="M423.07,281.89a.71.71,0,0,1-.71-.69l-1.19-38a10.39,10.39,0,0,0-9.66-10.36.73.73,0,0,1,.1-1.44,11.83,11.83,0,0,1,11,11.77l1.23,38a.73.73,0,0,1-.69.73Z"/><path class="cls-10" d="M374.83,230.24a.78.78,0,0,1-.51-.21l-9.81-9.84a7.86,7.86,0,0,0-5.62-2.33.72.72,0,0,1-.8-.64.7.7,0,0,1,.63-.79.48.48,0,0,1,.17,0,9.3,9.3,0,0,1,6.63,2.76l9.81,9.81a.72.72,0,0,1,0,1A.74.74,0,0,1,374.83,230.24Z"/><path class="cls-2" d="M300.36,243.19a.37.37,0,0,1-.36-.36v-5.28a7.31,7.31,0,0,1,7.32-7.31h23.29a.36.36,0,0,1,.36.36.36.36,0,0,1-.36.36H307.32a6.59,6.59,0,0,0-6.6,6.59v5.25a.36.36,0,0,1-.34.38Z"/><path class="cls-2" d="M271.83,343.58h0a.37.37,0,0,1-.35-.37l2.92-78a9,9,0,0,1,2.67-6.4l7.29-7.29a8.3,8.3,0,0,0,2.43-5.87.36.36,0,0,1,.72,0h0a9,9,0,0,1-2.65,6.38l-7.29,7.29a8.21,8.21,0,0,0-2.5,5.87l-2.92,78.05A.36.36,0,0,1,271.83,343.58Z"/><path class="cls-2" d="M418.22,407.94a.36.36,0,0,1-.42-.29.37.37,0,0,1,.3-.42h.12a8.32,8.32,0,0,0,8.31-8.31l-.71-22a.35.35,0,0,1,.35-.36h0a.37.37,0,0,1,.37.35h0l.7,22a9,9,0,0,1-9,9Z"/><path class="cls-6" d="M286.17,303.19l-1.73,64.17A24,24,0,0,0,307.8,392h.56l79.94.22a24,24,0,0,0,24.06-23.93v-.54l-.29-16.44a24,24,0,0,0-24-23.5h-13a24,24,0,0,1-24-24h0a24,24,0,0,0-24-24h-17A24,24,0,0,0,286.17,303.19Z"/><polygon class="cls-11" points="425.15 261.63 422.57 255.16 419.98 261.63 413.69 264.05 419.88 266.02 422.57 272.92 425.26 266.02 431.44 264.05 425.15 261.63"/><path class="cls-2" d="M422.57,273.27a.15.15,0,0,1-.13,0,.34.34,0,0,1-.22-.44v0l2.75-7,6.35-2a.35.35,0,0,1,.44.22v0a.36.36,0,0,1-.23.44l-6,1.93-2.63,6.74A.38.38,0,0,1,422.57,273.27Z"/><path class="cls-8" d="M395.12,382.27h0a1.5,1.5,0,0,1,.39-1.56,2.58,2.58,0,0,0,.7-1.88c0-.78-.23-1.36-.61-1.36s-.8.63-1.37,2.16c-1,2.75-2.24,4-3.86,4-1.95,0-3.27-1.8-3.27-4.47a5,5,0,0,1,1.6-4,1.44,1.44,0,0,1,2,.15,1.48,1.48,0,0,1,.29.52v.11a1.51,1.51,0,0,1-.49,1.52,2.1,2.1,0,0,0-.63,1.67c0,.84.25,1.33.69,1.33s.68-.44,1.18-1.93c1-2.95,2.08-4.15,3.76-4.15,2.05,0,3.35,1.72,3.35,4.47a5.45,5.45,0,0,1-1.39,4,1.48,1.48,0,0,1-2.07-.08A1.52,1.52,0,0,1,395.12,382.27Z"/><path class="cls-8" d="M393.07,372.69a5.5,5.5,0,1,1,.2,0Zm0-8.35a2.57,2.57,0,0,0-.46,5.12,1.77,1.77,0,0,0,.46,0,2.57,2.57,0,0,0,.45-5.12Z"/><path class="cls-8" d="M395.66,359.49a3.39,3.39,0,0,1-3.27-2.89c-.72-2.86-1.05-3.63-1.6-3.63s-.65.47-.65,1.15a2.06,2.06,0,0,0,.68,1.64,1.37,1.37,0,0,1,.44,1.5l-.08.2a1.52,1.52,0,0,1-2,.88,1.38,1.38,0,0,1-.46-.29,5.1,5.1,0,0,1-1.61-4c0-2.77,1.64-4.45,4.3-4.45h3.86a.76.76,0,0,0,.75-.41,1.3,1.3,0,0,1,1.16-.7h.39a1.3,1.3,0,0,1,1.31,1.25h0a3,3,0,0,1-.94,2.31,5.67,5.67,0,0,1,.94,3.27C398.91,357.82,397.59,359.49,395.66,359.49Zm-.23-6.71h-1.6c.89,2,.7,3.59,1.62,3.59.53,0,.78-.51.78-1.33a3.36,3.36,0,0,0-.8-2.25Z"/><path class="cls-8" d="M387.33,345.88v-1.17a1,1,0,0,1,1-1h0a2.73,2.73,0,0,1-1.2-2.45c0-2.75,2.46-4.79,5.9-4.79s5.89,2.08,5.89,4.79a3.58,3.58,0,0,1-.9,2.45h3.74a1.6,1.6,0,0,1,1.59,1.6h0a1.59,1.59,0,0,1-1.59,1.59H388.34a1,1,0,0,1-1-1Zm5.67-6.23c-1.58,0-2.73.86-2.73,2s1.15,2,2.73,2,2.72-.86,2.72-2-1.15-2-2.72-2Z"/><path class="cls-12" d="M556.3,332.91v91.58a11,11,0,0,1-11,11H489.83a11,11,0,0,1-11-11V337a63.88,63.88,0,0,1,10.57-35.14l8-12,8.36-12.69a5.88,5.88,0,0,1,7.82-1.88l14,8a5.91,5.91,0,0,1,2.68,7l-.66,2a15.61,15.61,0,0,0,9.7,19.71l2.84,1A21.17,21.17,0,0,1,556.3,332.91Z"/><path class="cls-2" d="M478.81,337.38a.36.36,0,0,1-.35-.36,64.19,64.19,0,0,1,10.61-35.35.36.36,0,0,1,.49-.09.38.38,0,0,1,.11.5A63.44,63.44,0,0,0,479.16,337,.37.37,0,0,1,478.81,337.38Z"/><path class="cls-13" d="M496.18,302a.6.6,0,0,1-.39-.12.71.71,0,0,1-.22-1h0l13.49-20.41a.71.71,0,0,1,1.19.78L496.77,301.7A.71.71,0,0,1,496.18,302Z"/><path class="cls-13" d="M518,309.55h-.22a.72.72,0,0,1-.46-.91L523.83,288a.7.7,0,0,1,.9-.46.72.72,0,0,1,.46.9l-6.56,20.66A.73.73,0,0,1,518,309.55Z"/><path class="cls-13" d="M509.19,301.77a.55.55,0,0,1-.31-.07.71.71,0,0,1-.37-.95l0-.05,8.65-17.92a.7.7,0,0,1,.95-.32.71.71,0,0,1,.33,1h0l-8.64,17.92A.71.71,0,0,1,509.19,301.77Z"/><rect class="cls-12" x="515.04" y="265.72" width="15.54" height="20.72" transform="translate(22.32 590.81) rotate(-60)"/><path class="cls-13" d="M556.3,333.63a.71.71,0,0,1-.71-.71h0a20.47,20.47,0,0,0-13.74-19.32l-2.84-1A16.39,16.39,0,0,1,528.87,292l.66-2a5.18,5.18,0,0,0-2.35-6.12l-14-8a.71.71,0,0,1-.29-.95l0-.05a.72.72,0,0,1,1-.29l0,0,14,8a6.61,6.61,0,0,1,3,7.82l-.67,2a15,15,0,0,0,9.26,18.81l2.84,1a21.89,21.89,0,0,1,14.72,20.68.71.71,0,0,1-.71.72Z"/><rect class="cls-7" x="520.16" y="254.81" width="15.54" height="26.06" rx="0.78" transform="translate(32.01 591.12) rotate(-60)"/><path class="cls-9" d="M542.74,269a.64.64,0,0,1-.36-.09.71.71,0,0,1-.29-.95l0-.05L520.8,255.58a.72.72,0,0,1-.35-1,.71.71,0,0,1,.95-.35l.12.06,21.31,12.31a1.44,1.44,0,0,1,.55,2l0,0A.71.71,0,0,1,542.74,269Z"/><path class="cls-2" d="M522.82,274.19h-.18l-9.43-5.45a1,1,0,0,1-.5-.66,1,1,0,0,1,.11-.82.36.36,0,0,1,.65.31l0,.05a.32.32,0,0,0,0,.27.33.33,0,0,0,.17.23l9.43,5.44a.38.38,0,0,1,.13.49A.37.37,0,0,1,522.82,274.19Z"/><rect class="cls-14" x="486.8" y="365.74" width="60.8" height="59.54" rx="14.66"/><path class="cls-15" d="M539.8,409.83c-2.87,0-4.8-1.78-4.8-4.42s2-4.22,5.07-4.22h0a.74.74,0,0,1,.74.74v5.26a2,2,0,0,0,1.31-2,2.52,2.52,0,0,0-.4-1.42,1.22,1.22,0,0,1,0-1.37h0a1.22,1.22,0,0,1,1.7-.37,1.58,1.58,0,0,1,.3.28,4.36,4.36,0,0,1,1,2.9A4.54,4.54,0,0,1,539.8,409.83Zm-1-6a1.46,1.46,0,0,0-1.22,1.55,1.72,1.72,0,0,0,1.22,1.72Z"/><path class="cls-15" d="M539.79,399.94c-2.81,0-4.79-1.74-4.79-4.17a3.83,3.83,0,0,1,1.36-3,1.29,1.29,0,0,1,1.82.13,1.27,1.27,0,0,1,.27.53h0a1.33,1.33,0,0,1-.44,1.31,1.17,1.17,0,0,0-.44,1c0,1,.91,1.64,2.22,1.64s2.3-.69,2.3-1.67a1.32,1.32,0,0,0-.61-1.12,1.24,1.24,0,0,1-.49-1.36h0a1.26,1.26,0,0,1,1.53-.94,1.14,1.14,0,0,1,.36.15,3.61,3.61,0,0,1,1.77,3.25C544.65,398.24,542.73,399.94,539.79,399.94Z"/><path class="cls-15" d="M539.84,390.68a4.73,4.73,0,1,1,.16,0Zm0-6.85a2.11,2.11,0,1,0-.41,4.19,1.41,1.41,0,0,0,.41,0,2.11,2.11,0,0,0,.41-4.19A1.41,1.41,0,0,0,539.84,383.83Z"/><polygon class="cls-10" points="554.32 318.02 552.08 312.43 549.85 318.02 544.39 320.12 549.75 321.83 552.08 327.81 554.42 321.83 559.78 320.12 554.32 318.02"/><path class="cls-2" d="M552.07,328.19h-.13a.36.36,0,0,1-.22-.45v0l2.39-6.13,5.53-1.77a.37.37,0,0,1,.48.17.35.35,0,0,1-.17.48.19.19,0,0,1-.1,0l-5.19,1.67L552.4,328A.37.37,0,0,1,552.07,328.19Z"/><path class="cls-2" d="M210.45,406.71h0c-54.5-5.38-122-48.64-135.69-104.45a.36.36,0,1,1,.7-.17C89.05,357.6,156.26,400.64,210.52,406a.35.35,0,1,1-.07.7Z"/><path class="cls-16" d="M109.32,345c14.37-5.82,24.37-10.82,30.54-29.41,6.23-18.74-24.48-40.73-37.56-12.63C97.15,314.06,100.43,333.52,109.32,345Z"/><path class="cls-2" d="M117.34,365.46a.38.38,0,0,1-.31-.19c-15.23-29-9.94-52.1,16.18-70.79a.36.36,0,1,1,.42.58c-25.78,18.43-31,41.29-16,69.88a.35.35,0,0,1-.14.47h0A.39.39,0,0,1,117.34,365.46Z"/><path class="cls-15" d="M86.53,286.69c7.62-3.6,15.21-4.23,20.54-12.68,6.76-10.59-5-24.91-17.19-12.82C84.31,266.67,84.17,278.55,86.53,286.69Z"/><path class="cls-2" d="M86.54,329.93a.37.37,0,0,1-.35-.28c-7-29.2-.42-56.15,17.45-72.1a.35.35,0,0,1,.51,0h0a.34.34,0,0,1,0,.49h0C86.47,273.82,80,300.52,86.92,329.45a.39.39,0,0,1-.27.44Z"/><path class="cls-16" d="M89.86,352.79c-3.34,17.62-10.12,32.1-32.34,33.29-13.46.72-29.72-16.5-14-32.24C54.76,342.61,75.07,343.71,89.86,352.79Z"/><path class="cls-2" d="M40.27,377.54a.32.32,0,0,1-.21-.08A.34.34,0,0,1,40,377v0c6.84-9.13,17.87-16.55,31.06-20.88,12.4-4.09,25-4.87,34.64-2.17a.36.36,0,0,1,.21.46.37.37,0,0,1-.41.23c-18.66-5.25-50.4,3.39-64.93,22.8A.4.4,0,0,1,40.27,377.54Z"/><path class="cls-16" d="M138.07,390.91c-2.09,16.75-2.88,31-20.7,41.76-22.3,13.43-50.24-20.12-23-39.48C105.19,385.49,124.29,385.58,138.07,390.91Z"/><path class="cls-2" d="M90.44,429.44a.28.28,0,0,1-.18,0,.35.35,0,0,1-.13-.49c13.72-23.83,41.26-47.39,73.73-35.37a.35.35,0,0,1,.21.45v0a.36.36,0,0,1-.45.21h0c-32-11.86-59.28,11.47-72.86,35.06A.39.39,0,0,1,90.44,429.44Z"/><path class="cls-15" d="M63.51,292.45c5.64,3,8,10.18,8.84,16.75-7.3,1.88-12.93,4.13-20-2.54S51.26,285.88,63.51,292.45Z"/><path class="cls-15" d="M84.58,377.82c-.12-6.84,6.15-12.36,12.67-15.17,3.48,5.9,7.66,9.52,5.77,17.84C100.64,390.94,84.84,392.19,84.58,377.82Z"/><path class="cls-15" d="M131.91,355.27c-4.34-.61-9.79-4.79-13.4-8.15,4-6.77,8.48-11.16,18.08-7.92C145.65,342.26,145.56,357.19,131.91,355.27Z"/><path class="cls-2" d="M92.85,388.57h-.1a.36.36,0,0,1-.24-.45h0c3.42-11.31,6.08-23.37,2.46-35a.36.36,0,1,1,.65-.31l0,.09c3.68,11.79,1,24-2.46,35.4A.38.38,0,0,1,92.85,388.57Z"/><path class="cls-2" d="M111.39,350.8a.34.34,0,0,1-.28-.14.35.35,0,0,1,.06-.5c8.36-6.38,20.77-5.07,31.75-3.35a.37.37,0,0,1,.29.41.36.36,0,0,1-.39.31h0c-10.83-1.69-23.06-3-31.19,3.2A.37.37,0,0,1,111.39,350.8Z"/><path class="cls-2" d="M76.83,310.19h0c-13.06-1.43-22.22-11.64-25.24-16.84a.36.36,0,0,1,.21-.47.35.35,0,0,1,.41.12c3,5.08,11.92,15.08,24.7,16.48a.37.37,0,0,1,.31.4A.37.37,0,0,1,76.83,310.19Z"/><path class="cls-17" d="M393.57,422.77h0A12.28,12.28,0,0,1,381.28,435h0L327,434.91a9.15,9.15,0,0,1-9.13-9.16v-7l71.88.13a3.86,3.86,0,0,1,3.86,3.84Z"/><path class="cls-3" d="M393.61,398.8c1.58.45,1.47.62-.36,1.5,1.67-.22.49,1.25-.89,3.72,1.11-.2-.13,3.44-.47,5a15.4,15.4,0,0,1-1.85,4.66c.87,1.14-1.25,5.21-1.25,5.21l-66.16-.12-4.76-20.12h11.84c3.68-.15,7.94-1.17,12.4-1.64s9.13-.37,13.63,1.69c2.15-2.18,10.33-6.57,11.86-1.52,5.22-4.36,9.6-1.47,14.18,1.57,2-1.51,4.94-1.51,7.4-1.13C392.33,398.27,395.19,399.26,393.61,398.8Z"/><path class="cls-4" d="M381.78,422.38h0A12.67,12.67,0,0,1,369.09,435h0l-54.83-.11a8.24,8.24,0,0,1-8.24-8.25v-4.25a3.63,3.63,0,0,1,3.63-3.63h0l68.63.12a3.49,3.49,0,0,1,3.51,3.45Z"/><path class="cls-2" d="M370.43,435.38H357.66a.36.36,0,0,1-.12-.72h12.89a11,11,0,0,0,11-11,.35.35,0,0,1,.35-.35h0a.37.37,0,0,1,.36.35A11.73,11.73,0,0,1,370.43,435.38Z"/><path class="cls-18" d="M381.82,398.8a13,13,0,0,1,.1,2.33c-.07,1.2-.08,3.08-1.35,2.89.8,2.16,2.22,4.88-.52,5,2.12,1.5-.61,2.92-1.8,4.64.52.92-.67,2.79-.9,3.72s-.36,1.5-.36,1.5l-66.16-.12-4.76-20.1h11.84c3.68-.14,7.94-1.17,12.4-1.64s9.13-.36,13.63,1.69c2.15-2.17,10.33-6.57,11.86-1.52,5.22-4.36,9.6-1.47,14.17,1.58C374,395.77,381.82,398.8,381.82,398.8Z"/><path class="cls-2" d="M377.35,417.77h-.08a.35.35,0,0,1-.27-.42,7,7,0,0,1,.42-1.11c.34-.79.79-1.87.52-2.36l-.12-.19.13-.2a11.19,11.19,0,0,1,1.22-1.36c.7-.72,1.35-1.39,1.31-1.94a1.3,1.3,0,0,0-.64-.84l-.83-.59,1-.05a1.41,1.41,0,0,0,1.12-.47c.42-.66-.14-2.08-.63-3.35-.1-.25-.2-.5-.29-.75l-.21-.57.6.1a.53.53,0,0,0,.42-.09c.41-.33.47-1.47.51-2.22v-.26a.35.35,0,0,1,.37-.33h0a.34.34,0,0,1,.33.35v.28c-.05,1-.12,2.21-.77,2.75a1.44,1.44,0,0,1-.41.21.82.82,0,0,0,.11.28c.58,1.49,1.18,3,.56,4a1.7,1.7,0,0,1-.92.66,1.59,1.59,0,0,1,.36.84c.07.89-.7,1.67-1.51,2.5a10.66,10.66,0,0,0-1,1.12,4.48,4.48,0,0,1-.58,2.77,5.73,5.73,0,0,0-.38,1A.35.35,0,0,1,377.35,417.77Z"/><path class="cls-2" d="M306.07,426.24h0a.35.35,0,0,1-.35-.36v-2.47a5,5,0,0,1,5-5h0l29.48.06a.37.37,0,0,1,.12.72h-29.6a4.27,4.27,0,0,0-4.28,4.27v2.48A.36.36,0,0,1,306.07,426.24Z"/><path class="cls-4" d="M345.23,405.43a.39.39,0,0,1-.34-.23c-.31-.88-1.19-5.11-1.23-5.29a.36.36,0,0,1,.26-.42h0a.34.34,0,0,1,.42.26h0c0,.05.91,4.36,1.21,5.2a.35.35,0,0,1-.21.44h0Z"/><path class="cls-4" d="M366.57,408.61a.37.37,0,0,1-.36-.31c0-.11-.1-.49,2.93-8.5a.34.34,0,0,1,.44-.22h0a.37.37,0,0,1,.21.47c-1.1,2.89-2.85,7.69-2.89,8.18a.34.34,0,0,1-.26.38h-.09Z"/><path class="cls-4" d="M323.65,411.44a.37.37,0,0,1-.35-.26l-3.92-13.38a.34.34,0,0,1,.23-.44h0a.37.37,0,0,1,.45.24h0L324,411a.35.35,0,0,1-.23.43h0Z"/><path class="cls-4" d="M332.64,399.44a.35.35,0,0,1-.35-.34c0-.26-.58-2.67-.92-4.14a.36.36,0,0,1,.69-.22.13.13,0,0,0,0,.06c.35,1.5.93,4,.93,4.28A.37.37,0,0,1,332.64,399.44Z"/><path class="cls-4" d="M358.07,410.82H358a.39.39,0,0,1-.28-.43l1.31-6.07a.36.36,0,0,1,.42-.29h0a.35.35,0,0,1,.27.42l-1.31,6.08A.36.36,0,0,1,358.07,410.82Z"/><path class="cls-7" d="M169.18,231.84l-5.84-2.19a7.47,7.47,0,0,0-5.31,0l-5.85,2.19a1.47,1.47,0,0,0,0,2.74l3.49,14.7h10l3.54-14.7a1.47,1.47,0,0,0,.81-1.92A1.44,1.44,0,0,0,169.18,231.84Z"/><path class="cls-2" d="M155.67,249.64a.37.37,0,0,1-.35-.27l-3.49-14.54a1.81,1.81,0,0,1-1-1.64,1.76,1.76,0,0,1,1.24-1.68l5.84-2.21a.37.37,0,0,1,.46.21.36.36,0,0,1-.2.46h0l-5.85,2.22a1.11,1.11,0,0,0-.63,1.45,1.15,1.15,0,0,0,.63.63.29.29,0,0,1,.21.24l3.55,14.68a.35.35,0,0,1-.25.42h0Z"/><path class="cls-8" d="M191.34,325.72c-2.52-22.46,9.17-29.11,7.33-42.86-1.51-11.34-16.6-20.51-21.83-23.35a3.33,3.33,0,0,1-1.74-3l.14-8.55a3.33,3.33,0,0,0-3.29-3.38H149.46a3.32,3.32,0,0,0-3.33,3.34v0l.14,8.55a3.38,3.38,0,0,1-1.75,3c-5.23,2.84-20.32,12-21.83,23.36-1.83,13.75,9.86,20.4,7.34,42.86-2.2,19.54-16.18,76.19-15.11,100.56a8.92,8.92,0,0,0,8.9,8.54h73.73a8.92,8.92,0,0,0,8.89-8.54C207.52,401.91,193.53,345.27,191.34,325.72Z"/><path class="cls-2" d="M114.92,426.65a.36.36,0,0,1-.36-.34c-.7-16,5.1-46.06,9.77-70.18,2.46-12.75,4.59-23.75,5.34-30.44,1.4-12.41-1.6-19.93-4.18-26.57-2.14-5.42-4-10.1-3.15-16.3a.35.35,0,0,1,.39-.31h0a.34.34,0,0,1,.31.38v0c-.81,6,1,10.61,3.1,15.94,2.65,6.72,5.64,14.33,4.23,26.91-.75,6.72-2.88,17.74-5.35,30.5-4.66,24.08-10.45,54-9.75,70a.39.39,0,0,1-.34.38Z"/><path class="cls-10" d="M191.34,326.44a.69.69,0,0,1-.71-.64c-1.42-12.66,1.59-20.32,4.25-27.08,2.08-5.28,3.87-9.84,3.08-15.77-1.48-11.11-16.8-20.28-21.46-22.83a.7.7,0,0,1-.29-1,.72.72,0,0,1,1-.29h0c6.17,3.37,20.67,12.44,22.2,23.9.84,6.29-1.11,11.23-3.17,16.47-2.6,6.61-5.54,14.09-4.16,26.4a.71.71,0,0,1-.63.79Z"/><path class="cls-7" d="M176.07,256.12h-31v-10.8a2.16,2.16,0,0,1,2.18-2.13h26.59a2.18,2.18,0,0,1,2.23,2.12h0Z"/><path class="cls-9" d="M176.07,246.37a.72.72,0,0,1-.72-.72h0a1.8,1.8,0,0,0-1.79-1.79h-26a.71.71,0,0,1-.8-.63.72.72,0,0,1,.63-.8h26.09a3.22,3.22,0,0,1,3.22,3.22h0A.73.73,0,0,1,176.07,246.37Z"/><path class="cls-6" d="M136.49,277s41.12-19.31,48.12,20.53C184.61,297.49,151.57,316.89,136.49,277Z"/><path class="cls-8" d="M151.07,296.34h0a1.18,1.18,0,0,1-1.18,1.18h-1.63a1.18,1.18,0,0,1-1.18-1.18h0v-16.7a2,2,0,0,1,2-2h0a2,2,0,0,1,2,2v4.55a4.4,4.4,0,0,1,3-1.13c3.39,0,6,3.11,6,7.39s-2.55,7.39-6,7.39A3.49,3.49,0,0,1,151.07,296.34Zm5-5.85c0-2-1.08-3.41-2.53-3.41s-2.47,1.44-2.47,3.41,1.08,3.42,2.52,3.42S156.07,292.46,156.07,290.49Z"/><path class="cls-8" d="M162.6,279a2.37,2.37,0,1,1,2.38,2.35h0A2.36,2.36,0,0,1,162.6,279Zm2.37,4.31h0a2,2,0,0,1,2,2v10.25a2,2,0,0,1-2,2h0a2,2,0,0,1-2-2V285.3A2,2,0,0,1,165,283.33Z"/><path class="cls-8" d="M169.64,290.48a7.26,7.26,0,1,1,7.26,7.36,7.18,7.18,0,0,1-7.26-7.1A2.25,2.25,0,0,1,169.64,290.48Zm10.46,0a3.22,3.22,0,1,0-3.2,3.48,3.31,3.31,0,0,0,3.17-3.44v0Z"/><path class="cls-6" d="M191.71,400c0,25.7-14.15,25.89-31.61,25.89s-31.6-.19-31.6-25.89,14.15-67.17,31.6-67.17S191.71,374.27,191.71,400Z"/><polygon class="cls-11" points="198.96 276.94 196.93 271.86 194.9 276.94 189.96 278.83 194.82 280.39 196.93 285.81 199.04 280.39 203.91 278.83 198.96 276.94"/><path class="cls-2" d="M196.93,286.19h-.13a.37.37,0,0,1-.21-.46h0l2.17-5.57,5-1.61a.36.36,0,1,1,.31.64l-.1,0-4.69,1.51L197.23,286A.38.38,0,0,1,196.93,286.19Z"/><path class="cls-7" d="M330.25,426.11s-4.78-67.92-6.18-79.85-12.25-11-12.25-11v-2.87H292.34v2.87s-10.81-1-12.25,11-6.2,79.86-6.2,79.86-1.91,9.54,9.86,9.54h36.63C332.16,435.66,330.25,426.11,330.25,426.11Z"/><path class="cls-9" d="M325.63,363.54a.72.72,0,0,1-.71-.69s-.18-4.75-1.59-16.5C322,335.27,312.27,336,311.86,336a.7.7,0,0,1-.78-.64.72.72,0,0,1,.65-.78c.12,0,11.53-.87,13,11.61,1.42,11.81,1.59,16.56,1.6,16.62a.74.74,0,0,1-.69.74Z"/><path class="cls-2" d="M274.75,414.4h0a.36.36,0,0,1-.33-.38c0-.56,3.93-56,5.35-67.81,1.45-12.13,12.52-11.3,12.63-11.28a.34.34,0,0,1,.38.33.36.36,0,0,1-.34.38h-.1c-.43,0-10.49-.77-11.86,10.67-1.42,11.78-5.31,67.2-5.34,67.76a.37.37,0,0,1-.39.33Z"/><path class="cls-5" d="M320.17,411.08s-3.06-43.66-4-51.31-7.87-7.06-7.87-7.06H295.8s-6.95-.61-7.87,7.06-4,51.31-4,51.31-1.23,6.13,6.34,6.13h23.54C321.4,417.19,320.17,411.08,320.17,411.08Z"/><path class="cls-12" d="M295.33,324.88V313.19l-2.77-1.78a3,3,0,0,1-1.11-3.71h0l7,1.44A111.72,111.72,0,0,1,317.62,308c8.09.25,17.09,1.6,23.46,5.58l-4.19,4.92H309.16v6.37Z"/><path class="cls-13" d="M341.12,314.3a.7.7,0,0,1-.38-.11c-5.3-3.31-13.07-5.16-23.1-5.48a109.77,109.77,0,0,0-19,1.13.71.71,0,0,1-.82-.59h0a.7.7,0,0,1,.58-.82h0a111.36,111.36,0,0,1,19.31-1.14c10.28.33,18.29,2.24,23.81,5.69a.71.71,0,0,1,.23,1h0A.75.75,0,0,1,341.12,314.3Z"/><path class="cls-2" d="M337.5,318.87H309.44l-13.89-5.38-2.1-1.33a.36.36,0,0,1-.16-.49.35.35,0,0,1,.48-.16l.07.05,2.06,1.32,13.74,5.3h27.53l2.52-3a.35.35,0,0,1,.51,0,.36.36,0,0,1,0,.46Z"/><rect class="cls-12" x="291.69" y="323.72" width="20.72" height="8.94"/><path class="cls-2" d="M312.41,327.19a.36.36,0,0,1-.35-.36v-2.7H293.64a.36.36,0,0,1-.36-.36.36.36,0,0,1,.36-.36h19.13v3.42a.36.36,0,0,1-.36.36Z"/><path class="cls-19" d="M303,414c-2.91,0-4.87-1.81-4.87-4.48s2-4.33,5.13-4.33h0a.75.75,0,0,1,.76.73v5.41a2,2,0,0,0,1.32-2,2.61,2.61,0,0,0-.4-1.44,1.24,1.24,0,0,1,0-1.38h0a1.22,1.22,0,0,1,1.71-.36,1.41,1.41,0,0,1,.29.25,4.58,4.58,0,0,1,1,2.94C307.93,412.19,306,414,303,414ZM301.94,408a1.46,1.46,0,0,0-1.24,1.57,1.79,1.79,0,0,0,1.24,1.75Z"/><path class="cls-19" d="M303,404c-2.85,0-4.86-1.75-4.86-4.24a4,4,0,0,1,1.38-3.06,1.3,1.3,0,0,1,1.84.15,1.32,1.32,0,0,1,.28.52h0a1.37,1.37,0,0,1-.44,1.33,1.18,1.18,0,0,0-.46,1c0,1,.93,1.67,2.26,1.67s2.33-.72,2.33-1.71a1.35,1.35,0,0,0-.62-1.14,1.28,1.28,0,0,1-.5-1.38h0a1.32,1.32,0,0,1,1.6-.93,1.79,1.79,0,0,1,.32.13,3.72,3.72,0,0,1,1.81,3.3C307.93,402.27,306,404,303,404Z"/><path class="cls-19" d="M303.07,394.58a4.56,4.56,0,1,1,.18,0Zm0-6.94a2.14,2.14,0,1,0,2.32,2.13,2.23,2.23,0,0,0-2.29-2.13h0Z"/><polygon class="cls-11" points="321.35 336.43 320.25 333.68 319.15 336.43 316.47 337.44 319.11 338.3 320.25 341.23 321.39 338.3 324.02 337.44 321.35 336.43"/><path class="cls-2" d="M320.25,341.58h-.13a.33.33,0,0,1-.21-.43v0l1.2-3.09,2.79-.9a.37.37,0,0,1,.45.23.36.36,0,0,1-.22.45h0l-2.47.8-1.08,2.77A.34.34,0,0,1,320.25,341.58Z"/><path class="cls-4" d="M461.32,435.88c-4,.9-7.88-.86-9.06-6L426.07,314.81c-1.18-5.15,1.15-10.1,5.2-11h0c4-.9,8.26,2.52,9.43,7.67l26.24,115.06c1.18,5.16-1.52,8.45-5.57,9.38Z"/><path class="cls-2" d="M459.34,436.46c-3.67,0-6.49-2.39-7.43-6.5L425.67,314.89a.34.34,0,0,1,.25-.42h0a.37.37,0,0,1,.43.27l26.24,115.06c1.23,5.38,5.26,6.5,8.63,5.74a.37.37,0,0,1,.41.31.36.36,0,0,1-.25.39A9,9,0,0,1,459.34,436.46Z"/><path class="cls-18" d="M432.07,349c-3.1,1.81-1.1-4.75-2.57-11.1-.73-3.17-1.56-6.74-2.38-10.3-1.17-3.73-5.75-8.08-2.39-10.31-4.37-2.14-4.2-4.4-1.83-7.93-3,.58-2.29-1.41-.74-3.17-1.1-.53-1.25-2.19-1-4.11a24.75,24.75,0,0,1,1.32-5.61c1-3.9,2.13-11.26,4.82-8-.42-5.48,2.41-5.43,8.32-4.54-3.7-1.4,5.46-1.13,8.09-1.36s4.18.08,1.46,1.81c9-2.29,13-3.21,7.79,5.05,6.89-6.42,5.37.7,4.51,8.57.72-2.71,1-1.59,1.18.77s1.84,7.47.89,8.19c2.31,5.13,5.53,9.19,2.08,9,3.8,1.76,2.25,3.91-1.17,7,1.52-.07-3.25,3.53-5.8,4.14h-.06A9.33,9.33,0,0,1,445.4,324l4.82,20.82c.29,1.25-.63,2.45-2.18,3.46a19.21,19.21,0,0,1-6,2.38c-2.26.52-6.83,1.29-6.45.5C432,351.54,429.15,351.69,432.07,349Z"/><path class="cls-3" d="M452.39,327.71a9.12,9.12,0,0,1-7.32-3.52c-.41-.56-1-1.22-1.57-1.92-1.82-2.13-3.7-4.33-3.42-5.69a1.14,1.14,0,0,1,.33-.62c-3.8-4.19-5.24-7.91-2.79-16a.35.35,0,0,1,.43-.24h0a.35.35,0,0,1,.24.44h0c-2.42,8-1,11.38,2.91,15.57l.32.35-.43.22a.51.51,0,0,0-.32.38c-.21,1,1.8,3.37,3.26,5.08.6.72,1.17,1.39,1.61,2a8.57,8.57,0,0,0,8.82,3,.41.41,0,0,1,.46.26.34.34,0,0,1-.24.42h0A10.53,10.53,0,0,1,452.39,327.71Z"/><path class="cls-3" d="M461.78,308.19h-.11l-3.49-1.1a.37.37,0,0,1-.24-.45.34.34,0,0,1,.43-.24h0l3.5,1.08a.36.36,0,0,1,.23.44h0A.36.36,0,0,1,461.78,308.19Z"/><path class="cls-3" d="M451,318.13a.36.36,0,0,1-.36-.35l-.1-3.66a.38.38,0,0,1,.35-.38.35.35,0,0,1,.37.33v0l.09,3.67a.38.38,0,0,1-.34.37Z"/><path class="cls-3" d="M455.85,299.77a.35.35,0,0,1-.28-.58l2.89-3.54a.37.37,0,0,1,.51,0,.37.37,0,0,1,0,.47l-2.89,3.54A.32.32,0,0,1,455.85,299.77Z"/><path class="cls-3" d="M434.22,309a.32.32,0,0,1-.28-.12.36.36,0,0,1,.05-.5h0l3.75-2.95a.37.37,0,0,1,.49.14.35.35,0,0,1-.05.42l-3.75,2.94A.31.31,0,0,1,434.22,309Z"/><path class="cls-3" d="M423.81,299a.36.36,0,0,1-.35-.31l-.54-4a.35.35,0,0,1,.31-.4.36.36,0,0,1,.4.31l.54,4a.37.37,0,0,1-.31.4Z"/><path class="cls-3" d="M429.86,324.3a.3.3,0,0,1-.2-.06.34.34,0,0,1-.1-.48v0l1.9-2.75a.36.36,0,0,1,.5-.11h0a.38.38,0,0,1,.09.5l-1.91,2.81A.34.34,0,0,1,429.86,324.3Z"/><path class="cls-3" d="M442.61,330.63a.42.42,0,0,1-.28-.14L440.44,328a.36.36,0,0,1,.07-.51.35.35,0,0,1,.49.05v0l1.89,2.47a.35.35,0,0,1-.06.49h0A.42.42,0,0,1,442.61,330.63Z"/><path class="cls-3" d="M442.53,290.63a.65.65,0,0,1-.21-.06.36.36,0,0,1-.08-.5l2-2.84a.34.34,0,0,1,.47-.1l0,0a.34.34,0,0,1,.09.48h0l-2,2.84A.38.38,0,0,1,442.53,290.63Z"/><path class="cls-3" d="M435.31,344.76h-.17a.35.35,0,0,1-.14-.49h0l2-3.78a.34.34,0,0,1,.47-.16h0a.37.37,0,0,1,.15.49l-2,3.78A.41.41,0,0,1,435.31,344.76Z"/><path class="cls-3" d="M448.44,340.58a.36.36,0,0,1-.23-.08.35.35,0,0,1-.06-.49h0l1.48-1.85a.36.36,0,1,1,.62.36.24.24,0,0,1-.06.08l-1.49,1.85A.35.35,0,0,1,448.44,340.58Z"/><path class="cls-3" d="M430.56,337.08a.19.19,0,0,1-.15,0l-3-1.35a.32.32,0,0,1-.18-.44v0a.37.37,0,0,1,.47-.18l3,1.36a.36.36,0,0,1,.18.47A.35.35,0,0,1,430.56,337.08Z"/><path class="cls-3" d="M424.7,317.64h-.13l-3.28-1.33a.34.34,0,0,1-.2-.46.36.36,0,0,1,.47-.21l3.28,1.34a.36.36,0,0,1,.19.46h0A.34.34,0,0,1,424.7,317.64Z"/><path class="cls-3" d="M436.64,284.92h-.15c-2.35-1-2.4-1.15-2.46-1.29a.34.34,0,0,1,.16-.46h0a.38.38,0,0,1,.41.07,22.86,22.86,0,0,0,2.17,1,.37.37,0,0,1,.19.47A.36.36,0,0,1,436.64,284.92Z"/><rect class="cls-12" x="209.13" y="328.74" width="25.41" height="8.72" rx="0.3"/><path class="cls-12" d="M248.91,359l-3.84,71.65a4.27,4.27,0,0,1-4.27,4H203a4.28,4.28,0,0,1-4.27-4l-1.92-35.76-.38-7.11-1.05-19.64-.5-9.14v-.87a18.09,18.09,0,0,1,3.63-11L207,335.78a2.59,2.59,0,0,1,2.08-1h25.63a2.59,2.59,0,0,1,2.08,1l8.5,11.31A18.05,18.05,0,0,1,248.91,359Z"/><path class="cls-2" d="M196.48,388.88a.34.34,0,0,1-.36-.35L194.53,359v-.89a18.57,18.57,0,0,1,3.71-11.2.37.37,0,0,1,.52,0,.38.38,0,0,1,.07.47,17.78,17.78,0,0,0-3.57,10.75v.85l1.59,29.56a.36.36,0,0,1-.33.39h0Z"/><path class="cls-13" d="M248.91,359.69h0a.72.72,0,0,1-.69-.76h0a17.48,17.48,0,0,0-3.47-11.37l-8.49-11.31a1.89,1.89,0,0,0-1.5-.75H218.41a.74.74,0,0,1,0-1.47h16.31a3.4,3.4,0,0,1,2.67,1.34l8.49,11.31A18.9,18.9,0,0,1,249.64,359,.74.74,0,0,1,248.91,359.69Z"/><rect class="cls-7" x="206.98" y="322.05" width="29.7" height="10.22" rx="2.15"/><path class="cls-7" d="M229.74,327.63H213.92a3.37,3.37,0,0,1-3.39-3.36v-2l3.39-3.39h15.82l3.39,3.39v1.95a3.4,3.4,0,0,1-3.38,3.39Z"/><path class="cls-9" d="M236.69,324.63a.72.72,0,0,0,.73-.7v0a2.48,2.48,0,0,0-2.37-2.58H208.64a.73.73,0,0,0-.82.64.74.74,0,0,0,.65.83h26.6a1,1,0,0,1,.91,1.08v0A.72.72,0,0,0,236.69,324.63Z"/><path class="cls-11" d="M208,367.41h0a1.12,1.12,0,0,1-1.12,1.12h-1.56a1.11,1.11,0,0,1-1.13-1.12V351.49a1.92,1.92,0,0,1,1.87-1.91h0a1.91,1.91,0,0,1,1.9,1.91v4.34a4.3,4.3,0,0,1,2.94-1.08c3.23,0,5.71,3,5.71,7s-2.43,7-5.71,7A3.26,3.26,0,0,1,208,367.41Zm4.84-5.57c0-1.88-1-3.26-2.4-3.26S208,360,208,361.84s1,3.26,2.41,3.26,2.4-1.38,2.4-3.25Z"/><path class="cls-11" d="M221.3,355h0a1.88,1.88,0,0,1,1.88,1.87h0v9.77a1.88,1.88,0,0,1-1.88,1.88h0a1.88,1.88,0,0,1-1.88-1.88h0v-9.78A1.88,1.88,0,0,1,221.3,355Zm.09-1.66s5.4-1.59,2.58-6.5c0,0-6,1.89-2.58,6.5Z"/><path class="cls-11" d="M225.76,361.83a6.88,6.88,0,1,1,0,.24Zm10,0a3.07,3.07,0,1,0-3.06,3.33,3.17,3.17,0,0,0,3-3.3v0Z"/><polygon class="cls-11" points="248.07 347.82 246.63 344.23 245.19 347.82 241.69 349.17 245.13 350.27 246.63 354.11 248.13 350.27 251.57 349.17 248.07 347.82"/><path class="cls-2" d="M246.63,354.46a.15.15,0,0,1-.13,0,.35.35,0,0,1-.21-.47h0l1.56-4,3.6-1.16a.36.36,0,0,1,.46.24.36.36,0,0,1-.23.45h0l-3.28,1L247,354.2A.36.36,0,0,1,246.63,354.46Z"/><path class="cls-18" d="M188.2,402.4a5.15,5.15,0,0,1-3.52,6.37,5.65,5.65,0,0,1-1.15.2,58.06,58.06,0,0,1-8.13-.18,3.52,3.52,0,0,0-1.37.13c-3.6,1.05-4.83,7.63-2.76,14.69s6.66,11.94,10.26,10.88a3.71,3.71,0,0,0,1.26-.66,50.25,50.25,0,0,1,6.65-4.57,5.13,5.13,0,0,1,7,1.86,5.23,5.23,0,0,1,.49,1.14h0a3.37,3.37,0,0,0,4.18,2.29h0l7.18-2.1-10.67-36.4-7.19,2.14a3.35,3.35,0,0,0-2.28,4.18h0Z"/><path class="cls-2" d="M177.81,416.91a.37.37,0,0,1-.34-.26,22.06,22.06,0,0,0-3.74-7.49.35.35,0,0,1,0-.5h0a.35.35,0,0,1,.5,0h0a23.08,23.08,0,0,1,3.87,7.74.36.36,0,0,1-.25.44Z"/><path class="cls-2" d="M200.18,435a3.73,3.73,0,0,1-3.58-2.67.37.37,0,0,1,.25-.45.35.35,0,0,1,.44.24,3,3,0,0,0,3.7,2.07l.08,0,7.18-2.11a.37.37,0,0,1,.44.24.35.35,0,0,1-.24.44h0l-7.18,2.11A3.38,3.38,0,0,1,200.18,435Z"/><path class="cls-3" d="M208.78,392.77s3.6,5,2.77,9.43c3.31,2.67,6,5,3,8.64,4.25,1.12,2.79,5.08,2.11,8.89,2.68,3.68,2.77,9.43,2.77,9.43l-12,.42-9-30.72Z"/><path class="cls-2" d="M197,432.6a.38.38,0,0,1-.35-.25l-5.93-20.25a.35.35,0,0,1,.24-.44h0a.36.36,0,0,1,.45.25l5.93,20.28a.35.35,0,0,1-.24.44h0Z"/><path class="cls-2" d="M203.14,415.1a.35.35,0,0,1-.35-.25l-5.39-18.37-2.54.74a.36.36,0,0,1-.44-.24.35.35,0,0,1,.24-.44l3.23-1,5.59,19.06a.38.38,0,0,1-.24.45Z"/><path class="cls-4" d="M205.42,405a.35.35,0,0,1-.33-.21.36.36,0,0,1,.19-.47l6.83-2.9a.36.36,0,0,1,.46.18h0a.35.35,0,0,1-.17.46h0L205.56,405A.33.33,0,0,1,205.42,405Z"/><path class="cls-4" d="M212.31,421a.37.37,0,0,1-.36-.31.35.35,0,0,1,.31-.4l5-.66a.36.36,0,0,1,.4.31.35.35,0,0,1-.3.39h0l-5,.67Z"/><path class="cls-4" d="M212,412a.37.37,0,0,1-.37-.36.35.35,0,0,1,.22-.33l3.46-1.53a.35.35,0,0,1,.47.19.35.35,0,0,1-.18.46h0l-3.48,1.53Z"/><path class="cls-4" d="M209.14,416.72a.33.33,0,0,1-.35-.3.34.34,0,0,1,.28-.4h0l9.28-1.41a.38.38,0,0,1,.41.3.34.34,0,0,1-.3.4h0l-9.28,1.42Z"/></g></g></g></g></svg>