<svg xmlns="http://www.w3.org/2000/svg" viewBox="0 0 523.06 244.95"><defs><style>.cls-1{fill:#2f5b28;}.cls-2{fill:#46332a;}.cls-3{fill:#ecdab2;}.cls-4{fill:#cdad86;}.cls-5{fill:#d89c3a;}.cls-6{fill:#628dd3;}.cls-7{fill:#efb54d;}.cls-8{fill:#9ec3ef;}.cls-9{fill:#f9df9b;}.cls-10{fill:#edf6fb;}.cls-11{fill:#fff;}.cls-12{fill:#bc4;}.cls-13{fill:#dfea8c;}.cls-14{fill:#ddea83;}.cls-15{fill:#afc547;}.cls-16{fill:#7f9922;}.cls-17{fill:#b29579;}.cls-18{fill:#fff1d7;}.cls-19{fill:#efbc51;}</style></defs><g id="Layer_2" data-name="Layer 2"><g id="Layer_1-2" data-name="Layer 1"><path class="cls-1" d="M117,244.85a61.88,61.88,0,0,1-50.55-27.21c-7.15-10.48-11.72-23.9-8.05-40,9.79-43,43.13-65.14,89.43-92.9s39.95-74,99.89-84.1c39-6.57,53.86,39.64-21.48,81.78-106.83,59.75,26.58,103.51,69.85,45.88S390.29-6.29,449.85,30.94c40.2,25.13,29.6,62.52,18.47,84.17a33.93,33.93,0,0,0,1.8,34.24c18.85,28.39,45.3,95.2-27.43,95.2C330.54,244.55,180.15,245.18,117,244.85Z"/><rect class="cls-2" x="221.66" y="215.49" width="197.99" height="27.98" rx="8.25"/><path class="cls-3" d="M206.83,73.5,209,50.78h0a5.73,5.73,0,0,1,11.33-.55l4.37,22.52Zm7.88-24.36h-.24a2.19,2.19,0,0,0-1.94,2h0l-1.78,18.67,9.68-.41L216.84,50.9A2.15,2.15,0,0,0,214.71,49.14Zm-3.94,1.8Z"/><path class="cls-3" d="M242.32,91.31c.61,4.11-.14,7.56-1.25,11.85a24.61,24.61,0,0,1-1.1,2.7,21.84,21.84,0,0,1-1.38,2.52,21.08,21.08,0,0,1-2,2.73c-9.05,10.46-24.59,5.81-35.51,2.28a21.62,21.62,0,0,1-2.79-2c-7-6-10.32-15.36-6-24.64a29.3,29.3,0,0,1,1.17-3.25,40,40,0,0,1,7.37-11.25,19.09,19.09,0,0,1,2.88-2,26.41,26.41,0,0,1,3.17-1.52,25.75,25.75,0,0,1,18.7-.09,24.89,24.89,0,0,1,3,1.39c.75.43,1.52.89,2.29,1.39,4.63,3.72,11.63,8.63,11.32,16.3A25.08,25.08,0,0,1,242.32,91.31Z"/><path class="cls-2" d="M200.76,72.58a.37.37,0,0,1-.28-.13.34.34,0,0,1,.05-.5,19.28,19.28,0,0,1,2.93-2,27.16,27.16,0,0,1,3.22-1.54,26.1,26.1,0,0,1,19-.1.37.37,0,0,1,.21.47.36.36,0,0,1-.46.2,25.5,25.5,0,0,0-18.45.09,26.42,26.42,0,0,0-3.13,1.5A20.57,20.57,0,0,0,201,72.49.31.31,0,0,1,200.76,72.58Z"/><path class="cls-4" d="M217.47,98.72a16.47,16.47,0,0,1-4.91-1l-.07,0a5.67,5.67,0,0,1-.72-.52,5.29,5.29,0,0,1-1.54-6.34,5.68,5.68,0,0,1,.28-.77,10,10,0,0,1,1.83-2.81,4.71,4.71,0,0,1,.78-.54,8.43,8.43,0,0,1,.8-.39,6.65,6.65,0,0,1,2.21-.45,6.52,6.52,0,0,1,2.55.43,7.43,7.43,0,0,1,.76.35L220,87l.28.23c1.13.89,2.67,2.11,2.6,4a5.3,5.3,0,0,1,0,.83,7.15,7.15,0,0,1-.31,3,5.83,5.83,0,0,1-.29.71,4.94,4.94,0,0,1-.35.64,5.3,5.3,0,0,1-.52.7A5,5,0,0,1,217.47,98.72ZM212.82,97c2.93.94,6.2,1.75,8.11-.46a5.72,5.72,0,0,0,.46-.61c.11-.18.21-.37.31-.57s.17-.4.25-.61a6.38,6.38,0,0,0,.28-2.68v-.06a5.51,5.51,0,0,0,0-.81c.06-1.58-1.26-2.63-2.33-3.47l-.25-.21-.51-.3a5.11,5.11,0,0,0-.67-.31,5.81,5.81,0,0,0-2.27-.39,5.67,5.67,0,0,0-2,.41,5.93,5.93,0,0,0-.72.34,5.5,5.5,0,0,0-.64.44,9.39,9.39,0,0,0-1.67,2.57,6.49,6.49,0,0,0-.26.74,4.57,4.57,0,0,0,1.33,5.54A5.63,5.63,0,0,0,212.82,97Z"/><path class="cls-4" d="M218.72,105.57c-3.7,0-7.52-1.24-10.32-2.14l-.07,0a9.94,9.94,0,0,1-1.47-1.07,10.85,10.85,0,0,1-3.18-13,13.35,13.35,0,0,1,.59-1.66,21,21,0,0,1,3.84-5.86.36.36,0,0,1,.5,0,.35.35,0,0,1,0,.51,20.25,20.25,0,0,0-3.7,5.65,15.23,15.23,0,0,0-.59,1.63c-2,4.31-.84,9,3,12.23a10.35,10.35,0,0,0,1.34,1c4.94,1.6,13.15,4.25,17.75-1.07a.36.36,0,0,1,.51,0,.35.35,0,0,1,0,.5A10.33,10.33,0,0,1,218.72,105.57Z"/><path class="cls-4" d="M228.44,99.6a.29.29,0,0,1-.16,0,.35.35,0,0,1-.17-.47,13.16,13.16,0,0,0,.55-1.35,14,14,0,0,0,.62-5.9,11.88,11.88,0,0,0-.1-1.84c.14-3.52-2.77-5.82-5.12-7.68l-.54-.43c-.36-.23-.74-.47-1.12-.68a13.42,13.42,0,0,0-1.49-.69,12.73,12.73,0,0,0-9.31,0,.37.37,0,0,1-.47-.2.37.37,0,0,1,.2-.47,13.6,13.6,0,0,1,9.84-.05,16.08,16.08,0,0,1,1.58.73c.39.23.79.47,1.19.73l.57.45c2.34,1.85,5.54,4.39,5.39,8.21A11.8,11.8,0,0,1,230,91.8a14.68,14.68,0,0,1-.65,6.15,11.69,11.69,0,0,1-.58,1.44A.36.36,0,0,1,228.44,99.6Z"/><path class="cls-4" d="M199.13,86a.32.32,0,0,1-.14,0,.35.35,0,0,1-.19-.46A30.33,30.33,0,0,1,204.39,77a13.94,13.94,0,0,1,2.25-1.55,18.58,18.58,0,0,1,2.42-1.17,19.66,19.66,0,0,1,14.29-.07.35.35,0,0,1,.21.46.36.36,0,0,1-.47.21,18.93,18.93,0,0,0-13.76.07A17.3,17.3,0,0,0,207,76.07a15.24,15.24,0,0,0-2.11,1.44,29.9,29.9,0,0,0-5.42,8.3A.36.36,0,0,1,199.13,86Z"/><path class="cls-4" d="M219.82,111.59c-5.39,0-11-1.81-15.07-3.14l-.07,0a16.92,16.92,0,0,1-2.14-1.55.36.36,0,0,1,0-.51.35.35,0,0,1,.5,0,16.78,16.78,0,0,0,2,1.47c7.27,2.35,19.4,6.27,26.22-1.61a16.94,16.94,0,0,0,1.5-2,18.26,18.26,0,0,0,1-1.85,19.21,19.21,0,0,0,.8-2c.82-3.18,1.37-5.68.92-8.72a18.2,18.2,0,0,0-.14-2.71.36.36,0,0,1,.31-.4.37.37,0,0,1,.4.31,20.75,20.75,0,0,1,.15,2.75c.46,3.11-.13,5.8-.95,9a19.42,19.42,0,0,1-.85,2.09,17.78,17.78,0,0,1-1.06,1.92,16.57,16.57,0,0,1-1.56,2.1C228.55,110.37,224.25,111.59,219.82,111.59Z"/><circle class="cls-2" cx="214.64" cy="51.52" r="6.88"/><circle class="cls-2" cx="180.99" cy="51.52" r="6.88"/><path class="cls-5" d="M358.05,22.79h26.34a.58.58,0,0,1,.58.58V36.63h-27.5V23.37A.58.58,0,0,1,358.05,22.79Z"/><path class="cls-6" d="M249.72,73V206.74a8.67,8.67,0,0,0,8.67,8.67H404.81a8.67,8.67,0,0,0,8.67-8.67L396.85,51a11.08,11.08,0,0,0-10.32-11.05V37.73a1.6,1.6,0,0,0-1.59-1.6H357.6a1.6,1.6,0,0,0-1.6,1.6v2.15h-.07a8.7,8.7,0,0,1-6.13-2.54L340,27.52A8.7,8.7,0,0,0,333.86,25h-63.1a8.67,8.67,0,0,0-8.67,8.67V53.46a8.65,8.65,0,0,1-2.53,6.12l-7.3,7.3A8.68,8.68,0,0,0,249.72,73Zm25.72-27.64a7,7,0,0,1,7-7H325a7,7,0,0,1,7,7v5.25a7,7,0,0,1-7,7H282.4a7,7,0,0,1-7-7Z"/><path class="cls-7" d="M346,22.79h26.93V36.63H345.42V23.37A.58.58,0,0,1,346,22.79Z"/><path class="cls-8" d="M237.68,73l-5,133.73a8.67,8.67,0,0,0,8.66,8.67H381.15a8.67,8.67,0,0,0,8.67-8.67l-.71-22L386,89l-1.22-38a11.09,11.09,0,0,0-10.32-11.05V37.73a1.6,1.6,0,0,0-1.6-1.6H345.55a1.6,1.6,0,0,0-1.59,1.6v2.15h-.07a8.68,8.68,0,0,1-6.13-2.54l-9.82-9.82A8.68,8.68,0,0,0,321.82,25h-63.1a8.67,8.67,0,0,0-8.67,8.67V53.46a8.62,8.62,0,0,1-2.54,6.12l-7.29,7.3A8.64,8.64,0,0,0,237.68,73ZM263.4,45.37a7,7,0,0,1,7-7H313a7,7,0,0,1,7,7v5.25a7,7,0,0,1-7,7h-42.6a7,7,0,0,1-7-7Z"/><path class="cls-9" d="M385,30.29h0a.71.71,0,0,1-.7-.73c.06-2.57.08-5.43,0-6.06l-27.48-.06a.73.73,0,0,1-.71-.72.71.71,0,0,1,.72-.71h0l27.58.06a1.46,1.46,0,0,1,1.24.92c.05.14.2.54.06,6.6A.72.72,0,0,1,385,30.29Z"/><path class="cls-2" d="M381.57,36.49H359.18a.36.36,0,1,1,0-.71h22.39a.36.36,0,1,1,0,.71Z"/><path class="cls-10" d="M386,89.71a.72.72,0,0,1-.71-.69L384.1,51a10.4,10.4,0,0,0-9.66-10.36.72.72,0,0,1,.1-1.43,11.82,11.82,0,0,1,11,11.76l1.23,38a.73.73,0,0,1-.69.74Z"/><path class="cls-10" d="M337.76,38.05a.73.73,0,0,1-.51-.21L327.44,28a7.91,7.91,0,0,0-5.62-2.33.72.72,0,1,1,0-1.43A9.33,9.33,0,0,1,328.45,27l9.81,9.81a.71.71,0,0,1,0,1A.7.7,0,0,1,337.76,38.05Z"/><path class="cls-2" d="M263.29,51a.36.36,0,0,1-.36-.36V45.37a7.33,7.33,0,0,1,7.32-7.32h23.29a.36.36,0,0,1,0,.72H270.25a6.61,6.61,0,0,0-6.6,6.6v5.25A.36.36,0,0,1,263.29,51Z"/><path class="cls-2" d="M234.76,151.4h0a.37.37,0,0,1-.35-.37l2.92-78A9,9,0,0,1,240,66.62l7.29-7.29a8.24,8.24,0,0,0,2.43-5.87.36.36,0,0,1,.72,0,9,9,0,0,1-2.65,6.38l-7.29,7.29A8.26,8.26,0,0,0,238,73l-2.92,78.05A.36.36,0,0,1,234.76,151.4Z"/><path class="cls-2" d="M381.15,215.76a.36.36,0,1,1,0-.71,8.32,8.32,0,0,0,8.31-8.31l-.71-22a.36.36,0,0,1,.35-.37.36.36,0,0,1,.37.35l.7,22A9,9,0,0,1,381.15,215.76Z"/><path class="cls-6" d="M249.1,111l-1.73,64.18a24,24,0,0,0,23.92,24.63l79.94.22a24,24,0,0,0,24.06-24.47L375,159.12a24,24,0,0,0-24-23.51H338a24,24,0,0,1-24-24h0a24,24,0,0,0-24-24h-17A24,24,0,0,0,249.1,111Z"/><polygon class="cls-11" points="388.08 69.45 385.5 62.98 382.91 69.45 376.62 71.86 382.81 73.84 385.5 80.73 388.19 73.84 394.37 71.86 388.08 69.45"/><path class="cls-2" d="M385.5,81.09a.28.28,0,0,1-.13,0,.35.35,0,0,1-.21-.46l2.75-7,6.35-2a.35.35,0,0,1,.45.23.36.36,0,0,1-.23.45l-6,1.93-2.63,6.73A.37.37,0,0,1,385.5,81.09Z"/><path class="cls-8" d="M358.05,190.08h0a1.51,1.51,0,0,1,.39-1.56,2.53,2.53,0,0,0,.7-1.88c0-.78-.23-1.35-.61-1.35s-.8.63-1.37,2.16c-1,2.75-2.24,4-3.86,4-1.95,0-3.27-1.8-3.27-4.47a5.06,5.06,0,0,1,1.6-4,1.44,1.44,0,0,1,2.32.67l0,.1a1.52,1.52,0,0,1-.49,1.53,2.14,2.14,0,0,0-.63,1.67c0,.84.25,1.32.69,1.32s.68-.44,1.18-1.93c1-2.95,2.08-4.15,3.76-4.15,2.05,0,3.35,1.72,3.35,4.47a5.42,5.42,0,0,1-1.39,4A1.46,1.46,0,0,1,358.05,190.08Z"/><path class="cls-8" d="M356,180.51a5.79,5.79,0,1,1,5.87-5.79A5.73,5.73,0,0,1,356,180.51Zm0-8.35a2.57,2.57,0,1,0,0,5.12,2.57,2.57,0,1,0,0-5.12Z"/><path class="cls-8" d="M358.59,167.31a3.4,3.4,0,0,1-3.27-2.89c-.72-2.86-1.05-3.63-1.6-3.63s-.65.46-.65,1.15a2.09,2.09,0,0,0,.68,1.64,1.36,1.36,0,0,1,.44,1.5l-.08.2a1.52,1.52,0,0,1-2.43.59,5.12,5.12,0,0,1-1.61-4c0-2.77,1.64-4.45,4.3-4.45h3.86a.79.79,0,0,0,.75-.41,1.28,1.28,0,0,1,1.16-.7h.39a1.29,1.29,0,0,1,1.31,1.25h0a3,3,0,0,1-.94,2.31,5.6,5.6,0,0,1,.94,3.27C361.84,165.63,360.52,167.31,358.59,167.31Zm-.23-6.71h-1.6c.89,2,.7,3.59,1.62,3.59.53,0,.78-.51.78-1.33A3.34,3.34,0,0,0,358.36,160.6Z"/><path class="cls-8" d="M350.26,153.69v-1.17a1,1,0,0,1,1-1h0a2.74,2.74,0,0,1-1.2-2.45c0-2.75,2.46-4.79,5.9-4.79s5.89,2.08,5.89,4.79a3.55,3.55,0,0,1-.9,2.45h3.74a1.6,1.6,0,0,1,1.59,1.6h0a1.59,1.59,0,0,1-1.59,1.59H351.27A1,1,0,0,1,350.26,153.69Zm5.67-6.23c-1.58,0-2.73.86-2.73,2s1.15,2,2.73,2,2.72-.86,2.72-2S357.5,147.46,355.93,147.46Z"/><path class="cls-12" d="M519.23,140.73v91.58a11,11,0,0,1-11,11H452.76a11,11,0,0,1-11-11V144.83a63.92,63.92,0,0,1,10.57-35.14l7.95-12L468.64,85a5.88,5.88,0,0,1,7.82-1.87l14,8a5.9,5.9,0,0,1,2.68,7l-.66,2a15.62,15.62,0,0,0,9.7,19.71l2.84,1A21.16,21.16,0,0,1,519.23,140.73Z"/><path class="cls-2" d="M441.74,145.19a.36.36,0,0,1-.35-.36A64.24,64.24,0,0,1,452,109.49a.36.36,0,0,1,.49-.1.37.37,0,0,1,.11.5,63.49,63.49,0,0,0-10.51,34.94A.36.36,0,0,1,441.74,145.19Z"/><path class="cls-13" d="M459.11,109.84a.69.69,0,0,1-.39-.12.72.72,0,0,1-.21-1L472,88.31a.71.71,0,1,1,1.19.78l-13.49,20.43A.72.72,0,0,1,459.11,109.84Z"/><path class="cls-13" d="M480.88,117.36a.83.83,0,0,1-.22,0,.72.72,0,0,1-.46-.9l6.56-20.66a.71.71,0,1,1,1.36.44l-6.56,20.66A.72.72,0,0,1,480.88,117.36Z"/><path class="cls-13" d="M472.12,109.59a.67.67,0,0,1-.31-.07.72.72,0,0,1-.34-1l8.65-17.92a.71.71,0,1,1,1.28.62l-8.64,17.92A.71.71,0,0,1,472.12,109.59Z"/><rect class="cls-12" x="477.98" y="73.53" width="15.54" height="20.72" transform="translate(170.22 462.62) rotate(-60)"/><path class="cls-13" d="M519.23,141.44a.71.71,0,0,1-.71-.71,20.45,20.45,0,0,0-13.74-19.32l-2.84-1A16.4,16.4,0,0,1,491.8,99.81l.66-2a5.19,5.19,0,0,0-2.35-6.13l-14-8a.7.7,0,0,1-.26-1,.72.72,0,0,1,1-.27l14,8a6.61,6.61,0,0,1,3,7.82l-.67,2a15,15,0,0,0,9.26,18.81l2.84,1A21.89,21.89,0,0,1,520,140.73.71.71,0,0,1,519.23,141.44Z"/><rect class="cls-7" x="483.09" y="62.62" width="15.54" height="26.06" rx="0.78" transform="translate(179.92 462.93) rotate(-60)"/><path class="cls-9" d="M505.67,76.78a.68.68,0,0,1-.36-.1.7.7,0,0,1-.26-1L483.73,63.39a.72.72,0,1,1,.72-1.24l21.31,12.31a1.44,1.44,0,0,1,.53,2A.72.72,0,0,1,505.67,76.78Z"/><path class="cls-2" d="M485.75,82a.37.37,0,0,1-.18,0l-9.43-5.44a1.07,1.07,0,0,1-.5-.66,1,1,0,0,1,.11-.82.36.36,0,1,1,.62.36.32.32,0,0,0,0,.27.4.4,0,0,0,.17.23l9.43,5.44a.37.37,0,0,1,.13.49A.38.38,0,0,1,485.75,82Z"/><rect class="cls-14" x="449.73" y="173.55" width="60.8" height="59.54" rx="14.66"/><path class="cls-15" d="M502.73,217.65c-2.87,0-4.8-1.79-4.8-4.42S499.88,209,503,209h0a.74.74,0,0,1,.74.74V215a2,2,0,0,0,1.31-2,2.54,2.54,0,0,0-.4-1.42,1.24,1.24,0,0,1,0-1.37h0a1.23,1.23,0,0,1,2-.09,4.36,4.36,0,0,1,1,2.9C507.58,215.83,505.66,217.65,502.73,217.65Zm-1.05-6a1.46,1.46,0,0,0-1.22,1.55,1.75,1.75,0,0,0,1.22,1.72Z"/><path class="cls-15" d="M502.72,207.76c-2.81,0-4.79-1.74-4.79-4.18a3.89,3.89,0,0,1,1.36-3,1.29,1.29,0,0,1,2.09.66h0a1.3,1.3,0,0,1-.44,1.31,1.18,1.18,0,0,0-.44,1c0,1,.91,1.65,2.22,1.65s2.3-.7,2.3-1.68a1.31,1.31,0,0,0-.61-1.12,1.24,1.24,0,0,1-.49-1.36h0a1.27,1.27,0,0,1,1.89-.79,3.63,3.63,0,0,1,1.77,3.25C507.58,206.05,505.66,207.76,502.72,207.76Z"/><path class="cls-15" d="M502.77,198.49a4.75,4.75,0,1,1,4.81-4.75A4.7,4.7,0,0,1,502.77,198.49Zm0-6.85a2.11,2.11,0,1,0,0,4.2,2.11,2.11,0,1,0,0-4.2Z"/><polygon class="cls-10" points="517.25 125.84 515.01 120.24 512.78 125.84 507.32 127.93 512.68 129.65 515.01 135.62 517.35 129.65 522.71 127.93 517.25 125.84"/><path class="cls-2" d="M515,136a.28.28,0,0,1-.13,0,.35.35,0,0,1-.21-.46l2.39-6.13,5.53-1.77a.36.36,0,1,1,.21.68l-5.19,1.67-2.27,5.81A.37.37,0,0,1,515,136Z"/><path class="cls-2" d="M173.38,214.53h0c-54.5-5.39-122-48.65-135.69-104.46a.36.36,0,0,1,.7-.17c13.59,55.52,80.8,98.55,135.06,103.92a.36.36,0,0,1,.32.39A.37.37,0,0,1,173.38,214.53Z"/><path class="cls-16" d="M72.25,152.82C86.62,147,96.62,142,102.79,123.41c6.23-18.74-24.48-40.73-37.56-12.63C60.08,121.87,63.36,141.33,72.25,152.82Z"/><path class="cls-2" d="M80.27,173.27a.35.35,0,0,1-.31-.19c-15.23-29-9.94-52.1,16.18-70.79a.36.36,0,0,1,.42.59c-25.78,18.43-31,41.29-16,69.87a.35.35,0,0,1-.15.48A.33.33,0,0,1,80.27,173.27Z"/><path class="cls-15" d="M49.46,94.5C57.08,90.9,64.67,90.28,70,81.82,76.76,71.23,65,56.92,52.81,69,47.24,74.48,47.1,86.36,49.46,94.5Z"/><path class="cls-2" d="M49.47,137.74a.37.37,0,0,1-.35-.28c-6.95-29.2-.42-56.15,17.45-72.1a.36.36,0,0,1,.51,0,.35.35,0,0,1,0,.5c-17.68,15.77-24.12,42.47-17.23,71.4a.38.38,0,0,1-.27.44Z"/><path class="cls-16" d="M52.79,160.6c-3.34,17.62-10.12,32.1-32.34,33.29-13.46.72-29.72-16.5-14-32.24C17.69,150.43,38,151.52,52.79,160.6Z"/><path class="cls-2" d="M3.2,185.35a.33.33,0,0,1-.21-.07.35.35,0,0,1-.07-.5c6.84-9.14,17.87-16.56,31.06-20.89,12.4-4.08,25-4.87,34.64-2.17a.36.36,0,0,1-.2.69c-18.66-5.24-50.4,3.39-64.93,22.8A.37.37,0,0,1,3.2,185.35Z"/><path class="cls-16" d="M101,198.73c-2.09,16.74-2.88,31-20.7,41.76C58,253.92,30.06,220.36,57.35,201,68.12,193.31,87.22,193.39,101,198.73Z"/><path class="cls-2" d="M53.37,237.26a.37.37,0,0,1-.18,0,.36.36,0,0,1-.13-.49c13.72-23.83,41.26-47.39,73.73-35.37a.35.35,0,0,1,.21.46.35.35,0,0,1-.46.21c-32-11.86-59.28,11.47-72.86,35.06A.38.38,0,0,1,53.37,237.26Z"/><path class="cls-15" d="M26.44,100.27c5.64,3,8,10.18,8.84,16.75-7.3,1.87-12.93,4.12-20-2.54S14.19,93.69,26.44,100.27Z"/><path class="cls-15" d="M47.51,185.63c-.12-6.84,6.15-12.36,12.67-15.17,3.48,5.9,7.66,9.52,5.77,17.84C63.57,198.75,47.77,200,47.51,185.63Z"/><path class="cls-15" d="M94.84,163.08c-4.34-.6-9.79-4.79-13.4-8.15,4-6.77,8.48-11.16,18.08-7.92C108.58,150.07,108.49,165,94.84,163.08Z"/><path class="cls-2" d="M55.78,196.38h-.1a.36.36,0,0,1-.24-.45c3.42-11.31,6.08-23.37,2.46-35a.36.36,0,1,1,.68-.22c3.68,11.79,1,24-2.46,35.4A.35.35,0,0,1,55.78,196.38Z"/><path class="cls-2" d="M74.32,158.62a.35.35,0,0,1-.28-.14.36.36,0,0,1,.06-.5c8.36-6.38,20.77-5.07,31.75-3.35a.36.36,0,0,1,.29.41.35.35,0,0,1-.41.3c-10.83-1.7-23.06-3-31.19,3.2A.37.37,0,0,1,74.32,158.62Z"/><path class="cls-2" d="M39.76,118h0c-13.06-1.43-22.22-11.64-25.24-16.84a.36.36,0,0,1,.62-.35c3,5.08,11.92,15.08,24.7,16.48a.37.37,0,0,1,.31.4A.36.36,0,0,1,39.76,118Z"/><path class="cls-17" d="M356.5,230.58h0a12.27,12.27,0,0,1-12.3,12.25l-54.31-.1a9.15,9.15,0,0,1-9.13-9.16v-7l71.88.13A3.85,3.85,0,0,1,356.5,230.58Z"/><path class="cls-3" d="M356.54,206.62c1.58.45,1.47.62-.36,1.49,1.67-.22.49,1.26-.89,3.72,1.11-.2-.13,3.44-.47,5a15.11,15.11,0,0,1-1.85,4.66c.87,1.14-1.25,5.21-1.25,5.21l-66.16-.12-4.76-20.12,11.84,0c3.68-.15,7.94-1.17,12.4-1.64s9.13-.37,13.63,1.69c2.15-2.18,10.33-6.57,11.86-1.52,5.22-4.36,9.6-1.47,14.18,1.57,2-1.51,4.94-1.51,7.4-1.13C355.26,206.08,358.12,207.07,356.54,206.62Z"/><path class="cls-4" d="M344.71,230.2h0A12.66,12.66,0,0,1,332,242.83l-54.83-.1a8.25,8.25,0,0,1-8.24-8.27v-4.23a3.63,3.63,0,0,1,3.64-3.63l68.63.12A3.48,3.48,0,0,1,344.71,230.2Z"/><path class="cls-2" d="M333.36,243.19h0l-12.77,0a.36.36,0,1,1,0-.71h0l12.77,0h0a11,11,0,0,0,11-11,.35.35,0,0,1,.35-.35h0a.36.36,0,0,1,.36.35A11.72,11.72,0,0,1,333.36,243.19Z"/><path class="cls-18" d="M344.75,206.62a12.53,12.53,0,0,1,.1,2.32c-.07,1.2-.08,3.09-1.35,2.89.8,2.16,2.22,4.88-.52,5,2.12,1.51-.61,2.93-1.8,4.65.52.91-.67,2.79-.9,3.72s-.36,1.49-.36,1.49l-66.16-.12L269,206.48l11.84,0c3.68-.15,7.94-1.17,12.4-1.64s9.13-.37,13.63,1.69c2.15-2.18,10.33-6.57,11.86-1.52,5.22-4.36,9.6-1.47,14.17,1.57C336.89,203.58,344.75,206.62,344.75,206.62Z"/><path class="cls-2" d="M340.28,225.59h-.08a.37.37,0,0,1-.27-.43,8,8,0,0,1,.42-1.11c.34-.79.79-1.87.52-2.35l-.12-.2.13-.19a11.18,11.18,0,0,1,1.22-1.37c.7-.71,1.35-1.38,1.31-1.94a1.31,1.31,0,0,0-.64-.84l-.83-.59,1-.05a1.37,1.37,0,0,0,1.12-.46c.42-.66-.14-2.09-.63-3.35-.1-.25-.2-.5-.29-.75l-.21-.57.6.1a.54.54,0,0,0,.42-.09c.41-.33.47-1.47.51-2.22v-.26a.35.35,0,0,1,.38-.33.34.34,0,0,1,.33.38v.24c-.05,1-.12,2.21-.77,2.75a1.23,1.23,0,0,1-.41.21c0,.09.07.19.11.28.58,1.49,1.18,3,.56,4a1.64,1.64,0,0,1-.92.66,1.6,1.6,0,0,1,.36.84c.07.89-.7,1.67-1.51,2.5a11.74,11.74,0,0,0-1,1.12,4.44,4.44,0,0,1-.58,2.77,6.6,6.6,0,0,0-.38,1A.36.36,0,0,1,340.28,225.59Z"/><path class="cls-2" d="M269,234.06h0a.36.36,0,0,1-.35-.36v-2.47a5,5,0,0,1,5-5h0l29.48.06a.36.36,0,1,1,0,.71h0l-29.48,0h0a4.28,4.28,0,0,0-4.28,4.28v2.47A.36.36,0,0,1,269,234.06Z"/><path class="cls-4" d="M308.16,213.24a.37.37,0,0,1-.34-.23c-.31-.88-1.19-5.11-1.23-5.29a.35.35,0,0,1,.28-.42.35.35,0,0,1,.42.27c0,.05.91,4.36,1.21,5.2a.35.35,0,0,1-.22.45A.25.25,0,0,1,308.16,213.24Z"/><path class="cls-4" d="M329.5,216.43a.39.39,0,0,1-.36-.31c0-.12-.1-.49,2.93-8.51a.35.35,0,0,1,.46-.21.36.36,0,0,1,.21.46c-1.1,2.9-2.85,7.69-2.89,8.18a.33.33,0,0,1-.29.39Z"/><path class="cls-4" d="M286.58,219.25a.36.36,0,0,1-.35-.26l-3.92-13.38a.35.35,0,0,1,.24-.44.36.36,0,0,1,.45.24l3.92,13.38a.35.35,0,0,1-.24.44Z"/><path class="cls-4" d="M295.57,207.25a.35.35,0,0,1-.35-.34c0-.26-.58-2.67-.92-4.14a.36.36,0,1,1,.7-.16c.35,1.5.93,4,.93,4.28A.36.36,0,0,1,295.57,207.25Z"/><path class="cls-4" d="M321,218.63h-.07a.38.38,0,0,1-.28-.43l1.31-6.07a.36.36,0,0,1,.43-.28.36.36,0,0,1,.27.43l-1.31,6.07A.35.35,0,0,1,321,218.63Z"/><path class="cls-7" d="M132.11,39.65l-5.84-2.19a7.58,7.58,0,0,0-5.31,0l-5.85,2.19a1.47,1.47,0,0,0,0,2.74L118.6,57.1h10l3.54-14.71A1.47,1.47,0,0,0,132.11,39.65Z"/><path class="cls-2" d="M118.6,57.45a.36.36,0,0,1-.35-.27l-3.49-14.54a1.8,1.8,0,0,1-1-1.64A1.78,1.78,0,0,1,115,39.32l5.84-2.2a.36.36,0,0,1,.46.21.35.35,0,0,1-.21.46L115.24,40a1.12,1.12,0,0,0,0,2.08.32.32,0,0,1,.21.24L119,57a.35.35,0,0,1-.26.43Z"/><path class="cls-8" d="M154.27,133.54c-2.52-22.46,9.17-29.11,7.33-42.86C160.09,79.34,145,70.17,139.77,67.32a3.34,3.34,0,0,1-1.74-3l.14-8.54a3.34,3.34,0,0,0-3.33-3.39H112.39a3.34,3.34,0,0,0-3.33,3.39l.14,8.54a3.35,3.35,0,0,1-1.75,3c-5.23,2.85-20.32,12-21.83,23.36-1.83,13.75,9.86,20.4,7.34,42.86-2.2,19.54-16.18,76.19-15.11,100.56a8.92,8.92,0,0,0,8.9,8.54h73.73a8.91,8.91,0,0,0,8.89-8.54C170.45,209.73,156.46,153.08,154.27,133.54Z"/><path class="cls-2" d="M77.85,234.46a.36.36,0,0,1-.36-.34c-.7-16,5.1-46.06,9.77-70.18,2.46-12.74,4.59-23.74,5.34-30.44C94,121.1,91,113.57,88.42,106.93c-2.14-5.42-4-10.1-3.15-16.3a.35.35,0,0,1,.4-.3.35.35,0,0,1,.31.4c-.81,6,1,10.61,3.1,15.94,2.65,6.72,5.64,14.33,4.23,26.91-.75,6.73-2.88,17.74-5.35,30.5-4.66,24.08-10.45,54-9.75,70a.37.37,0,0,1-.34.38Z"/><path class="cls-10" d="M154.27,134.26a.71.71,0,0,1-.71-.64c-1.42-12.66,1.59-20.32,4.25-27.08,2.08-5.28,3.87-9.84,3.08-15.77-1.48-11.11-16.8-20.28-21.46-22.83a.71.71,0,1,1,.68-1.25c6.17,3.37,20.67,12.44,22.2,23.9.84,6.29-1.11,11.23-3.17,16.47-2.6,6.61-5.54,14.09-4.16,26.4a.72.72,0,0,1-.63.79Z"/><path class="cls-7" d="M139,63.94H108V53.13A2.18,2.18,0,0,1,110.18,51h26.59A2.18,2.18,0,0,1,139,53.13Z"/><path class="cls-9" d="M139,54.18a.72.72,0,0,1-.72-.72,1.79,1.79,0,0,0-1.79-1.79H110.52a.72.72,0,1,1,0-1.43h25.92a3.22,3.22,0,0,1,3.22,3.22A.71.71,0,0,1,139,54.18Z"/><path class="cls-6" d="M99.42,84.77s41.12-19.31,48.12,20.53C147.54,105.3,114.5,124.71,99.42,84.77Z"/><path class="cls-8" d="M114,104.15h0a1.18,1.18,0,0,1-1.18,1.18h-1.63a1.18,1.18,0,0,1-1.18-1.18V87.46a2,2,0,0,1,2-2h0a2,2,0,0,1,2,2V92A4.48,4.48,0,0,1,117,90.87c3.39,0,6,3.11,6,7.39s-2.55,7.39-6,7.39A3.47,3.47,0,0,1,114,104.15ZM119,98.31c0-2-1.08-3.41-2.53-3.41S114,96.34,114,98.31s1.08,3.42,2.52,3.42S119,100.28,119,98.31Z"/><path class="cls-8" d="M125.53,86.83a2.37,2.37,0,1,1,2.37,2.36A2.36,2.36,0,0,1,125.53,86.83Zm2.37,4.31h0a2,2,0,0,1,2,2v10.25a2,2,0,0,1-2,2h0a2,2,0,0,1-2-2V93.11A2,2,0,0,1,127.9,91.14Z"/><path class="cls-8" d="M132.57,98.29a7.26,7.26,0,1,1,7.26,7.36A7.18,7.18,0,0,1,132.57,98.29Zm10.46,0a3.22,3.22,0,1,0-3.2,3.49A3.31,3.31,0,0,0,143,98.29Z"/><path class="cls-6" d="M154.64,207.79c0,25.7-14.15,25.89-31.61,25.89s-31.6-.19-31.6-25.89,14.15-67.17,31.6-67.17S154.64,182.09,154.64,207.79Z"/><polygon class="cls-11" points="161.89 84.75 159.86 79.67 157.83 84.75 152.89 86.65 157.75 88.21 159.86 93.62 161.97 88.21 166.84 86.65 161.89 84.75"/><path class="cls-2" d="M159.86,94a.31.31,0,0,1-.13,0,.35.35,0,0,1-.2-.46l2.17-5.57,5-1.61a.36.36,0,1,1,.21.68l-4.69,1.51-2.06,5.25A.36.36,0,0,1,159.86,94Z"/><path class="cls-7" d="M293.18,233.93S288.4,166,287,154.07s-12.25-11-12.25-11v-2.87H255.27v2.87s-10.81-1-12.25,11-6.2,79.86-6.2,79.86-1.91,9.54,9.86,9.54h36.63C295.09,243.47,293.18,233.93,293.18,233.93Z"/><path class="cls-9" d="M288.56,171.35a.72.72,0,0,1-.71-.69s-.18-4.75-1.59-16.5c-1.33-11.08-11.06-10.38-11.47-10.35a.72.72,0,0,1-.78-.65.73.73,0,0,1,.65-.78c.12,0,11.53-.87,13,11.61,1.42,11.82,1.59,16.57,1.6,16.62a.73.73,0,0,1-.69.74Z"/><path class="cls-2" d="M237.68,222.21h0a.36.36,0,0,1-.33-.38c0-.56,3.93-56,5.35-67.8,1.45-12.13,12.52-11.3,12.63-11.29a.36.36,0,1,1-.06.71c-.43,0-10.49-.77-11.86,10.67-1.42,11.78-5.31,67.2-5.34,67.76A.36.36,0,0,1,237.68,222.21Z"/><path class="cls-5" d="M283.1,218.89s-3.06-43.65-4-51.31-7.87-7.06-7.87-7.06h-12.5s-6.95-.61-7.87,7.06-4,51.31-4,51.31-1.23,6.13,6.34,6.13h23.54C284.33,225,283.1,218.89,283.1,218.89Z"/><path class="cls-12" d="M258.26,132.69V121l-2.77-1.78a3,3,0,0,1-1.11-3.71h0l7,1.45a110.93,110.93,0,0,1,19.17-1.12c8.09.25,17.09,1.6,23.46,5.58l-4.19,4.92H272.09v6.37Z"/><path class="cls-13" d="M304.05,122.11a.67.67,0,0,1-.38-.11c-5.3-3.31-13.07-5.15-23.1-5.47a110.29,110.29,0,0,0-19,1.12.71.71,0,0,1-.82-.59.71.71,0,0,1,.59-.82,112.37,112.37,0,0,1,19.31-1.14c10.28.33,18.29,2.24,23.81,5.69a.72.72,0,0,1,.23,1A.73.73,0,0,1,304.05,122.11Z"/><path class="cls-2" d="M300.43,126.68l-28.06,0-13.89-5.37-2.1-1.34a.36.36,0,1,1,.39-.6l2.06,1.32,13.74,5.3H300.1l2.52-3a.36.36,0,0,1,.55.46Z"/><rect class="cls-12" x="254.62" y="131.54" width="20.72" height="8.94"/><path class="cls-2" d="M275.34,135a.36.36,0,0,1-.35-.36v-2.7H256.57a.36.36,0,0,1,0-.72H275.7v3.42A.36.36,0,0,1,275.34,135Z"/><path class="cls-19" d="M265.93,221.85c-2.91,0-4.87-1.81-4.87-4.48s2-4.33,5.13-4.33h0a.75.75,0,0,1,.76.75v5.39a2,2,0,0,0,1.32-2,2.64,2.64,0,0,0-.4-1.44,1.24,1.24,0,0,1,0-1.38h0a1.24,1.24,0,0,1,2-.1,4.5,4.5,0,0,1,1,2.94C270.86,220,268.9,221.85,265.93,221.85Zm-1.06-6.09a1.47,1.47,0,0,0-1.24,1.57,1.79,1.79,0,0,0,1.24,1.75Z"/><path class="cls-19" d="M265.92,211.81c-2.85,0-4.86-1.76-4.86-4.24a4,4,0,0,1,1.38-3.06,1.31,1.31,0,0,1,2.12.67h0a1.32,1.32,0,0,1-.44,1.32,1.21,1.21,0,0,0-.46,1c0,1,.93,1.68,2.26,1.68s2.33-.72,2.33-1.71a1.33,1.33,0,0,0-.62-1.14,1.29,1.29,0,0,1-.5-1.38h0a1.31,1.31,0,0,1,1.92-.8,3.69,3.69,0,0,1,1.81,3.3C270.86,210.09,268.9,211.81,265.92,211.81Z"/><path class="cls-19" d="M266,202.4a4.82,4.82,0,1,1,4.89-4.81A4.76,4.76,0,0,1,266,202.4Zm0-6.94a2.14,2.14,0,1,0,2.32,2.13A2.21,2.21,0,0,0,266,195.46Z"/><polygon class="cls-11" points="284.28 144.24 283.18 141.49 282.08 144.24 279.4 145.26 282.04 146.11 283.18 149.04 284.32 146.11 286.95 145.26 284.28 144.24"/><path class="cls-2" d="M283.18,149.4a.31.31,0,0,1-.13,0,.34.34,0,0,1-.2-.46l1.2-3.09,2.79-.9a.36.36,0,0,1,.45.23.35.35,0,0,1-.23.45l-2.47.8-1.08,2.77A.36.36,0,0,1,283.18,149.4Z"/><path class="cls-4" d="M424.25,243.7c-4,.9-7.88-.87-9.06-6L389,122.63c-1.18-5.16,1.15-10.1,5.2-11h0c4-.9,8.26,2.52,9.43,7.67l26.24,115.06c1.18,5.16-1.52,8.45-5.57,9.38Z"/><path class="cls-2" d="M422.27,244.28c-3.67,0-6.49-2.4-7.43-6.51L388.6,122.71a.35.35,0,0,1,.27-.43.36.36,0,0,1,.43.27l26.24,115.06c1.23,5.38,5.26,6.5,8.63,5.74a.36.36,0,0,1,.16.7A9.36,9.36,0,0,1,422.27,244.28Z"/><path class="cls-18" d="M395,156.81c-3.1,1.8-1.1-4.75-2.57-11.1-.73-3.17-1.56-6.74-2.38-10.3-1.17-3.73-5.75-8.08-2.39-10.31-4.37-2.14-4.2-4.4-1.83-7.93-3.05.58-2.29-1.41-.74-3.17-1.1-.53-1.25-2.19-1-4.11a24.84,24.84,0,0,1,1.32-5.61c1-3.9,2.13-11.26,4.82-8-.42-5.48,2.41-5.43,8.32-4.54-3.7-1.4,5.46-1.13,8.09-1.36s4.18.08,1.46,1.81c9-2.29,13-3.21,7.79,5.05,6.89-6.42,5.37.7,4.51,8.57.72-2.71,1-1.59,1.18.77s1.84,7.47.89,8.19c2.31,5.13,5.53,9.19,2.08,9,3.8,1.76,2.25,3.91-1.17,7,1.52-.07-3.25,3.53-5.8,4.14,0,0,0,0-.06,0a9.34,9.34,0,0,1-9.19-3.13l4.82,20.82c.29,1.25-.63,2.45-2.18,3.46a19.4,19.4,0,0,1-6,2.38c-2.26.52-6.83,1.29-6.45.5C394.88,159.35,392.08,159.51,395,156.81Z"/><path class="cls-3" d="M415.32,135.52A9.09,9.09,0,0,1,408,132c-.41-.55-1-1.21-1.57-1.91-1.82-2.13-3.7-4.34-3.42-5.7a1.18,1.18,0,0,1,.33-.61c-3.8-4.19-5.24-7.91-2.79-16a.35.35,0,0,1,.44-.24.36.36,0,0,1,.24.45c-2.42,8-1,11.37,2.91,15.57l.32.35-.43.22a.51.51,0,0,0-.32.37c-.21,1,1.8,3.38,3.26,5.09.6.71,1.17,1.38,1.61,2a8.59,8.59,0,0,0,8.82,3,.4.4,0,0,1,.46.26.34.34,0,0,1-.24.42h0A10.36,10.36,0,0,1,415.32,135.52Z"/><path class="cls-3" d="M424.71,116h-.11l-3.49-1.1a.37.37,0,0,1-.24-.45.35.35,0,0,1,.45-.23l3.5,1.09a.35.35,0,0,1,.23.45A.36.36,0,0,1,424.71,116Z"/><path class="cls-3" d="M413.94,125.94a.36.36,0,0,1-.36-.35l-.1-3.66a.37.37,0,0,1,.35-.37.35.35,0,0,1,.37.35l.09,3.66a.36.36,0,0,1-.34.37Z"/><path class="cls-3" d="M418.78,107.59a.4.4,0,0,1-.23-.08.36.36,0,0,1-.05-.5l2.89-3.54a.36.36,0,0,1,.56.45l-2.89,3.54A.35.35,0,0,1,418.78,107.59Z"/><path class="cls-3" d="M397.15,116.77a.34.34,0,0,1-.28-.13.35.35,0,0,1,.06-.5l3.75-2.94a.36.36,0,0,1,.44.56l-3.75,2.94A.36.36,0,0,1,397.15,116.77Z"/><path class="cls-3" d="M386.74,106.76a.35.35,0,0,1-.35-.31l-.54-4a.36.36,0,0,1,.31-.4.36.36,0,0,1,.4.31l.54,4a.36.36,0,0,1-.31.4Z"/><path class="cls-3" d="M392.79,132.12a.36.36,0,0,1-.2-.06.35.35,0,0,1-.09-.5l1.9-2.76a.36.36,0,0,1,.5-.1.37.37,0,0,1,.09.5L393.08,132A.35.35,0,0,1,392.79,132.12Z"/><path class="cls-3" d="M405.54,138.44a.37.37,0,0,1-.28-.14l-1.89-2.47a.37.37,0,0,1,.07-.51.35.35,0,0,1,.5.07l1.89,2.47a.35.35,0,0,1-.07.5A.35.35,0,0,1,405.54,138.44Z"/><path class="cls-3" d="M405.46,98.44a.42.42,0,0,1-.21-.06.36.36,0,0,1-.08-.5l2-2.84a.34.34,0,0,1,.49-.08.35.35,0,0,1,.09.49l-2,2.84A.35.35,0,0,1,405.46,98.44Z"/><path class="cls-3" d="M398.24,152.57a.35.35,0,0,1-.17,0,.36.36,0,0,1-.14-.49l2-3.78a.35.35,0,0,1,.48-.15.37.37,0,0,1,.15.49l-2,3.78A.37.37,0,0,1,398.24,152.57Z"/><path class="cls-3" d="M411.37,148.4a.4.4,0,0,1-.23-.08.35.35,0,0,1-.05-.5l1.48-1.85a.36.36,0,1,1,.56.44l-1.49,1.85A.35.35,0,0,1,411.37,148.4Z"/><path class="cls-3" d="M393.49,144.9a.28.28,0,0,1-.15,0l-3-1.35a.34.34,0,0,1-.17-.47.36.36,0,0,1,.47-.18l3,1.35a.37.37,0,0,1,.18.48A.36.36,0,0,1,393.49,144.9Z"/><path class="cls-3" d="M387.63,125.46a.31.31,0,0,1-.13,0l-3.28-1.33a.36.36,0,1,1,.27-.67l3.28,1.34a.35.35,0,0,1,.19.46A.36.36,0,0,1,387.63,125.46Z"/><path class="cls-3" d="M399.57,92.74a.4.4,0,0,1-.15,0c-2.35-1-2.4-1.15-2.46-1.29a.35.35,0,0,1,.17-.47.36.36,0,0,1,.41.07c.2.13,1.24.62,2.17,1a.36.36,0,0,1,.19.47A.36.36,0,0,1,399.57,92.74Z"/><rect class="cls-12" x="172.06" y="136.56" width="25.41" height="8.72" rx="0.3"/><path class="cls-12" d="M211.84,166.77,208,238.43a4.27,4.27,0,0,1-4.27,4H165.94a4.28,4.28,0,0,1-4.27-4l-1.92-35.76-.38-7.12-1.05-19.63-.5-9.15c0-.29,0-.58,0-.87a18.14,18.14,0,0,1,3.63-11l8.51-11.31a2.59,2.59,0,0,1,2.08-1.05h25.63a2.6,2.6,0,0,1,2.08,1.05l8.5,11.31A18.08,18.08,0,0,1,211.84,166.77Z"/><path class="cls-2" d="M159.41,196.7a.36.36,0,0,1-.36-.35l-1.59-29.56c0-.29,0-.59,0-.89a18.57,18.57,0,0,1,3.71-11.2.37.37,0,0,1,.59.44,17.82,17.82,0,0,0-3.57,10.75c0,.29,0,.57,0,.85l1.59,29.57a.36.36,0,0,1-.35.39Z"/><path class="cls-13" d="M211.84,167.51h0a.73.73,0,0,1-.69-.77,17.46,17.46,0,0,0-3.47-11.37l-8.49-11.31a1.91,1.91,0,0,0-1.5-.76H181.34a.73.73,0,1,1,0-1.46h16.31a3.36,3.36,0,0,1,2.67,1.34l8.49,11.31a18.83,18.83,0,0,1,3.76,12.33A.74.74,0,0,1,211.84,167.51Z"/><rect class="cls-7" x="169.91" y="129.87" width="29.7" height="10.22" rx="2.15"/><path class="cls-7" d="M192.67,135.45H176.85a3.38,3.38,0,0,1-3.39-3.38v-1.95c1.32-1.33,2.07-2.07,3.39-3.39h15.82c1.32,1.32,2.07,2.06,3.39,3.39v1.95A3.38,3.38,0,0,1,192.67,135.45Z"/><path class="cls-9" d="M199.62,132.45a.72.72,0,0,0,.73-.73,2.48,2.48,0,0,0-2.37-2.58H171.57a.74.74,0,1,0,0,1.47H198a1,1,0,0,1,.91,1.11A.73.73,0,0,0,199.62,132.45Z"/><path class="cls-11" d="M170.94,175.23h0a1.12,1.12,0,0,1-1.12,1.12h-1.56a1.13,1.13,0,0,1-1.13-1.12V159.31A1.92,1.92,0,0,1,169,157.4h0a1.91,1.91,0,0,1,1.9,1.91v4.33a4.3,4.3,0,0,1,2.94-1.07c3.23,0,5.71,3,5.71,7s-2.43,7-5.71,7A3.3,3.3,0,0,1,170.94,175.23Zm4.84-5.57c0-1.88-1-3.26-2.4-3.26s-2.41,1.38-2.41,3.26,1,3.26,2.41,3.26S175.78,171.54,175.78,169.66Z"/><path class="cls-11" d="M184.23,162.82h0a1.88,1.88,0,0,1,1.88,1.88v9.77a1.88,1.88,0,0,1-1.88,1.88h0a1.88,1.88,0,0,1-1.88-1.88V164.7A1.88,1.88,0,0,1,184.23,162.82Zm.09-1.66s5.4-1.59,2.58-6.49C186.9,154.67,180.88,156.55,184.32,161.16Z"/><path class="cls-11" d="M188.69,169.64a6.92,6.92,0,1,1,6.92,7A6.84,6.84,0,0,1,188.69,169.64Zm10,0a3.07,3.07,0,1,0-3.06,3.33A3.17,3.17,0,0,0,198.67,169.64Z"/><polygon class="cls-11" points="211 155.64 209.56 152.04 208.12 155.64 204.62 156.98 208.06 158.09 209.56 161.92 211.06 158.09 214.5 156.98 211 155.64"/><path class="cls-2" d="M209.56,162.28a.27.27,0,0,1-.13,0,.37.37,0,0,1-.21-.48l1.56-4,3.6-1.16a.37.37,0,0,1,.46.24.36.36,0,0,1-.23.46l-3.28,1-1.43,3.67A.37.37,0,0,1,209.56,162.28Z"/><path class="cls-18" d="M151.13,210.21a5.15,5.15,0,0,1-4.67,6.57,55.23,55.23,0,0,1-8.13-.18,3.7,3.7,0,0,0-1.37.13c-3.6,1.05-4.83,7.63-2.76,14.69s6.66,11.94,10.26,10.88a3.47,3.47,0,0,0,1.26-.66,52.29,52.29,0,0,1,6.65-4.57,5.14,5.14,0,0,1,7.51,3h0a3.37,3.37,0,0,0,4.19,2.29l7.18-2.1-10.67-36.4L153.39,206a3.37,3.37,0,0,0-2.28,4.19Z"/><path class="cls-2" d="M140.74,224.72a.36.36,0,0,1-.34-.26,22,22,0,0,0-3.74-7.49.35.35,0,0,1,.05-.5.36.36,0,0,1,.51.05,23.13,23.13,0,0,1,3.87,7.74.36.36,0,0,1-.25.44Z"/><path class="cls-2" d="M163.11,242.84a3.76,3.76,0,0,1-3.58-2.68.37.37,0,0,1,.25-.45.36.36,0,0,1,.44.24A3,3,0,0,0,164,242l7.18-2.1a.35.35,0,0,1,.2.68l-7.18,2.11A3.88,3.88,0,0,1,163.11,242.84Z"/><path class="cls-3" d="M171.71,200.58s3.6,5,2.77,9.43c3.31,2.67,6,5,3,8.64,4.25,1.12,2.79,5.08,2.11,8.89,2.68,3.68,2.77,9.43,2.77,9.43l-12,.43-9-30.72Z"/><path class="cls-2" d="M159.88,240.41a.37.37,0,0,1-.35-.25l-5.93-20.24a.36.36,0,0,1,.24-.45.37.37,0,0,1,.45.25L160.22,240a.36.36,0,0,1-.24.45Z"/><path class="cls-2" d="M166.07,222.92a.36.36,0,0,1-.35-.26l-5.39-18.37-2.54.74a.35.35,0,1,1-.2-.68l3.23-.95,5.59,19.06a.37.37,0,0,1-.24.45Z"/><path class="cls-4" d="M168.35,212.81a.36.36,0,0,1-.33-.21.36.36,0,0,1,.19-.47l6.83-2.9a.35.35,0,0,1,.47.19.34.34,0,0,1-.19.46l-6.83,2.91A.32.32,0,0,1,168.35,212.81Z"/><path class="cls-4" d="M175.24,228.83a.36.36,0,0,1-.36-.31.36.36,0,0,1,.31-.4l5-.66a.36.36,0,0,1,.4.31.35.35,0,0,1-.31.4l-5,.66Z"/><path class="cls-4" d="M174.89,219.77a.36.36,0,0,1-.15-.69l3.46-1.53a.36.36,0,0,1,.47.19.35.35,0,0,1-.19.47L175,219.74A.35.35,0,0,1,174.89,219.77Z"/><path class="cls-4" d="M172.07,224.54a.34.34,0,0,1-.35-.3.35.35,0,0,1,.29-.41l9.28-1.41a.36.36,0,0,1,.41.3.35.35,0,0,1-.3.4l-9.28,1.42Z"/></g></g></svg>