<svg xmlns="http://www.w3.org/2000/svg" xmlns:xlink="http://www.w3.org/1999/xlink" viewBox="0 0 333.61 330.58"><defs><style>.cls-1{fill:none;}.cls-2{clip-path:url(#clip-path);}.cls-3,.cls-5{fill:#fff;}.cls-4{fill:#f2f2f2;}.cls-5{opacity:0.5;}.cls-6{fill:#786480;}.cls-7{fill:#ffddb0;}.cls-8{fill:#fefceb;}.cls-9{fill:#4aaad3;}.cls-10{fill:#fff7e1;}.cls-11{fill:#bbdbf2;}.cls-12{fill:#e2ded3;}.cls-13{fill:#c1c0bf;}.cls-14{fill:#697087;}.cls-15{fill:#dddcdb;}.cls-16,.cls-42{fill:#efefef;}.cls-16{opacity:0.67;}.cls-17{fill:#66648b;}.cls-18{fill:#52527c;}.cls-19{fill:#ea8500;}.cls-20{fill:#fa2c40;}.cls-21{fill:#ffa015;}.cls-22{fill:#efece4;}.cls-23{fill:#82b7d8;}.cls-24{fill:#ffab6d;}.cls-25{fill:#76736c;}.cls-26{fill:#97d3de;}.cls-27{fill:#050304;}.cls-28{fill:#793a4f;}.cls-29{fill:#383f5c;}.cls-30{fill:#9ecae5;}.cls-31{fill:#d35e0d;}.cls-32{fill:#424272;}.cls-33{fill:#2c2c5b;}.cls-34{fill:#090933;}.cls-35{fill:#b0e4ea;}.cls-36{fill:#f1eedd;}.cls-37{fill:#daccb2;}.cls-38{fill:#ccba9f;}.cls-39{fill:#3fc9c9;}.cls-40{fill:#a2e9ec;}.cls-41{fill:#fafbfd;}.cls-43{fill:#333359;}.cls-44{fill:#f29251;}.cls-45{fill:#78b2ba;}.cls-46{fill:#252930;}.cls-47{fill:#e07f0b;}.cls-48{fill:#c90223;}.cls-49{fill:#e21734;}.cls-50{fill:#38b2ac;}.cls-51{fill:#7a8299;}.cls-52{fill:#4889aa;}</style><clipPath id="clip-path"><rect class="cls-1" width="333.61" height="330.58"/></clipPath></defs><g id="Layer_2" data-name="Layer 2"><g id="objects"><g class="cls-2"><rect class="cls-3" x="-127.7" y="50.1" width="667.23" height="330.58"/><rect class="cls-4" x="310.75" y="0.13" width="41.2" height="250.77"/><rect class="cls-3" x="310.75" y="182.7" width="41.2" height="5.09"/><path class="cls-5" d="M352,.13h-41.2V140.28c10.35-11.27,22.75-16.72,37.44-11.22,1.25.47,2.51.9,3.76,1.31Z"/><rect class="cls-4" x="116.46" y="0.13" width="235.49" height="250.77"/><rect class="cls-3" x="302.18" y="0.13" width="7.71" height="250.77"/><rect class="cls-3" x="199.41" y="0.13" width="7.71" height="250.77"/><rect class="cls-3" x="116.46" y="182.7" width="235.49" height="5.09"/><path class="cls-3" d="M244.34,250.9,296.86,200s-19.22,27.32-40.07,50.92Z"/><path class="cls-3" d="M157.74,250.9l41.67-47.53,7.71-8.79,5.95-6.78,4.46-5.1,84.65-96.54,7.71-8.79,14.28-16.28L309.89,78.18l-7.71,9.22c-20.17,24.15-51.13,61.2-79.6,95.3l-4.25,5.1-11.21,13.43-7.71,9.23C185.86,226.71,174,240.94,165.7,250.9Z"/><rect class="cls-4" x="-12.87" y="0.13" width="237.94" height="250.77"/><rect class="cls-3" x="134.42" y="0.13" width="7.71" height="250.77"/><rect class="cls-3" x="31.65" y="0.13" width="7.71" height="250.77"/><rect class="cls-3" x="-12.87" y="182.7" width="237.94" height="5.09"/><path class="cls-3" d="M76.58,250.9,129.1,200S109.89,227.3,89,250.9Z"/><path class="cls-3" d="M189.84,131.24S206.18,108,225.08,85.89V97.08Z"/><path class="cls-3" d="M-10,250.9l41.67-47.53,7.71-8.79,6-6.78,4.46-5.1,84.65-96.54,7.71-8.79,14.28-16.28L142.13,78.18l-7.71,9.22c-20.17,24.15-51.13,61.2-79.6,95.3l-4.25,5.1L39.36,201.23l-7.71,9.23C18.1,226.71,6.23,240.94-2.06,250.9Z"/><path class="cls-3" d="M161.42,151.22l63.66-72.36v3.2C195.1,114.65,162.35,150.21,161.42,151.22Z"/><path class="cls-6" d="M113.25,124H21.42a1.84,1.84,0,0,1-1.84-1.82V120a1.84,1.84,0,0,1,1.84-1.82h91.83a1.83,1.83,0,0,1,1.83,1.82v2.12A1.83,1.83,0,0,1,113.25,124Z"/><rect class="cls-7" x="19.58" y="34.96" width="28.62" height="86.14"/><rect class="cls-8" x="48.16" y="34.96" width="66.94" height="86.14"/><path class="cls-9" d="M105,117.28a7.1,7.1,0,1,1,7.16-7.1A7.14,7.14,0,0,1,105,117.28Zm0-14a6.86,6.86,0,1,0,6.92,6.86A6.9,6.9,0,0,0,105,103.32Z"/><path class="cls-10" d="M82.32,43.76a3.07,3.07,0,1,1-3.07-3A3,3,0,0,1,82.32,43.76Z"/><path class="cls-9" d="M79.25,46.91a3.15,3.15,0,1,1,3.19-3.15A3.17,3.17,0,0,1,79.25,46.91Zm0-6.07a2.92,2.92,0,1,0,3,2.92A2.93,2.93,0,0,0,79.25,40.84Z"/><path class="cls-10" d="M92.57,43.76a3.06,3.06,0,1,1-3.06-3A3,3,0,0,1,92.57,43.76Z"/><path class="cls-9" d="M89.51,46.91a3.15,3.15,0,1,1,3.18-3.15A3.16,3.16,0,0,1,89.51,46.91Zm0-6.07a2.92,2.92,0,1,0,2.94,2.92A2.93,2.93,0,0,0,89.51,40.84Z"/><path class="cls-9" d="M115.14,53.87H19.58a.12.12,0,0,1-.12-.12.13.13,0,0,1,.12-.12h95.56a.12.12,0,0,1,.12.12A.12.12,0,0,1,115.14,53.87Z"/><path class="cls-9" d="M81.63,104.54a21.81,21.81,0,1,1,22-21.81A21.93,21.93,0,0,1,81.63,104.54Zm0-43.37a21.57,21.57,0,1,0,21.76,21.56A21.69,21.69,0,0,0,81.63,61.17Z"/><path class="cls-11" d="M92.26,70.47A16.06,16.06,0,0,1,94,93.26,16.41,16.41,0,0,1,71,95a16.07,16.07,0,0,1-1.75-22.8A16.42,16.42,0,0,1,92.26,70.47Z"/><path class="cls-10" d="M68,85.18a.13.13,0,0,1-.12-.11A14.08,14.08,0,0,1,68,80.49a.12.12,0,0,1,.14-.1.13.13,0,0,1,.1.14A13.67,13.67,0,0,0,68.09,85a.12.12,0,0,1-.11.13Z"/><path class="cls-10" d="M71.27,74.25a.11.11,0,0,1-.07,0,.12.12,0,0,1,0-.17,14.39,14.39,0,0,1,20.16-1.51.11.11,0,0,1,0,.16.12.12,0,0,1-.17,0,14.11,14.11,0,0,0-19.81,1.49A.18.18,0,0,1,71.27,74.25Z"/><rect class="cls-8" x="103.6" y="102.55" width="2.75" height="3.74" rx="0.87"/><path class="cls-9" d="M105.49,106.4h-1a1,1,0,0,1-1-1v-2a1,1,0,0,1,1-1h1a1,1,0,0,1,1,1v2A1,1,0,0,1,105.49,106.4Zm-1-3.73a.75.75,0,0,0-.75.74v2a.76.76,0,0,0,.75.75h1a.76.76,0,0,0,.75-.75v-2a.75.75,0,0,0-.75-.74Z"/><path class="cls-10" d="M103.1,88.49H99.52a4,4,0,0,1-4-4V81a4,4,0,0,1,4-4h3.58a1.26,1.26,0,0,1,1.27,1.25v9A1.26,1.26,0,0,1,103.1,88.49Z"/><path class="cls-9" d="M103.1,88.61H99.52a4.13,4.13,0,0,1-4.15-4.1V81a4.13,4.13,0,0,1,4.15-4.11h3.58a1.38,1.38,0,0,1,1.39,1.37v9A1.38,1.38,0,0,1,103.1,88.61ZM99.52,77.09A3.89,3.89,0,0,0,95.61,81v3.55a3.89,3.89,0,0,0,3.91,3.87h3.58a1.15,1.15,0,0,0,1.15-1.14v-9a1.15,1.15,0,0,0-1.15-1.13Z"/><path class="cls-10" d="M67.64,42.85h-13A1.84,1.84,0,0,1,52.79,41V39.66a1.84,1.84,0,0,1,1.84-1.82h13a1.84,1.84,0,0,1,1.84,1.82V41A1.84,1.84,0,0,1,67.64,42.85Z"/><path class="cls-9" d="M67.64,43h-13a2,2,0,0,1-2-1.94V39.66a2,2,0,0,1,2-1.93h13a2,2,0,0,1,2,1.93V41A2,2,0,0,1,67.64,43Zm-13-5a1.72,1.72,0,0,0-1.72,1.7V41a1.71,1.71,0,0,0,1.72,1.7h13A1.71,1.71,0,0,0,69.36,41V39.66A1.72,1.72,0,0,0,67.64,38Z"/><path class="cls-8" d="M71.16,37.39V50.13H50.65V37.39h4.9V38a1.84,1.84,0,0,0,1.84,1.82h7.19A1.83,1.83,0,0,0,66.41,38v-.61Z"/><path class="cls-9" d="M71.16,50.25H50.65a.13.13,0,0,1-.12-.12V37.39a.12.12,0,0,1,.12-.12h4.9a.12.12,0,0,1,.12.12V38a1.72,1.72,0,0,0,1.72,1.7h7.19A1.71,1.71,0,0,0,66.29,38v-.61a.12.12,0,0,1,.12-.12h4.75a.12.12,0,0,1,.12.12V50.13A.12.12,0,0,1,71.16,50.25ZM50.77,50H71V37.51H66.53V38a1.94,1.94,0,0,1-2,1.93H57.39a1.94,1.94,0,0,1-2-1.93v-.49H50.77Z"/><path class="cls-10" d="M112,43.76a6.58,6.58,0,1,1-6.58-6.52A6.55,6.55,0,0,1,112,43.76Z"/><path class="cls-9" d="M105.44,50.4a6.64,6.64,0,1,1,6.7-6.64A6.68,6.68,0,0,1,105.44,50.4Zm0-13a6.4,6.4,0,1,0,6.46,6.4A6.44,6.44,0,0,0,105.44,37.36Z"/><path class="cls-6" d="M113.25,211.73H21.42a1.84,1.84,0,0,1-1.84-1.82v-2.13A1.83,1.83,0,0,1,21.42,206h91.83a1.82,1.82,0,0,1,1.83,1.81v2.13A1.83,1.83,0,0,1,113.25,211.73Z"/><rect class="cls-7" x="19.58" y="122.71" width="28.62" height="86.14"/><rect class="cls-8" x="48.16" y="122.71" width="66.94" height="86.14"/><path class="cls-9" d="M105,205a7.1,7.1,0,1,1,7.16-7.09A7.13,7.13,0,0,1,105,205Zm0-14a6.86,6.86,0,1,0,6.92,6.86A6.9,6.9,0,0,0,105,191.07Z"/><path class="cls-10" d="M82.32,131.51a3.07,3.07,0,1,1-3.07-3A3,3,0,0,1,82.32,131.51Z"/><path class="cls-9" d="M79.25,134.66a3.16,3.16,0,1,1,3.19-3.15A3.18,3.18,0,0,1,79.25,134.66Zm0-6.07a2.92,2.92,0,1,0,3,2.92A2.93,2.93,0,0,0,79.25,128.59Z"/><path class="cls-10" d="M92.57,131.51a3.06,3.06,0,1,1-3.06-3A3,3,0,0,1,92.57,131.51Z"/><path class="cls-9" d="M89.51,134.66a3.16,3.16,0,1,1,3.18-3.15A3.17,3.17,0,0,1,89.51,134.66Zm0-6.07a2.92,2.92,0,1,0,2.94,2.92A2.93,2.93,0,0,0,89.51,128.59Z"/><path class="cls-9" d="M115.14,141.62H19.58a.12.12,0,1,1,0-.24h95.56a.12.12,0,0,1,0,.24Z"/><path class="cls-9" d="M81.63,192.28a21.81,21.81,0,1,1,22-21.8A21.93,21.93,0,0,1,81.63,192.28Zm0-43.37a21.57,21.57,0,1,0,21.76,21.57A21.7,21.7,0,0,0,81.63,148.91Z"/><path class="cls-11" d="M92.26,158.22A16.06,16.06,0,0,1,94,181a16.41,16.41,0,0,1-23,1.73A16.05,16.05,0,0,1,69.25,160,16.41,16.41,0,0,1,92.26,158.22Z"/><path class="cls-10" d="M68,172.92a.12.12,0,0,1-.12-.1,14.15,14.15,0,0,1,.16-4.59.12.12,0,0,1,.24.05,13.66,13.66,0,0,0-.16,4.51.13.13,0,0,1-.11.13Z"/><path class="cls-10" d="M71.27,162a.11.11,0,0,1-.07,0,.13.13,0,0,1,0-.17,14.38,14.38,0,0,1,20.16-1.52.12.12,0,0,1,0,.17.12.12,0,0,1-.17,0A14.14,14.14,0,0,0,71.37,162,.14.14,0,0,1,71.27,162Z"/><rect class="cls-8" x="103.6" y="190.3" width="2.75" height="3.74" rx="0.87"/><path class="cls-9" d="M105.49,194.15h-1a1,1,0,0,1-1-1v-2a1,1,0,0,1,1-1h1a1,1,0,0,1,1,1v2A1,1,0,0,1,105.49,194.15Zm-1-3.73a.75.75,0,0,0-.75.74v2a.75.75,0,0,0,.75.74h1a.75.75,0,0,0,.75-.74v-2a.75.75,0,0,0-.75-.74Z"/><path class="cls-10" d="M103.1,176.24H99.52a4,4,0,0,1-4-4v-3.54a4,4,0,0,1,4-4h3.58a1.26,1.26,0,0,1,1.27,1.25v9A1.26,1.26,0,0,1,103.1,176.24Z"/><path class="cls-9" d="M103.1,176.36H99.52a4.13,4.13,0,0,1-4.15-4.11v-3.54a4.13,4.13,0,0,1,4.15-4.11h3.58a1.38,1.38,0,0,1,1.39,1.37v9A1.38,1.38,0,0,1,103.1,176.36Zm-3.58-11.52a3.89,3.89,0,0,0-3.91,3.87v3.54a3.89,3.89,0,0,0,3.91,3.87h3.58a1.15,1.15,0,0,0,1.15-1.13v-9a1.15,1.15,0,0,0-1.15-1.13Z"/><path class="cls-10" d="M67.64,130.6h-13a1.84,1.84,0,0,1-1.84-1.82v-1.37a1.84,1.84,0,0,1,1.84-1.82h13a1.84,1.84,0,0,1,1.84,1.82v1.37A1.84,1.84,0,0,1,67.64,130.6Z"/><path class="cls-9" d="M67.64,130.71h-13a1.94,1.94,0,0,1-2-1.93v-1.37a2,2,0,0,1,2-1.94h13a2,2,0,0,1,2,1.94v1.37A1.94,1.94,0,0,1,67.64,130.71Zm-13-5a1.71,1.71,0,0,0-1.72,1.7v1.37a1.72,1.72,0,0,0,1.72,1.7h13a1.72,1.72,0,0,0,1.72-1.7v-1.37a1.71,1.71,0,0,0-1.72-1.7Z"/><path class="cls-8" d="M71.16,125.14v12.73H50.65V125.14h4.9v.6a1.84,1.84,0,0,0,1.84,1.82h7.19a1.83,1.83,0,0,0,1.83-1.82v-.6Z"/><path class="cls-9" d="M71.16,138H50.65a.12.12,0,0,1-.12-.12V125.14a.12.12,0,0,1,.12-.12h4.9a.12.12,0,0,1,.12.12v.6a1.71,1.71,0,0,0,1.72,1.7h7.19a1.71,1.71,0,0,0,1.71-1.7v-.6a.12.12,0,0,1,.12-.12h4.75a.12.12,0,0,1,.12.12v12.73A.12.12,0,0,1,71.16,138Zm-20.39-.23H71v-12.5H66.53v.48a1.94,1.94,0,0,1-2,1.94H57.39a2,2,0,0,1-2-1.94v-.48H50.77Z"/><ellipse class="cls-10" cx="105.44" cy="131.51" rx="6.58" ry="6.52"/><path class="cls-9" d="M105.44,138.15a6.64,6.64,0,1,1,6.7-6.64A6.68,6.68,0,0,1,105.44,138.15Zm0-13.05a6.41,6.41,0,1,0,6.46,6.41A6.45,6.45,0,0,0,105.44,125.1Z"/><path class="cls-6" d="M40.33,118.22h-53.2V124h53.2a1.83,1.83,0,0,0,1.83-1.82V120A1.83,1.83,0,0,0,40.33,118.22Z"/><rect class="cls-8" x="-12.87" y="34.96" width="55.04" height="86.14"/><path class="cls-9" d="M32.06,117.28a7.1,7.1,0,1,1,7.16-7.1A7.14,7.14,0,0,1,32.06,117.28Zm0-14A6.86,6.86,0,1,0,39,110.18,6.9,6.9,0,0,0,32.06,103.32Z"/><path class="cls-10" d="M9.4,43.76a3.06,3.06,0,1,1-3.06-3A3,3,0,0,1,9.4,43.76Z"/><path class="cls-9" d="M6.34,46.91a3.15,3.15,0,1,1,3.18-3.15A3.16,3.16,0,0,1,6.34,46.91Zm0-6.07a2.92,2.92,0,1,0,2.94,2.92A2.93,2.93,0,0,0,6.34,40.84Z"/><path class="cls-10" d="M19.65,43.76a3.06,3.06,0,1,1-3.06-3A3,3,0,0,1,19.65,43.76Z"/><path class="cls-9" d="M16.59,46.91a3.15,3.15,0,1,1,3.18-3.15A3.17,3.17,0,0,1,16.59,46.91Zm0-6.07a2.92,2.92,0,1,0,2.94,2.92A2.93,2.93,0,0,0,16.59,40.84Z"/><path class="cls-9" d="M42.22,53.63H-12.87v.24H42.22a.12.12,0,0,0,.12-.12A.12.12,0,0,0,42.22,53.63Z"/><path class="cls-9" d="M8.71,60.93a22,22,0,0,0-21.58,17.5v1.45A21.73,21.73,0,0,1,8.71,61.17a21.57,21.57,0,1,1,0,43.13A21.74,21.74,0,0,1-12.87,85.58V87A22,22,0,0,0,8.71,104.54a21.81,21.81,0,1,0,0-43.61Z"/><path class="cls-11" d="M19.34,70.47a16.06,16.06,0,0,1,1.75,22.79A16.42,16.42,0,0,1-1.92,95,16.07,16.07,0,0,1-3.67,72.2,16.42,16.42,0,0,1,19.34,70.47Z"/><path class="cls-10" d="M-1.64,74.25a.11.11,0,0,1-.08,0,.12.12,0,0,1,0-.17A14.23,14.23,0,0,1,8,69.16a14.25,14.25,0,0,1,10.39,3.38.1.1,0,0,1,0,.16.12.12,0,0,1-.17,0A14.11,14.11,0,0,0-1.55,74.21.18.18,0,0,1-1.64,74.25Z"/><rect class="cls-8" x="30.69" y="102.55" width="2.75" height="3.74" rx="0.87"/><path class="cls-9" d="M32.57,106.4h-1a1,1,0,0,1-1-1v-2a1,1,0,0,1,1-1h1a1,1,0,0,1,1,1v2A1,1,0,0,1,32.57,106.4Zm-1-3.73a.74.74,0,0,0-.75.74v2a.75.75,0,0,0,.75.75h1a.76.76,0,0,0,.75-.75v-2a.75.75,0,0,0-.75-.74Z"/><path class="cls-10" d="M30.18,88.49H26.6a4,4,0,0,1-4-4V81a4,4,0,0,1,4-4h3.58a1.26,1.26,0,0,1,1.27,1.25v9A1.26,1.26,0,0,1,30.18,88.49Z"/><path class="cls-9" d="M30.18,88.61H26.6a4.13,4.13,0,0,1-4.15-4.1V81a4.13,4.13,0,0,1,4.15-4.11h3.58a1.38,1.38,0,0,1,1.39,1.37v9A1.38,1.38,0,0,1,30.18,88.61ZM26.6,77.09A3.89,3.89,0,0,0,22.69,81v3.55a3.9,3.9,0,0,0,3.91,3.87h3.58a1.14,1.14,0,0,0,1.15-1.14v-9a1.14,1.14,0,0,0-1.15-1.13Z"/><path class="cls-10" d="M39.1,43.76a6.58,6.58,0,1,1-6.58-6.52A6.55,6.55,0,0,1,39.1,43.76Z"/><path class="cls-9" d="M32.52,50.4a6.64,6.64,0,1,1,6.7-6.64A6.68,6.68,0,0,1,32.52,50.4Zm0-13A6.4,6.4,0,1,0,39,43.76,6.44,6.44,0,0,0,32.52,37.36Z"/><path class="cls-6" d="M40.33,206h-53.2v5.76h53.2a1.83,1.83,0,0,0,1.83-1.82v-2.13A1.82,1.82,0,0,0,40.33,206Z"/><rect class="cls-8" x="-12.87" y="122.71" width="55.04" height="86.14"/><path class="cls-9" d="M32.06,205a7.1,7.1,0,1,1,7.16-7.09A7.13,7.13,0,0,1,32.06,205Zm0-14A6.86,6.86,0,1,0,39,197.93,6.9,6.9,0,0,0,32.06,191.07Z"/><path class="cls-10" d="M9.4,131.51a3.06,3.06,0,1,1-3.06-3A3,3,0,0,1,9.4,131.51Z"/><path class="cls-9" d="M6.34,134.66a3.16,3.16,0,1,1,3.18-3.15A3.17,3.17,0,0,1,6.34,134.66Zm0-6.07a2.92,2.92,0,1,0,2.94,2.92A2.93,2.93,0,0,0,6.34,128.59Z"/><path class="cls-10" d="M19.65,131.51a3.06,3.06,0,1,1-3.06-3A3,3,0,0,1,19.65,131.51Z"/><path class="cls-9" d="M16.59,134.66a3.16,3.16,0,1,1,3.18-3.15A3.18,3.18,0,0,1,16.59,134.66Zm0-6.07a2.92,2.92,0,1,0,2.94,2.92A2.93,2.93,0,0,0,16.59,128.59Z"/><path class="cls-9" d="M42.22,141.38H-12.87v.24H42.22a.12.12,0,0,0,0-.24Z"/><path class="cls-9" d="M8.71,148.67a22,22,0,0,0-21.58,17.51v1.45A21.74,21.74,0,0,1,8.71,148.91a21.57,21.57,0,1,1,0,43.14,21.74,21.74,0,0,1-21.58-18.72v1.45a22,22,0,0,0,21.58,17.5,21.81,21.81,0,1,0,0-43.61Z"/><path class="cls-11" d="M19.34,158.22A16.06,16.06,0,0,1,21.09,181a16.42,16.42,0,0,1-23,1.73A16.05,16.05,0,0,1-3.67,160,16.41,16.41,0,0,1,19.34,158.22Z"/><path class="cls-10" d="M-1.64,162a.11.11,0,0,1-.08,0,.13.13,0,0,1,0-.17,14.38,14.38,0,0,1,20.16-1.52.12.12,0,0,1-.16.18A14,14,0,0,0,8,157.14,14,14,0,0,0-1.55,162,.14.14,0,0,1-1.64,162Z"/><rect class="cls-8" x="30.69" y="190.3" width="2.75" height="3.74" rx="0.87"/><path class="cls-9" d="M32.57,194.15h-1a1,1,0,0,1-1-1v-2a1,1,0,0,1,1-1h1a1,1,0,0,1,1,1v2A1,1,0,0,1,32.57,194.15Zm-1-3.73a.74.74,0,0,0-.75.74v2a.74.74,0,0,0,.75.74h1a.75.75,0,0,0,.75-.74v-2a.75.75,0,0,0-.75-.74Z"/><path class="cls-10" d="M30.18,176.24H26.6a4,4,0,0,1-4-4v-3.54a4,4,0,0,1,4-4h3.58A1.26,1.26,0,0,1,31.45,166v9A1.26,1.26,0,0,1,30.18,176.24Z"/><path class="cls-9" d="M30.18,176.36H26.6a4.13,4.13,0,0,1-4.15-4.11v-3.54a4.13,4.13,0,0,1,4.15-4.11h3.58A1.38,1.38,0,0,1,31.57,166v9A1.38,1.38,0,0,1,30.18,176.36ZM26.6,164.84a3.89,3.89,0,0,0-3.91,3.87v3.54a3.89,3.89,0,0,0,3.91,3.87h3.58A1.14,1.14,0,0,0,31.33,175v-9a1.14,1.14,0,0,0-1.15-1.13Z"/><ellipse class="cls-10" cx="32.52" cy="131.51" rx="6.58" ry="6.52"/><path class="cls-9" d="M32.52,138.15a6.64,6.64,0,1,1,6.7-6.64A6.68,6.68,0,0,1,32.52,138.15Zm0-13.05A6.41,6.41,0,1,0,39,131.51,6.45,6.45,0,0,0,32.52,125.1Z"/><rect class="cls-12" x="-12.87" y="211.57" width="364.82" height="118.69"/><rect class="cls-13" x="278.83" y="35.19" width="73.12" height="1.95"/><path class="cls-14" d="M324.46,43.16a.17.17,0,0,1-.17-.17V40.16l-1.46-2a2.56,2.56,0,0,1,.54-3.59,2.61,2.61,0,0,1,3.62.54.16.16,0,0,1,0,.23.17.17,0,0,1-.24,0,2.27,2.27,0,0,0-3.15-.47,2.23,2.23,0,0,0-.48,3.12l1.5,2a.19.19,0,0,1,0,.1V43A.17.17,0,0,1,324.46,43.16Z"/><path class="cls-15" d="M341.1,50.26H338l-8.53-4.86-1.08-.62a8.07,8.07,0,0,0-8,0l-1,.54-8.65,4.94h-3.11l1.2-.69,10.75-6.13.77-.43a8,8,0,0,1,8,0l.93.52L340,49.65Z"/><path class="cls-11" d="M340,49.65V88.1a.81.81,0,0,1-.81.8H309.67a.8.8,0,0,1-.8-.8V49.57l10.75-6.13a4.8,4.8,0,0,0-.21,1.43c0,.15,0,.3,0,.45.24,2.55,2.39,3.29,5,3.29s4.75-.7,5-3.21a4.71,4.71,0,0,0,0-.53,4.93,4.93,0,0,0-.18-1.34Z"/><path class="cls-11" d="M320.54,41.25s-1.2,2.19-1.3,2.41a17.36,17.36,0,0,0,0,2.17l1.3,2.32,3.85,1.58s3.51-1.12,3.71-1.31,1.46-2.3,1.46-2.3l.27-2.29-1.33-2.58-1.43.3a12.74,12.74,0,0,1-5.36,0Z"/><path class="cls-16" d="M341.73,53.58V92.29a.89.89,0,0,1-.89.88H308.2a.89.89,0,0,1-.89-.88V53.11a5.78,5.78,0,0,1,2.94-5l8.93-5.1a5.47,5.47,0,0,0-.23,1.57,4.24,4.24,0,0,0,0,.51,5.57,5.57,0,0,0,11.07.08,5.68,5.68,0,0,0,0-.59,5.49,5.49,0,0,0-.2-1.47L338.45,48A6.45,6.45,0,0,1,341.73,53.58Z"/><path class="cls-14" d="M303.67,43.16a.17.17,0,0,1-.16-.17V40.16l-1.47-2a2.56,2.56,0,0,1,.55-3.59,2.61,2.61,0,0,1,3.62.54.17.17,0,0,1-.27.2,2.27,2.27,0,0,0-3.15-.47,2.22,2.22,0,0,0-.48,3.12l1.5,2a.19.19,0,0,1,0,.1V43A.18.18,0,0,1,303.67,43.16Z"/><path class="cls-15" d="M320.32,50.26H317.2l-8.52-4.86-1.08-.62a8.09,8.09,0,0,0-8,0l-1,.54L290,50.26h-3.11l1.19-.69,10.76-6.13.76-.43a8,8,0,0,1,8,0l.93.52,10.72,6.12Z"/><path class="cls-11" d="M319.25,49.65V88.1a.8.8,0,0,1-.8.8H288.89a.81.81,0,0,1-.81-.8V49.57l10.76-6.13a4.8,4.8,0,0,0-.21,1.43c0,.15,0,.3,0,.45.23,2.55,2.39,3.29,5,3.29s4.74-.7,5-3.21a4.71,4.71,0,0,0,0-.53,4.93,4.93,0,0,0-.18-1.34Z"/><path class="cls-11" d="M299.76,41.25s-1.21,2.19-1.3,2.41a15.62,15.62,0,0,0,0,2.17l1.3,2.32,3.84,1.58s3.52-1.12,3.72-1.31,1.46-2.3,1.46-2.3l.27-2.29-1.34-2.58-1.42.3a12.74,12.74,0,0,1-5.36,0Z"/><path class="cls-16" d="M320.94,53.58V92.29a.89.89,0,0,1-.89.88H287.42a.89.89,0,0,1-.89-.88V53.11a5.79,5.79,0,0,1,2.93-5L298.4,43a5.47,5.47,0,0,0-.23,1.57c0,.18,0,.34,0,.51a5.57,5.57,0,0,0,11.08.08,5.68,5.68,0,0,0,0-.59,5.49,5.49,0,0,0-.2-1.47L317.67,48A6.46,6.46,0,0,1,320.94,53.58Z"/><rect class="cls-13" x="197.94" y="35.1" width="97.83" height="1.95"/><path class="cls-14" d="M267.07,43.07a.18.18,0,0,1-.17-.17V40.07l-1.46-2a2.54,2.54,0,0,1,.55-3.58,2.59,2.59,0,0,1,3.61.54.16.16,0,0,1,0,.23.17.17,0,0,1-.24,0,2.27,2.27,0,0,0-3.15-.48,2.24,2.24,0,0,0-.48,3.13l1.5,2a.17.17,0,0,1,0,.1V42.9A.17.17,0,0,1,267.07,43.07Z"/><path class="cls-15" d="M282.49,50.16H280.6l-8.52-4.86L271,44.69a8.07,8.07,0,0,0-8,0l-1,.54-8.65,4.93h-3.11l1.2-.68,10.75-6.13.77-.44a8.07,8.07,0,0,1,8,0l.93.53,10.73,6.12h0A.32.32,0,0,1,282.49,50.16Z"/><path class="cls-17" d="M282.65,49.56V88a.8.8,0,0,1-.81.8H252.28a.8.8,0,0,1-.8-.8V49.48l10.75-6.13a4.78,4.78,0,0,0-.21,1.42c0,.16,0,.31,0,.46.24,2.55,2.4,3.29,5,3.29s4.75-.71,5-3.22c0-.17,0-.35,0-.53a4.85,4.85,0,0,0-.18-1.33Z"/><path class="cls-18" d="M263.15,41.16s-1.2,2.18-1.3,2.41a17.36,17.36,0,0,0,0,2.17l1.3,2.32L267,49.64s3.51-1.12,3.71-1.32,1.46-2.3,1.46-2.3l.27-2.28-1.33-2.58-1.43.3a12.91,12.91,0,0,1-5.36,0Z"/><path class="cls-16" d="M284.34,53.49V92.2a.89.89,0,0,1-.89.88H250.81a.89.89,0,0,1-.89-.88V53a5.78,5.78,0,0,1,2.94-5l8.93-5.1a5.47,5.47,0,0,0-.23,1.57,4.36,4.36,0,0,0,0,.51,5.57,5.57,0,0,0,11.07.08,5.83,5.83,0,0,0,0-.59,5.49,5.49,0,0,0-.2-1.47l8.57,4.89A6.45,6.45,0,0,1,284.34,53.49Z"/><path class="cls-14" d="M256.3,43.07a.18.18,0,0,1-.17-.17V40.07l-1.46-2a2.54,2.54,0,0,1,.55-3.58,2.61,2.61,0,0,1,3.62.54.17.17,0,0,1,0,.23.16.16,0,0,1-.23,0,2.27,2.27,0,0,0-3.15-.48,2.22,2.22,0,0,0-.48,3.13l1.49,2a.13.13,0,0,1,0,.1V42.9A.18.18,0,0,1,256.3,43.07Z"/><path class="cls-15" d="M271.72,50.16h-1.89l-8.52-4.86-1.08-.61a8.09,8.09,0,0,0-8,0l-.95.54-8.65,4.93h-3.11l1.19-.68,10.75-6.13.77-.44a8.09,8.09,0,0,1,8,0l.93.53,10.72,6.12h0A.32.32,0,0,1,271.72,50.16Z"/><path class="cls-11" d="M271.88,49.56V88a.8.8,0,0,1-.81.8H241.52a.8.8,0,0,1-.81-.8V49.48l10.75-6.13a5.13,5.13,0,0,0-.2,1.42,3.46,3.46,0,0,0,0,.46c.23,2.55,2.39,3.29,5,3.29s4.74-.71,5-3.22a4.58,4.58,0,0,0,0-.53,5.27,5.27,0,0,0-.18-1.33Z"/><path class="cls-11" d="M252.38,41.16s-1.2,2.18-1.29,2.41a15.62,15.62,0,0,0,0,2.17l1.29,2.32,3.85,1.58s3.52-1.12,3.71-1.32S261.4,46,261.4,46l.28-2.28-1.34-2.58-1.43.3a12.91,12.91,0,0,1-5.36,0Z"/><path class="cls-16" d="M273.57,53.49V92.2a.89.89,0,0,1-.89.88H240.05a.9.9,0,0,1-.9-.88V53a5.78,5.78,0,0,1,2.94-5l8.94-5.1a5.47,5.47,0,0,0-.23,1.57c0,.17,0,.34,0,.51a5.57,5.57,0,0,0,11.08.08,5.83,5.83,0,0,0,0-.59,5.49,5.49,0,0,0-.2-1.47l8.57,4.89A6.46,6.46,0,0,1,273.57,53.49Z"/><path class="cls-14" d="M251,43.07a.17.17,0,0,1-.16-.17V40.07l-1.47-2a2.55,2.55,0,0,1,.55-3.58,2.61,2.61,0,0,1,3.62.54.17.17,0,0,1-.27.2,2.27,2.27,0,0,0-3.15-.48,2.23,2.23,0,0,0-.48,3.13l1.5,2a.17.17,0,0,1,0,.1V42.9A.17.17,0,0,1,251,43.07Z"/><path class="cls-15" d="M266.38,50.16H264.5L256,45.3l-1.08-.61a8.07,8.07,0,0,0-8,0l-1,.54-8.65,4.93h-3.11l1.19-.68,10.76-6.13.77-.44a8.07,8.07,0,0,1,8,0l.93.53,10.73,6.12h0A.32.32,0,0,1,266.38,50.16Z"/><path class="cls-19" d="M266.55,49.56V88a.81.81,0,0,1-.81.8H236.18a.81.81,0,0,1-.81-.8V49.48l10.76-6.13a4.78,4.78,0,0,0-.21,1.42c0,.16,0,.31,0,.46.23,2.55,2.39,3.29,5,3.29s4.75-.71,5-3.22a4.58,4.58,0,0,0,0-.53,4.85,4.85,0,0,0-.18-1.33Z"/><path class="cls-19" d="M247.05,41.16s-1.2,2.18-1.3,2.41a15.62,15.62,0,0,0,0,2.17l1.3,2.32,3.84,1.58s3.52-1.12,3.72-1.32,1.46-2.3,1.46-2.3l.27-2.28L255,41.16l-1.43.3a12.91,12.91,0,0,1-5.36,0Z"/><path class="cls-16" d="M268.24,53.49V92.2a.9.9,0,0,1-.9.88H234.71a.89.89,0,0,1-.89-.88V53a5.79,5.79,0,0,1,2.93-5l8.94-5.1a5.47,5.47,0,0,0-.23,1.57c0,.17,0,.34,0,.51a5.57,5.57,0,0,0,11.08.08,5.83,5.83,0,0,0,0-.59,5.49,5.49,0,0,0-.2-1.47L265,47.88A6.45,6.45,0,0,1,268.24,53.49Z"/><path class="cls-14" d="M243.57,43.07a.18.18,0,0,1-.17-.17V40.07l-1.46-2a2.54,2.54,0,0,1,.55-3.58,2.59,2.59,0,0,1,3.61.54.16.16,0,0,1-.26.2,2.28,2.28,0,0,0-3.16-.48,2.23,2.23,0,0,0-.47,3.13l1.49,2a.17.17,0,0,1,0,.1V42.9A.17.17,0,0,1,243.57,43.07Z"/><path class="cls-15" d="M260.21,50.16H257.1l-8.52-4.86-1.08-.61a8.09,8.09,0,0,0-8,0l-1,.54-8.64,4.93h-3.12l1.2-.68,10.75-6.13.77-.44a8.09,8.09,0,0,1,8,0l.92.53,10.73,6.12Z"/><path class="cls-11" d="M259.15,49.56V88a.8.8,0,0,1-.81.8H228.79A.8.8,0,0,1,228,88V49.48l10.75-6.13a5.13,5.13,0,0,0-.21,1.42c0,.16,0,.31,0,.46.24,2.55,2.4,3.29,5,3.29s4.75-.71,5-3.22a4.61,4.61,0,0,0,0-.53,4.85,4.85,0,0,0-.18-1.33Z"/><path class="cls-11" d="M239.65,41.16s-1.2,2.18-1.3,2.41a17.36,17.36,0,0,0,0,2.17l1.3,2.32,3.85,1.58s3.51-1.12,3.71-1.32,1.46-2.3,1.46-2.3l.27-2.28-1.33-2.58-1.43.3a12.91,12.91,0,0,1-5.36,0Z"/><path class="cls-16" d="M260.84,53.49V92.2a.89.89,0,0,1-.89.88H227.31a.89.89,0,0,1-.89-.88V53a5.78,5.78,0,0,1,2.94-5l8.94-5.1a5.14,5.14,0,0,0-.23,1.57,4.35,4.35,0,0,0,0,.51,5.57,5.57,0,0,0,11.08.08,5.83,5.83,0,0,0,0-.59A5.49,5.49,0,0,0,249,43l8.56,4.89A6.45,6.45,0,0,1,260.84,53.49Z"/><path class="cls-14" d="M233.46,43.07a.18.18,0,0,1-.17-.17V40.07l-1.46-2a2.54,2.54,0,0,1,.55-3.58,2.59,2.59,0,0,1,3.61.54.16.16,0,1,1-.26.2,2.28,2.28,0,0,0-3.16-.48,2.24,2.24,0,0,0-.48,3.13l1.5,2a.17.17,0,0,1,0,.1V42.9A.17.17,0,0,1,233.46,43.07Z"/><path class="cls-15" d="M248.88,50.16H247l-8.52-4.86-1.09-.61a8.07,8.07,0,0,0-8,0l-1,.54-8.65,4.93h-3.11l1.2-.68,10.75-6.13.77-.44a8.07,8.07,0,0,1,8,0l.93.53L249,49.56h0A.32.32,0,0,1,248.88,50.16Z"/><path class="cls-20" d="M249,49.56V88a.8.8,0,0,1-.81.8H218.67a.8.8,0,0,1-.8-.8V49.48l10.75-6.13a4.78,4.78,0,0,0-.21,1.42c0,.16,0,.31,0,.46.24,2.55,2.4,3.29,5,3.29s4.75-.71,5-3.22c0-.17,0-.35,0-.53a4.85,4.85,0,0,0-.18-1.33Z"/><path class="cls-20" d="M229.54,41.16s-1.2,2.18-1.3,2.41a17.36,17.36,0,0,0,0,2.17l1.3,2.32,3.85,1.58s3.51-1.12,3.71-1.32,1.46-2.3,1.46-2.3l.27-2.28-1.33-2.58-1.43.3a12.91,12.91,0,0,1-5.36,0Z"/><path class="cls-16" d="M250.73,53.49V92.2a.89.89,0,0,1-.89.88H217.2a.89.89,0,0,1-.89-.88V53a5.78,5.78,0,0,1,2.94-5l8.93-5.1a5.47,5.47,0,0,0-.23,1.57,4.36,4.36,0,0,0,0,.51,5.57,5.57,0,0,0,11.07.08,5.83,5.83,0,0,0,0-.59,5.12,5.12,0,0,0-.2-1.47l8.57,4.89A6.45,6.45,0,0,1,250.73,53.49Z"/><path class="cls-14" d="M228.12,43.07a.18.18,0,0,1-.17-.17V40.07l-1.46-2a2.54,2.54,0,0,1,.55-3.58,2.61,2.61,0,0,1,3.62.54.17.17,0,0,1,0,.23.16.16,0,0,1-.23,0,2.27,2.27,0,0,0-3.15-.48,2.22,2.22,0,0,0-.48,3.13l1.49,2a.13.13,0,0,1,0,.1V42.9A.18.18,0,0,1,228.12,43.07Z"/><path class="cls-15" d="M243.54,50.16h-1.89l-8.52-4.86-1.08-.61a8.09,8.09,0,0,0-8,0l-1,.54-8.65,4.93h-3.11l1.19-.68,10.75-6.13.77-.44a8.09,8.09,0,0,1,8,0l.93.53,10.72,6.12h0A.32.32,0,0,1,243.54,50.16Z"/><path class="cls-21" d="M243.7,49.56V88a.8.8,0,0,1-.8.8H213.34a.8.8,0,0,1-.81-.8V49.48l10.75-6.13a5.13,5.13,0,0,0-.2,1.42,3.46,3.46,0,0,0,0,.46c.23,2.55,2.39,3.29,5,3.29s4.74-.71,5-3.22a4.58,4.58,0,0,0,0-.53,5.27,5.27,0,0,0-.18-1.33Z"/><path class="cls-21" d="M224.2,41.16s-1.2,2.18-1.29,2.41a15.62,15.62,0,0,0,0,2.17l1.29,2.32,3.85,1.58s3.52-1.12,3.71-1.32,1.46-2.3,1.46-2.3l.28-2.28-1.34-2.58-1.43.3a12.91,12.91,0,0,1-5.36,0Z"/><path class="cls-16" d="M245.39,53.49V92.2a.89.89,0,0,1-.89.88H211.87a.9.9,0,0,1-.9-.88V53a5.78,5.78,0,0,1,2.94-5l8.94-5.1a5.47,5.47,0,0,0-.23,1.57c0,.17,0,.34,0,.51a5.57,5.57,0,0,0,11.08.08,5.83,5.83,0,0,0,0-.59,5.49,5.49,0,0,0-.2-1.47l8.57,4.89A6.46,6.46,0,0,1,245.39,53.49Z"/><path class="cls-14" d="M222.78,44.41a.18.18,0,0,1-.16-.19V41l-1.47-2.26a3.23,3.23,0,0,1,.55-4.12,2.4,2.4,0,0,1,3.62.63.2.2,0,0,1,0,.26.16.16,0,0,1-.23,0,2.08,2.08,0,0,0-3.15-.54,2.81,2.81,0,0,0-.48,3.59l1.5,2.31a.2.2,0,0,1,0,.11v3.31A.18.18,0,0,1,222.78,44.41Z"/><path class="cls-15" d="M238.2,52.56h-1.88L227.79,47l-1.08-.71a7.18,7.18,0,0,0-8,0l-1,.63-8.65,5.66h-1.73a.43.43,0,0,1-.19-.78h0l10.76-7,.77-.51a7.18,7.18,0,0,1,8,0l.93.61,10.73,7h0A.38.38,0,0,1,238.2,52.56Z"/><path class="cls-11" d="M238.37,51.87V96a.87.87,0,0,1-.81.92H208a.87.87,0,0,1-.81-.92V51.78l10.76-7a6.17,6.17,0,0,0-.21,1.63c0,.18,0,.35,0,.53.23,2.92,2.39,3.77,5,3.77s4.75-.81,5-3.69a6.08,6.08,0,0,0,0-.61,6.41,6.41,0,0,0-.18-1.53Z"/><path class="cls-11" d="M218.87,42.22s-1.2,2.51-1.3,2.76a20.73,20.73,0,0,0,0,2.5l1.3,2.66L222.71,52s3.52-1.29,3.72-1.51,1.46-2.65,1.46-2.65l.27-2.62-1.33-3-1.43.34a11.17,11.17,0,0,1-5.36,0Z"/><path class="cls-16" d="M240.06,56.38v44.45a1,1,0,0,1-.9,1H206.53a1,1,0,0,1-.89-1v-45a6.89,6.89,0,0,1,2.93-5.78l8.94-5.85a7.1,7.1,0,0,0-.23,1.8c0,.2,0,.39,0,.58.26,3.23,2.65,5.76,5.55,5.76s5.24-2.48,5.53-5.67c0-.22,0-.44,0-.67a7.24,7.24,0,0,0-.2-1.69l8.57,5.61A7.68,7.68,0,0,1,240.06,56.38Z"/><rect class="cls-13" x="282.63" y="36.83" width="1.78" height="106.78"/><rect class="cls-13" x="198.9" y="35.1" width="1.78" height="106.78"/><path class="cls-22" d="M6.09,272.63a.43.43,0,0,0-.34-.14H-12.87v.63h18L-7,296.67h-5.84v.63h6.12a.45.45,0,0,0,.39-.2l12.5-24.18A.25.25,0,0,0,6.09,272.63Z"/><path class="cls-22" d="M50.3,297.3H-.31a.46.46,0,0,1-.34-.13.25.25,0,0,1,0-.29l12-24.19a.42.42,0,0,1,.38-.2h47a.51.51,0,0,1,.33.12.25.25,0,0,1,.07.28L50.7,297.07A.4.4,0,0,1,50.3,297.3Zm-50-.63H50l8.19-23.55H12Z"/><path class="cls-22" d="M107.36,297.3H56.74a.46.46,0,0,1-.33-.12.25.25,0,0,1-.07-.27l8-24.18a.4.4,0,0,1,.4-.24h47a.47.47,0,0,1,.31.11.27.27,0,0,1,.09.25L107.76,297A.37.37,0,0,1,107.36,297.3Zm-50.09-.63H107l4.2-23.55H65Z"/><path class="cls-22" d="M164.41,297.3H113.79a.46.46,0,0,1-.31-.1.26.26,0,0,1-.1-.25l3.86-24.18a.39.39,0,0,1,.41-.28h47a.48.48,0,0,1,.29.09.28.28,0,0,1,.12.23L164.82,297C164.82,297.16,164.63,297.3,164.41,297.3Zm-50.16-.63H164l.22-23.55H118Z"/><path class="cls-22" d="M221.46,297.3H170.84c-.23,0-.41-.14-.41-.31l-.23-24.18a.28.28,0,0,1,.12-.23.46.46,0,0,1,.29-.09h47a.39.39,0,0,1,.41.28L221.87,297a.28.28,0,0,1-.1.25A.46.46,0,0,1,221.46,297.3Zm-50.21-.63H221l-3.76-23.55H171Z"/><path class="cls-22" d="M278.51,297.3H227.89a.39.39,0,0,1-.41-.27l-4.32-24.18a.28.28,0,0,1,.1-.25.47.47,0,0,1,.31-.11h47a.4.4,0,0,1,.4.24l8,24.18a.25.25,0,0,1-.08.27A.42.42,0,0,1,278.51,297.3Zm-50.26-.63H278l-7.74-23.55H224Z"/><path class="cls-22" d="M335.56,297.3H284.94a.41.41,0,0,1-.4-.23l-8.41-24.18a.27.27,0,0,1,.08-.28.46.46,0,0,1,.32-.12h47a.44.44,0,0,1,.39.2l12,24.19a.27.27,0,0,1-.05.29A.48.48,0,0,1,335.56,297.3Zm-50.3-.63H335l-11.72-23.55H277.07Z"/><path class="cls-22" d="M352,296.67h-9.68L330.1,273.12H352v-.63H329.49a.46.46,0,0,0-.34.14.26.26,0,0,0,0,.29l12.5,24.18a.42.42,0,0,0,.38.2h10Z"/><path class="cls-22" d="M49.77,299.26a.42.42,0,0,0-.32-.12h-51a.44.44,0,0,0-.39.2l-10.94,22v1.77l11.61-23.32H48.91l-9.75,28h-52v.63H39.48a.42.42,0,0,0,.4-.23l10-28.67A.26.26,0,0,0,49.77,299.26Z"/><path class="cls-22" d="M101.8,328.43H46.51a.46.46,0,0,1-.33-.12.26.26,0,0,1-.07-.27l9.42-28.66a.4.4,0,0,1,.4-.24h51a.49.49,0,0,1,.31.11.27.27,0,0,1,.09.25l-5.12,28.66A.38.38,0,0,1,101.8,328.43ZM47,327.8h54.4l5-28H56.25Z"/><path class="cls-22" d="M164.11,328.43H108.82a.47.47,0,0,1-.31-.11.26.26,0,0,1-.1-.24L113,299.42a.39.39,0,0,1,.41-.28h51a.51.51,0,0,1,.3.09.31.31,0,0,1,.12.23l-.28,28.66C164.52,328.29,164.34,328.43,164.11,328.43Zm-54.82-.63H163.7l.27-28H113.76Z"/><path class="cls-22" d="M226.43,328.43H171.14a.39.39,0,0,1-.42-.31l-.27-28.66a.28.28,0,0,1,.12-.23.48.48,0,0,1,.29-.09h51a.39.39,0,0,1,.41.28l4.57,28.66a.24.24,0,0,1-.1.24A.44.44,0,0,1,226.43,328.43Zm-54.88-.63H226l-4.47-28H171.28Z"/><path class="cls-22" d="M288.74,328.43H233.45a.41.41,0,0,1-.41-.27l-5.12-28.66a.28.28,0,0,1,.1-.25.47.47,0,0,1,.31-.11h51a.41.41,0,0,1,.4.24L289.14,328a.28.28,0,0,1-.07.27A.46.46,0,0,1,288.74,328.43Zm-54.93-.63h54.4l-9.21-28H228.8Z"/><path class="cls-22" d="M351.06,328.43H295.77a.42.42,0,0,1-.4-.23l-10-28.67a.26.26,0,0,1,.07-.27.46.46,0,0,1,.33-.12h51a.42.42,0,0,1,.38.2L351.44,328a.24.24,0,0,1-.05.29A.42.42,0,0,1,351.06,328.43Zm-55-.63h54.38l-14-28H286.34Z"/><path class="cls-23" d="M154,86a26.29,26.29,0,0,1-7-1,25.79,25.79,0,0,1-15.67-12.16,25.64,25.64,0,0,1,9.87-35.1,26.17,26.17,0,0,1,35.43,9.78,25.63,25.63,0,0,1-9.88,35.1A26,26,0,0,1,154,86Zm-.08-47.13a21.53,21.53,0,0,0-10.55,2.75,21.29,21.29,0,0,0,4.8,39.17,21.53,21.53,0,0,0,16.38-2,21.25,21.25,0,0,0,8.18-29.09A21.6,21.6,0,0,0,153.93,38.85Z"/><path class="cls-11" d="M155.94,85.78a26.38,26.38,0,0,1-7-1,25.8,25.8,0,0,1-15.67-12.17,25.4,25.4,0,0,1-2.4-19.57,25.67,25.67,0,0,1,12.28-15.53,26.14,26.14,0,0,1,35.42,9.79,25.67,25.67,0,0,1-9.88,35.1A26,26,0,0,1,155.94,85.78Zm-.07-47.14a21.62,21.62,0,0,0-10.56,2.76,21.31,21.31,0,0,0,4.8,39.18,21.62,21.62,0,0,0,16.38-2,21.3,21.3,0,0,0-4.8-39.18A21.88,21.88,0,0,0,155.87,38.64Z"/><path class="cls-23" d="M157.82,60.52a2.64,2.64,0,1,1-2.64-2.62A2.63,2.63,0,0,1,157.82,60.52Z"/><path class="cls-23" d="M155.69,60.42V41.66c0-.15-.23-.27-.51-.27s-.51.12-.51.27V60.42Z"/><path class="cls-23" d="M155.18,59.55,141.5,70.61c-.11.09-.06.34.11.56s.42.31.53.22l13.55-11A9.76,9.76,0,0,1,155.18,59.55Z"/><path class="cls-24" d="M257.9,190.67c.06.72-2.43,41.7-2.43,41.7s-1.51,9.19-7.8,7.54a10.72,10.72,0,0,1-7.61-7.5l-1.77-43.91,20,2.06Z"/><polygon class="cls-24" points="255.29 229.37 260.17 277.47 251.76 281.62 240.12 232.66 255.29 229.37"/><path class="cls-25" d="M249.05,270.43l-1.72,3.89s-8,2.22-9,4.16a11.45,11.45,0,0,0-.86,4.72h23.17l-.21-8.05L251,273.9Z"/><path class="cls-26" d="M250.94,278.3a.28.28,0,0,1-.17-.07l-3.67-3.75a.24.24,0,0,1,0-.33.25.25,0,0,1,.34,0l3.67,3.75a.24.24,0,0,1-.17.4Z"/><path class="cls-26" d="M247.84,279.13a.21.21,0,0,1-.18-.09l-3.22-4a.24.24,0,0,1,.38-.29l3.21,4a.23.23,0,0,1,0,.33A.25.25,0,0,1,247.84,279.13Z"/><path class="cls-25" d="M258.83,256.38l1.65,18.74-4.7,3.53-6-3.23-.75-5-4.27-14.84S253.23,246.61,258.83,256.38Z"/><path class="cls-24" d="M276,190.67c.06.72-2.43,41.7-2.43,41.7s-1.51,9.19-7.8,7.54a10.72,10.72,0,0,1-7.61-7.5L256.4,188.5l20,2.06Z"/><polygon class="cls-24" points="273.4 229.37 278.28 277.47 269.87 281.62 258.23 232.66 273.4 229.37"/><path class="cls-25" d="M267.16,270.43l-1.72,3.89s-8,2.22-8.95,4.16a11.45,11.45,0,0,0-.86,4.72h23.18l-.22-8.05-9.49-1.25Z"/><path class="cls-26" d="M269.05,278.3a.28.28,0,0,1-.17-.07l-3.67-3.75a.23.23,0,0,1,0-.33.24.24,0,0,1,.33,0l3.67,3.75a.23.23,0,0,1,0,.33A.23.23,0,0,1,269.05,278.3Z"/><path class="cls-26" d="M266,279.13a.21.21,0,0,1-.18-.09l-3.21-4a.23.23,0,0,1,0-.33.24.24,0,0,1,.34,0l3.21,4a.23.23,0,0,1,0,.33A.25.25,0,0,1,266,279.13Z"/><path class="cls-25" d="M276.94,256.38l1.65,18.74-4.7,3.53-6-3.23-.75-5-4.27-14.84S271.34,246.61,276.94,256.38Z"/><path class="cls-27" d="M270.83,108.15c-2.45,4.21-9.13,4.95-14.9,1.65s-8.47-9.4-6-13.62,9.13-5,14.91-1.65S273.29,103.93,270.83,108.15Z"/><ellipse class="cls-27" cx="254.55" cy="97.69" rx="6.08" ry="6.03"/><path class="cls-28" d="M268.76,97.83a6.09,6.09,0,1,1-6.08-6A6.05,6.05,0,0,1,268.76,97.83Z"/><path class="cls-27" d="M273.25,89.8a6.09,6.09,0,1,1-6.09-6A6.06,6.06,0,0,1,273.25,89.8Z"/><path class="cls-27" d="M273.24,84.6a3.38,3.38,0,1,1-3.38-3.35A3.36,3.36,0,0,1,273.24,84.6Z"/><path class="cls-24" d="M260.42,93.06s-7.2-4.34-10.76,10.23c-2.82,7.32,4.37,7,6.55,6.63,5.63-1,6.6-4.48,7.79-6.2S266.17,94.35,260.42,93.06Z"/><path class="cls-27" d="M250.74,95.34c.7,1.54,3.15,1.94,5.46.89s3.62-3.13,2.91-4.67-3.15-1.93-5.46-.89S250,93.81,250.74,95.34Z"/><path class="cls-27" d="M265.74,93.49c0,2.62-2.6,4.74-5.81,4.74s-5.81-2.12-5.81-4.74,2.6-4.74,5.81-4.74S265.74,90.88,265.74,93.49Z"/><path class="cls-27" d="M270.28,106.86c-2.37,1.16-5.69-.73-7.42-4.21s-1.21-7.23,1.16-8.39,5.69.73,7.42,4.21S272.65,105.71,270.28,106.86Z"/><path class="cls-3" d="M253.57,98.6a.18.18,0,0,1-.12,0,.17.17,0,0,1,0-.23,1.41,1.41,0,0,1,1.95,0,.16.16,0,0,1,0,.22.14.14,0,0,1-.22,0,1.11,1.11,0,0,0-1.52,0A.15.15,0,0,1,253.57,98.6Z"/><path class="cls-3" d="M257.81,101.4a2.64,2.64,0,1,1,2.66-2.63A2.65,2.65,0,0,1,257.81,101.4Zm0-5a2.32,2.32,0,1,0,2.34,2.32A2.33,2.33,0,0,0,257.81,96.45Z"/><path class="cls-3" d="M251.29,100.86A2.64,2.64,0,1,1,254,98.23,2.65,2.65,0,0,1,251.29,100.86Zm0-5a2.32,2.32,0,1,0,2.34,2.32A2.33,2.33,0,0,0,251.29,95.91Z"/><path class="cls-24" d="M263.74,101.26c-.45.8-1.27,1.2-1.84.89s-.67-1.21-.22-2,1.28-1.2,1.85-.89S264.19,100.45,263.74,101.26Z"/><path class="cls-27" d="M271,107.83c-2.45,4.22-9.13,5-14.9,1.65s-8.47-9.4-6-13.61,9.13-5,14.9-1.65S273.45,103.62,271,107.83Z"/><path class="cls-29" d="M240,156.32s-3.33,18.64-3,52.89h39.4s3.5-37.74-4.76-51.72S240,156.32,240,156.32Z"/><path class="cls-30" d="M225.9,137l13.82,10.39s18.59-24.24,13.51-27.86S244.65,118.54,225.9,137Z"/><path class="cls-29" d="M276.42,166.08l-2.4-45c-.81-4.67-6.37-7.24-10.69-7.08l-6.37.24c-4.33.16-9.44,3.26-9.9,8l-10,39.83h0a36.61,36.61,0,0,1,25-2.21Z"/><path class="cls-30" d="M251.45,115.81c-.81.29,3.53,25.08,7.18,21.62s8.74-20.15,8.74-20.15S261.9,112.15,251.45,115.81Z"/><path class="cls-11" d="M290.08,142.31c.43,1.25-7.66,3.7-12.23,6.16a3.25,3.25,0,0,1-4.61-1.79L268.93,134a20,20,0,0,1,.33-13.73l.37-.92a3.24,3.24,0,0,1,5.06-1.31C278.74,121.29,285.92,130,290.08,142.31Z"/><path class="cls-24" d="M257.29,99.88s0,.09-.13.56-.36,1.81-.82,4.24c-.26,1.4-.59,3.21-1,5.54h0c-.17.93-.35,1.94-.55,3-.26,1.43-.54,3-.85,4.76a3.12,3.12,0,0,0,1.87,3.42,8.66,8.66,0,0,0,7.24-.58,3.06,3.06,0,0,0,1.7-2.93L264,105.57l-.15-2.55-.07-1.14-.24-4,0-.53-.23.09-5.14,2.08Z"/><path class="cls-31" d="M257,100.64c-.12.58-.35,1.76-.77,4.12-.24,1.36-.55,3.12-.94,5.39h0c1.42.73,3.36.8,5.51-1.67a11.78,11.78,0,0,0,2.73-5.27c.06-.28.11-.55.14-.81a8.24,8.24,0,0,0-.24-3.59,3.75,3.75,0,0,0-.24-.6,2.87,2.87,0,0,0-.25-.43,1.14,1.14,0,0,0-.55-.44c-.62-.18-2.5.75-4.45,2.42C257.6,100,257.28,100.33,257,100.64Z"/><path class="cls-24" d="M257.44,99.57l-.12.55c-.12.6-.36,1.82-.82,4.24-.26,1.41-.59,3.21-1,5.54h0c-.17.93-.35,1.95-.55,3-.26,1.44-.54,3-.85,4.77a3.12,3.12,0,0,0,1.87,3.42,8.66,8.66,0,0,0,7.24-.59,3.06,3.06,0,0,0,1.7-2.92l-.74-12.38-.15-2.54-.07-1.14-.24-4,0-.52-.23.09-5.14,2.07Z"/><path class="cls-31" d="M257.12,100.32c-.11.58-.34,1.76-.76,4.12-.24,1.37-.55,3.13-.94,5.39h0c1.42.73,3.36.81,5.51-1.66a11.81,11.81,0,0,0,2.73-5.28,7.62,7.62,0,0,0,.14-.81,8.26,8.26,0,0,0-.24-3.59,4.17,4.17,0,0,0-.24-.6,2.75,2.75,0,0,0-.26-.42,1,1,0,0,0-.54-.44c-.62-.18-2.5.75-4.45,2.42C257.76,99.72,257.44,100,257.12,100.32Z"/><path class="cls-27" d="M260.79,97.37a6.08,6.08,0,1,1-6.08-6A6.05,6.05,0,0,1,260.79,97.37Z"/><ellipse class="cls-28" cx="262.84" cy="97.52" rx="6.08" ry="6.03"/><path class="cls-27" d="M273.4,89.48a6.08,6.08,0,1,1-6.08-6A6.05,6.05,0,0,1,273.4,89.48Z"/><path class="cls-27" d="M273.4,84.29A3.38,3.38,0,1,1,270,80.94,3.36,3.36,0,0,1,273.4,84.29Z"/><path class="cls-24" d="M260.57,92.75s-7.19-4.34-10.75,10.22c-2.82,7.32,4.37,7,6.55,6.63,5.63-1,6.59-4.48,7.79-6.2S266.33,94,260.57,92.75Z"/><path class="cls-27" d="M250.9,95c.7,1.53,3.15,1.93,5.46.89s3.62-3.14,2.91-4.67-3.15-1.93-5.46-.89S250.19,93.49,250.9,95Z"/><path class="cls-27" d="M265.9,93.18c0,2.61-2.6,4.73-5.81,4.73s-5.82-2.12-5.82-4.73,2.61-4.74,5.82-4.74S265.9,90.56,265.9,93.18Z"/><path class="cls-27" d="M270.44,106.55c-2.37,1.15-5.69-.73-7.42-4.21s-1.21-7.24,1.16-8.39,5.69.73,7.42,4.21S272.81,105.39,270.44,106.55Z"/><path class="cls-3" d="M253.73,98.29a.16.16,0,0,1-.12-.06.15.15,0,0,1,0-.22,1.41,1.41,0,0,1,2,0,.16.16,0,1,1-.22.22,1.1,1.1,0,0,0-1.52,0A.21.21,0,0,1,253.73,98.29Z"/><path class="cls-3" d="M258,101.08a2.63,2.63,0,1,1,2.66-2.63A2.65,2.65,0,0,1,258,101.08Zm0-5a2.32,2.32,0,1,0,2.34,2.32A2.33,2.33,0,0,0,258,96.13Z"/><path class="cls-3" d="M251.45,100.55a2.64,2.64,0,1,1,2.66-2.64A2.65,2.65,0,0,1,251.45,100.55Zm0-5a2.32,2.32,0,1,0,2.34,2.32A2.33,2.33,0,0,0,251.45,95.59Z"/><path class="cls-24" d="M263.9,100.94c-.45.81-1.27,1.21-1.84.9a1.47,1.47,0,0,1-.22-2c.45-.81,1.28-1.21,1.84-.9A1.47,1.47,0,0,1,263.9,100.94Z"/><path class="cls-24" d="M196.65,129.41s-1.27-3.91-3.88-4.75a11.17,11.17,0,0,0-2.48-.57.2.2,0,0,0-.12.36l1.93,1.18a7.84,7.84,0,0,1-4.78-1.61.22.22,0,0,0-.35.25,4.76,4.76,0,0,0,2.83,2.63,6.56,6.56,0,0,1-4.11-2.37.15.15,0,0,0-.27.1c.22,2.63,3.58,3.47,3.58,3.47a5.32,5.32,0,0,1-4.24-1.94c-.07-.09-.89,3.79,9.1,5.37C197,129.29,196.65,129.41,196.65,129.41Z"/><path class="cls-24" d="M225.11,136.8c-3.18.47-28.5-7.4-28.5-7.4s-3.25,1.55-2.72,2.11,22.1,16.34,35,20.24c2.55.77,7,.95,10.8-5Z"/><path class="cls-11" d="M255,112.43a8.31,8.31,0,0,0,1,7.48c2.14,6.65,2.53,6.65,2.53,6.65l-6.82-4.15,1-2.91-2.73-3.33S250.87,111.39,255,112.43Z"/><path class="cls-11" d="M264.35,113.6a7.11,7.11,0,0,1-2.43,7c-3.62,6-4.07,5.92-4.07,5.92l8.52-2.63-.6-3,3.71-2.66S269.21,113.43,264.35,113.6Z"/><rect class="cls-16" x="290.56" y="45.97" width="0.95" height="49.59"/><polygon class="cls-32" points="74.28 153.77 74.56 156.18 71.7 156.26 74.28 153.77"/><rect class="cls-33" x="33.05" y="157.69" width="37.64" height="8.39" rx="1.12"/><path class="cls-33" d="M80.94,147.76h0a.94.94,0,0,1-1-.86L78.4,127.22a.94.94,0,0,1,.87-1h0a.94.94,0,0,1,1,.86l1.53,19.68A.94.94,0,0,1,80.94,147.76Z"/><path class="cls-34" d="M80.4,147.76h0a.94.94,0,0,1-1-.86l-1.53-19.68a.94.94,0,0,1,.87-1h0a.94.94,0,0,1,1,.86l1.53,19.68A.94.94,0,0,1,80.4,147.76Z"/><polygon class="cls-32" points="80.95 147.79 79.09 126.23 69.81 126.23 73.11 148.24 80.95 147.79"/><path class="cls-32" d="M27.39,124.79,30,159.19l40.86-1.33a1.26,1.26,0,0,0,1.23-1.36l-2.58-31.71Z"/><path class="cls-17" d="M29.72,123.14l2.46,32.2a2.31,2.31,0,0,0,2.39,2.12l38.71-1.25a1.19,1.19,0,0,0,1.16-1.28l-2.51-30.85a1,1,0,0,0-1-.94Z"/><path class="cls-26" d="M32.76,126.44l2.13,27.91a1,1,0,0,0,1,.88l34.68-1.12a1,1,0,0,0,.93-1l-2.18-26.79a1,1,0,0,0-1-.88H33.72A1,1,0,0,0,32.76,126.44Z"/><polygon class="cls-32" points="27.39 124.79 29.72 123.15 32.68 157.52 30.07 159.21 27.39 124.79"/><path class="cls-32" d="M72.82,157.37l1.72-1.21-41.86,1.36-2.62,1.69,41.39-1.38A2.58,2.58,0,0,0,72.82,157.37Z"/><rect class="cls-32" x="39.29" y="119.6" width="21.47" height="3.44" rx="0.68"/><rect class="cls-17" x="39.29" y="119.6" width="1.2" height="3.44" rx="0.6"/><path class="cls-35" d="M34.16,127.61c0,.28.23,2.14.23,2.14H63.21l-.34-2.14Z"/><path class="cls-35" d="M34.62,130.71c0,.29.17,2.15.17,2.15H63.66l-.34-2.15Z"/><path class="cls-35" d="M35.08,133.82c0,.28.22,2.14.22,2.14H64.12l-.34-2.14Z"/><path class="cls-35" d="M35.53,136.92c0,.28.17,2.15.17,2.15H64.57l-.34-2.15Z"/><path class="cls-35" d="M36,140c0,.29.22,2.15.22,2.15H65L64.69,140Z"/><path class="cls-35" d="M51.37,145.27H36.61s-.17-1.86-.17-2.14H51.16Z"/><path class="cls-35" d="M51.72,148.88H37.41s-.17-1.86-.17-2.14H51.51Z"/><path class="cls-35" d="M52.06,152.44H38s-.17-1.86-.17-2.14h14Z"/><path class="cls-17" d="M73.77,130.42h0a.55.55,0,0,1-.58-.49l-.13-1.72a.54.54,0,0,1,.5-.58h0a.55.55,0,0,1,.58.49l.13,1.72A.54.54,0,0,1,73.77,130.42Z"/><path class="cls-17" d="M76.27,129.94h0a.54.54,0,0,1-.58-.49L75.58,128a.55.55,0,0,1,.5-.58h0a.55.55,0,0,1,.58.5l.11,1.42A.54.54,0,0,1,76.27,129.94Z"/><path class="cls-17" d="M78.44,129.5h-.06a.52.52,0,0,1-.55-.47l-.09-1.22a.5.5,0,0,1,.47-.54h.06a.51.51,0,0,1,.55.47l.09,1.22A.5.5,0,0,1,78.44,129.5Z"/><path class="cls-17" d="M74,133.9h0a.55.55,0,0,1-.58-.49l-.13-1.72a.54.54,0,0,1,.5-.58h0a.55.55,0,0,1,.58.49l.13,1.72A.54.54,0,0,1,74,133.9Z"/><path class="cls-17" d="M76.45,133.42h0a.54.54,0,0,1-.58-.49l-.11-1.42a.54.54,0,0,1,.5-.58h0a.54.54,0,0,1,.58.49l.11,1.43A.54.54,0,0,1,76.45,133.42Z"/><path class="cls-17" d="M78.62,133h-.06a.5.5,0,0,1-.54-.47l-.1-1.22a.5.5,0,0,1,.47-.54h.06a.51.51,0,0,1,.55.47l.09,1.22A.5.5,0,0,1,78.62,133Z"/><path class="cls-17" d="M74.13,137.38h0a.55.55,0,0,1-.58-.49l-.13-1.73a.54.54,0,0,1,.5-.57h0a.54.54,0,0,1,.58.49l.13,1.72A.54.54,0,0,1,74.13,137.38Z"/><path class="cls-17" d="M76.63,136.9h0a.54.54,0,0,1-.58-.49L75.94,135a.54.54,0,0,1,.5-.58h0a.54.54,0,0,1,.58.49l.11,1.43A.54.54,0,0,1,76.63,136.9Z"/><path class="cls-17" d="M78.8,136.46h-.06a.5.5,0,0,1-.54-.47l-.1-1.22a.5.5,0,0,1,.47-.54h.06a.51.51,0,0,1,.55.47l.09,1.22A.5.5,0,0,1,78.8,136.46Z"/><path class="cls-17" d="M74.31,140.86h0a.55.55,0,0,1-.58-.49l-.13-1.73a.54.54,0,0,1,.5-.57h0a.54.54,0,0,1,.58.49l.13,1.72A.54.54,0,0,1,74.31,140.86Z"/><path class="cls-17" d="M76.81,140.38h0a.54.54,0,0,1-.58-.49l-.11-1.42a.54.54,0,0,1,.5-.58h0a.54.54,0,0,1,.58.49l.11,1.43A.54.54,0,0,1,76.81,140.38Z"/><path class="cls-17" d="M79,139.94h-.06a.5.5,0,0,1-.54-.47l-.1-1.22a.52.52,0,0,1,.47-.55h.06a.51.51,0,0,1,.55.47l.09,1.22A.5.5,0,0,1,79,139.94Z"/><path class="cls-26" d="M74.42,144.4h0a.59.59,0,0,1-.51-.55l-.13-1.72a.49.49,0,0,1,.42-.57h0a.53.53,0,0,1,.52.52l.13,1.79A.45.45,0,0,1,74.42,144.4Z"/><path class="cls-26" d="M76.81,144.19h0a.65.65,0,0,1-.6-.61L76.09,142a.57.57,0,0,1,.51-.63h0a.6.6,0,0,1,.63.57l.12,1.63A.54.54,0,0,1,76.81,144.19Z"/><path class="cls-26" d="M79.33,143.93h-.07a.71.71,0,0,1-.68-.62l-.11-1.47a.64.64,0,0,1,.59-.66h.07a.66.66,0,0,1,.71.59l.11,1.54A.59.59,0,0,1,79.33,143.93Z"/><rect class="cls-33" x="29.28" y="164" width="51.38" height="11.52" rx="1.62"/><rect class="cls-17" x="43.57" y="166.01" width="37.04" height="8.31" rx="1.16"/><path class="cls-33" d="M50.76,169.72a1.63,1.63,0,1,1-1.63-1.61A1.63,1.63,0,0,1,50.76,169.72Z"/><polygon class="cls-36" points="351.95 190.16 351.95 198.82 325.2 198.82 325.2 270.6 351.95 270.6 351.95 277.37 29.31 277.37 29.31 190.16 351.95 190.16"/><rect class="cls-37" x="29.87" y="189.53" width="27.18" height="87.84"/><rect class="cls-37" x="163.94" y="189.53" width="27.18" height="87.84"/><rect class="cls-37" x="298.02" y="189.53" width="27.18" height="87.84"/><path class="cls-37" d="M352,270.6v9.61H24.55a1.91,1.91,0,0,1-1.91-1.9v-5.82a1.91,1.91,0,0,1,1.91-1.89Z"/><path class="cls-37" d="M352,275.48H25.05a2.42,2.42,0,0,0-2.41,2.4v10.63a2.42,2.42,0,0,0,2.41,2.4H352Z"/><rect class="cls-37" x="29.31" y="191.89" width="322.64" height="6.93"/><path class="cls-37" d="M352,174.89H24.54a1.9,1.9,0,0,0-1.9,1.89v5.83a1.9,1.9,0,0,0,1.9,1.88H352Z"/><rect class="cls-36" x="22.64" y="178.51" width="329.32" height="17"/><path class="cls-38" d="M167.76,176s9-5.19,9.68-5,32.9,0,32.9,0l-8.74,5Z"/><polygon class="cls-37" points="201.6 175.99 167.76 175.99 171.95 166.08 197.41 166.08 201.6 175.99"/><polygon class="cls-39" points="221.77 129.67 221.77 167.93 185.16 173 185.16 134.75 221.77 129.67"/><polygon class="cls-26" points="148.54 129.67 148.54 167.93 185.16 173 185.16 134.75 148.54 129.67"/><polygon class="cls-40" points="150.76 128.73 150.76 166.98 184.84 172.06 184.84 133.81 150.76 128.73"/><polygon class="cls-41" points="218.91 128.73 218.91 166.98 184.84 172.06 184.84 133.81 218.91 128.73"/><polygon class="cls-39" points="215.42 127.63 215.42 165.88 184.76 170.96 184.76 132.7 215.42 127.63"/><polygon class="cls-39" points="154.1 127.63 154.1 165.88 184.76 170.96 184.76 132.7 154.1 127.63"/><polygon class="cls-42" points="156.16 126.21 156.16 164.46 184.76 169.54 184.76 131.29 156.16 126.21"/><polygon class="cls-41" points="213.35 126.21 213.35 164.46 184.76 169.54 184.76 131.29 213.35 126.21"/><path class="cls-26" d="M208.69,131.49v-.23a.29.29,0,0,0-.37-.28l-7.77,1.64-12,2.53a.38.38,0,0,0-.28.37l.39,19.4a.29.29,0,0,0,.28.3l19.89-1.17a.37.37,0,0,0,.35-.38Zm-19.47,23.08-.38-18.85L208,131.77l.5,21.58Z"/><path class="cls-26" d="M197.76,134.38a10.86,10.86,0,0,0-8.31,10.69c.1,5,3.88,8.75,8.72,8.43,5.2-.35,9.61-5.24,9.48-10.89S202.93,133.33,197.76,134.38Zm.4,18.45c-4.51.32-8-3.2-8.15-7.83a10.1,10.1,0,0,1,7.77-9.95c4.79-1,9,2.45,9.15,7.66S203,152.48,198.16,152.83Z"/><path class="cls-26" d="M180.81,134.48a.2.2,0,0,0-.09-.07.18.18,0,0,0-.12,0s0,0,0,0L172.68,133l-11.74-2h-.05l-.1,0s0,0-.08,0a.34.34,0,0,0-.08.09h0a.12.12,0,0,0,0,.09v0l-1.21,19.43a.36.36,0,0,0,.08.25.33.33,0,0,0,.23.14h.05l20.71,3.69a.29.29,0,0,0,.24-.06.26.26,0,0,0,.1-.22l.1-19.88A.35.35,0,0,0,180.81,134.48Zm-20.28,16.17-.46-.08,0-.47,1.1-18,0-.42.43.08,18.16,3.05.45.07v.44l-.13,18.31v.48l-.48-.08Z"/><path class="cls-26" d="M177.27,137.65c-.14-.17-.28-.34-.44-.51a11,11,0,0,0-6.15-3.39,8.41,8.41,0,0,0-6.27,1.29,3.38,3.38,0,0,0-.47.35,7.65,7.65,0,0,0-2.8,5.59,10.11,10.11,0,0,0,2.15,6.65c.14.19.29.37.44.54a11,11,0,0,0,6.34,3.67,8.41,8.41,0,0,0,6.55-1.39,6.08,6.08,0,0,0,.47-.39,7.67,7.67,0,0,0,2.61-5.88A10.19,10.19,0,0,0,177.27,137.65Zm-.64,11.86a5.71,5.71,0,0,1-.48.38,7.78,7.78,0,0,1-6.07,1.28,10.1,10.1,0,0,1-5.86-3.38,5.75,5.75,0,0,1-.44-.54,9.33,9.33,0,0,1-2-6.17,7.11,7.11,0,0,1,2.58-5.19,5.55,5.55,0,0,1,.46-.35,7.81,7.81,0,0,1,5.82-1.18,10.18,10.18,0,0,1,5.72,3.14,5.73,5.73,0,0,1,.44.52,9.4,9.4,0,0,1,2.23,6A7.16,7.16,0,0,1,176.63,149.51Z"/><path class="cls-26" d="M180.46,154.87a.46.46,0,0,1-.24-.14l-19.54-23.21a.29.29,0,0,1,0-.42.33.33,0,0,1,.44.08l19.55,23.15a.33.33,0,0,1,0,.48A.26.26,0,0,1,180.46,154.87Z"/><path class="cls-26" d="M159.7,151.17a.33.33,0,0,1-.23-.14.33.33,0,0,1,0-.47l20.86-16.16a.34.34,0,0,1,.45.08.29.29,0,0,1,0,.43l-20.87,16.21A.3.3,0,0,1,159.7,151.17Z"/><ellipse class="cls-37" cx="244.73" cy="233.92" rx="44.24" ry="15.27"/><ellipse class="cls-37" cx="110.17" cy="233.92" rx="44.24" ry="15.27"/><path class="cls-24" d="M144.58,187.82l.62-.5c9.62-7.73,14.43-13,19.12-15.61l-3.13-6.48c-5.87,1.92-14.65,5-22.51,8.32-8.7,3.72-7.23,8.15-4.85,12.59h0C135.89,190,140.89,190.76,144.58,187.82Z"/><path class="cls-24" d="M159.55,165.91s4.69-2.81,8.66-2c1.91.38,4.85,1,5.25,1.5.22.3-1.14.44-1.45.45l-2.65.27a22,22,0,0,0,6.09-.38.32.32,0,0,1,.27.55,7.15,7.15,0,0,1-5.53,1.3,7.53,7.53,0,0,0,6-.71c.77-.41.56.38.44.56-2.16,3.13-6.23,2.21-6.23,2.21a23.59,23.59,0,0,0,5.93-.78.23.23,0,0,1,.21.4c-1.12,1.34-4.24,3.68-14.84,2.11C159.21,166.38,159.55,165.91,159.55,165.91Z"/><path class="cls-24" d="M163.14,172.27s5.31,1.4,7,.37,1-1.28-.05-1.39-4.6-2.22-4.6-2.22Z"/><path class="cls-24" d="M127.2,178.64s10,12.59,13.42,9,7.31-11.89,1.69-18S123.14,171.18,127.2,178.64Z"/><path class="cls-18" d="M127,179.92s-16.34-33.07-5.88-39.52c15.45-9.54,22.81,31,22.81,31Z"/><path class="cls-3" d="M127.59,177.37h.07l16.05-7.82a.15.15,0,0,0,.07-.21.16.16,0,0,0-.21-.07l-16,7.81a.17.17,0,0,0-.08.21A.16.16,0,0,0,127.59,177.37Z"/><path class="cls-3" d="M129.39,175l.07,0,14-6.81a.15.15,0,0,0,.07-.21.16.16,0,0,0-.21-.07l-14,6.81a.15.15,0,0,0-.07.21A.16.16,0,0,0,129.39,175Z"/><path class="cls-18" d="M87.33,184.06l-3.18,4.25s2.86,5.2,11.76,5.83,38.45-1.42,38.45-4.1S110.53,172.57,87.33,184.06Z"/><path class="cls-18" d="M82.88,293.47a39.48,39.48,0,0,0,27.33,0C104.81,286.07,86.22,288.11,82.88,293.47Z"/><path class="cls-43" d="M100.84,293.47a39.45,39.45,0,0,0,27.32,0C122.76,286.07,104.17,288.11,100.84,293.47Z"/><polygon class="cls-44" points="130.83 254.26 124.97 303.68 112.94 300.08 113.08 240.78 126.89 244.58 130.83 254.26"/><path class="cls-45" d="M127.66,291.42l2.39,4.41s11,2.52,12.39,4.72a10.91,10.91,0,0,1,1.19,5.35H111.54l.3-9.13L125,295.36Z"/><path class="cls-46" d="M125.76,300.08a.24.24,0,0,1-.16-.41l4.29-3.94a.24.24,0,0,1,.34,0,.23.23,0,0,1,0,.33L125.92,300A.2.2,0,0,1,125.76,300.08Z"/><path class="cls-46" d="M129.58,300.86a.24.24,0,0,1-.18-.07.23.23,0,0,1,0-.33l4.29-3.94a.24.24,0,1,1,.33.35l-4.29,3.93A.27.27,0,0,1,129.58,300.86Z"/><path class="cls-47" d="M101.09,293.32A30.64,30.64,0,0,1,114.2,291,40.57,40.57,0,0,1,128,293.42a.25.25,0,0,0,.13-.11c.48-1.26,8.42-62,8.42-62l-4.48-48.8h-23l-1.11.15s-4.13,14.33-4.13,15.75S108,215.07,108,215.07l-7.14,78.24Z"/><polygon class="cls-24" points="113.07 255.32 102.83 304.04 91.17 299.4 96.6 240.35 115.4 245.81 113.07 255.32"/><path class="cls-26" d="M106.21,291.42l2.39,4.41s11.05,2.52,12.39,4.72a10.91,10.91,0,0,1,1.19,5.35H90.09l.3-9.13,13.14-1.41Z"/><path class="cls-46" d="M104.32,300.08a.25.25,0,0,1-.18-.08.24.24,0,0,1,0-.33l4.29-3.94a.24.24,0,0,1,.34,0,.24.24,0,0,1,0,.33L104.48,300A.23.23,0,0,1,104.32,300.08Z"/><path class="cls-46" d="M108.13,300.86a.24.24,0,0,1-.18-.07.23.23,0,0,1,0-.33l4.29-3.94a.24.24,0,0,1,.33,0,.24.24,0,0,1,0,.34l-4.29,3.93A.25.25,0,0,1,108.13,300.86Z"/><path class="cls-19" d="M89.27,223.41l-6.38,69.78a30.68,30.68,0,0,1,13-2.3,40.15,40.15,0,0,1,14.13,2.54.35.35,0,0,0,.14-.12c.47-1.26,8.42-62,8.42-62l-4.48-48.8h-23l-1.11.15S85.9,197,85.9,198.39c0,.7,1,4.86,2.06,8.85A47.14,47.14,0,0,1,89.27,223.41Z"/><path class="cls-19" d="M112.59,182.49l-.48,22.94h0c4.34-2.42,7.2-7.41,7.47-13l.48-9.94Z"/><path class="cls-48" d="M106.45,130.68a14,14,0,0,0-4.84,1.79v1.25c2.08,2.33,10.5.75,11.92-1.44v-1A12.06,12.06,0,0,0,106.45,130.68Z"/><path class="cls-49" d="M108.74,121.59s3.69-2.75,5.5-.6,11,.22,10.12-5.44-7.17-4.72-7.17-4.72-3-5.7-6.67-3.65-8.62.25-8.62.25a47.57,47.57,0,0,0-2.21,8.7C99.23,120,102.71,127.46,108.74,121.59Z"/><path class="cls-24" d="M112.68,120.16s0,.11,0,.64c0,.68,0,2,.05,4.8,0,1.59,0,3.64,0,6.28h0v3.45c0,1.62,0,3.41,0,5.39a3.5,3.5,0,0,1-2.73,3.39,9.65,9.65,0,0,1-7.82-2.06,3.42,3.42,0,0,1-1.29-3.54l3.28-13.42.67-2.77.3-1.23,1.06-4.33.14-.57.23.15,5.22,3.27Z"/><path class="cls-31" d="M112.9,121c0,.68,0,2.08-.07,4.86,0,1.61.06,3.64,0,6.31l-.15,0c-1.81.58-4.07.31-6-2.91a13.16,13.16,0,0,1-1.92-6.54c0-.33,0-.64,0-1a9.92,9.92,0,0,1,1.11-4.07,5.93,5.93,0,0,1,.42-.64,3.47,3.47,0,0,1,.39-.44,1.3,1.3,0,0,1,.73-.41c.75-.09,2.71,1.31,4.57,3.58C112.31,120.2,112.61,120.59,112.9,121Z"/><path class="cls-24" d="M117.59,115.82s.91,15.25-3.21,14.67c-5.68-.81-8.24-1.78-9.5-6.78-.9-3.58,2.31-11.6,2.31-11.6S116.27,109.86,117.59,115.82Z"/><path class="cls-20" d="M109.74,115.35s4.32-1.24,5.57,1.15,10,4,10.67-.85c.42-3.26-2-5-3.66-5.8a4.3,4.3,0,0,1-2-2.08c-.77-1.66-2.38-4.06-5.12-3.82a7,7,0,0,0-3.85,1.53,5.77,5.77,0,0,1-5.17,1c-1.6-.46-3.35-.54-4.06.91C100.64,110.35,103.21,118.56,109.74,115.35Z"/><path class="cls-24" d="M104.16,117.84c.11,1,.8,1.81,1.53,1.73s1.23-1,1.11-2-.8-1.81-1.53-1.73S104,116.81,104.16,117.84Z"/><path class="cls-17" d="M84.22,188.56c10.86-4.35,31.28-7,42.26-3l7.94,4.44s0-37-5.08-47.72S92.19,134,88,140.68C79.61,154.17,84.22,188.56,84.22,188.56Z"/><path class="cls-20" d="M106.17,114.29a16.49,16.49,0,0,1-.58,4.32c-.62,2.12.94,2,3-3.45S106.17,114.29,106.17,114.29Z"/><path class="cls-18" d="M114.4,136.12c-4.28,3.11-12.82.34-13.84,0l-.1,0,0-.13c.06-.23.21-.78.45-1.55.19-.59.43-1.3.73-2.09a19.22,19.22,0,0,0,10.89-.67c.61-.22,1-.38,1-.38a6.82,6.82,0,0,0,0,1.12A14.76,14.76,0,0,0,114.4,136.12Z"/><path class="cls-24" d="M148.21,195.21l-4.59,6.31s-26.59-6.58-38.43-13.27c-5.41-3.05-7.75-6.12-3.07-8.6a23.5,23.5,0,0,0,4.33-3c4.23-3.6,4.76-5.61,16.62,3.42C138,191.47,148.21,195.21,148.21,195.21Z"/><path class="cls-31" d="M114.84,174.66l-13.39,11.1c-3.51-2.75-4.92-7.13.72-8.24,2.25-.45,7.71-4.41,9.16-5Z"/><path class="cls-24" d="M142.82,201.09c9.92,5.26,13.51,4.55,14.93,3.89.2-.1.12-.36-.11-.4q-1.11-.2-2-.42a4.68,4.68,0,0,0,2.68-.63c.17-.09.56-.65-.29-.61a9.47,9.47,0,0,1-6-1.67,8.67,8.67,0,0,0,5.69,1c.3-.06.21-.46-.13-.54a28.08,28.08,0,0,1-6-2l2.65.78c.29.11,1.65.51,1.51.19-.25-.59-3-2.17-4.73-3.19-3.67-2.12-8.9-1.63-8.9-1.63S141.66,196.16,142.82,201.09Z"/><path class="cls-24" d="M142.79,194.9s6.58-.18,8.22.83.76,1.08-.45,1a46.93,46.93,0,0,0-6,.88Z"/><path class="cls-18" d="M98.34,184s-18.14-32.13-8-39.15c14.9-10.36,24.49,29.69,24.49,29.69Z"/><path class="cls-3" d="M98.73,181.44a.14.14,0,0,1-.12-.08.15.15,0,0,1,.06-.21l15.6-8.67a.16.16,0,0,1,.22.06.16.16,0,0,1-.07.21l-15.59,8.67A.18.18,0,0,1,98.73,181.44Z"/><path class="cls-3" d="M100.4,178.92a.13.13,0,0,1-.12-.08.14.14,0,0,1,.06-.21l13.58-7.55a.15.15,0,0,1,.22.06.16.16,0,0,1-.06.21l-13.59,7.55A.15.15,0,0,1,100.4,178.92Z"/><path class="cls-50" d="M201.4,268l-34.78,6.63a1.91,1.91,0,0,1-2.24-1.49l-8.11-41.74a1.9,1.9,0,0,1,1.52-2.21l34.78-6.64a1.93,1.93,0,0,1,2.24,1.5l8.11,41.74A1.91,1.91,0,0,1,201.4,268Z"/><path class="cls-51" d="M180.57,224.79S204,218,228.62,234C210.7,267.08,185.4,250.72,180.57,224.79Z"/><path class="cls-14" d="M223.52,280.19c-15.54,9.74-58.52-6.4-60.7-13.81,6.91-9.33,10-28.79,11.15-38.69a6.76,6.76,0,0,1,6.87-5.94l11.85.25,2.28.56a10.44,10.44,0,0,0-2.62,4.86c-1.46,6.28,3.16,12.69,10.3,14.32s14.13-2.15,15.58-8.43a10.47,10.47,0,0,0-.1-5.1l1.76.43,5,2.3a11.39,11.39,0,0,1,6.2,13.58C227.81,255.49,223,273.06,223.52,280.19Z"/><path class="cls-29" d="M198.59,222.21s4.57,20.32,3.86,20.39-11.75,1.3-12.83-6.89a30.06,30.06,0,0,1,2.12-15.06Z"/><path class="cls-29" d="M215,225.93s-13.06,16.32-12.46,16.69,10,6.24,14.58-.66a30.12,30.12,0,0,0,4.73-14.47Z"/><path class="cls-29" d="M196.15,282h0a.31.31,0,0,1-.3-.33c0-.25.36-6,.77-7.8.27-1.14,2-5.37,3.45-8.76.74-1.77,1.44-3.44,1.49-3.65.27-1.18,3.28-16.11,3-17.43a.33.33,0,0,1,0-.32.33.33,0,0,1,.41-.18c.35.14.65.26-1,9.06-.78,4.24-1.69,8.67-1.77,9s-.56,1.45-1.52,3.75c-1.34,3.19-3.17,7.57-3.42,8.66-.4,1.73-.75,7.63-.76,7.69A.32.32,0,0,1,196.15,282Zm8.52-37.88Z"/><path class="cls-29" d="M203.19,246.85a2.24,2.24,0,0,1-2.68,1.66,2.2,2.2,0,0,1-1.67-2.65,2.23,2.23,0,0,1,4.35,1Z"/><path class="cls-29" d="M200.73,259.91a2.23,2.23,0,1,1-1.67-2.65A2.2,2.2,0,0,1,200.73,259.91Z"/><path class="cls-29" d="M195.19,274a2.24,2.24,0,1,1-1.68-2.65A2.22,2.22,0,0,1,195.19,274Z"/><path class="cls-23" d="M144.72,301.92l6.86,1.17,3.93,4.82,5.92-40.41-1.57-22.43s.06-.13-2.77-1.69c.57,1-1.51,27.11-1.51,27.11Z"/><path class="cls-23" d="M159.86,245.07l20.52-3.39,25.92,7.17,24.21-3.52v62.58h-75s4.87-39.11,5.4-40.41S159.86,245.07,159.86,245.07Z"/><path class="cls-11" d="M161.24,247.22,180.83,244l24.73,6.75,23.11-3.32v58.89H157.09s4.65-36.8,5.15-38S161.24,247.22,161.24,247.22Z"/><path class="cls-23" d="M208.68,253.72c-1.45-10.64-4.92-17.92-9.78-20.49-2.73-1.45-5.8-1.36-9.12.26-8.78,4.28-8.48,19.94-8.48,20.1l-1.71,0a40.09,40.09,0,0,1,1-8.94C182,238.35,185,234,189,232c3.79-1.85,7.48-1.93,10.67-.24,2.67,1.41,4.94,4,6.75,7.66a46.1,46.1,0,0,1,3.92,14.11Z"/><path class="cls-23" d="M177.88,252h5.27a0,0,0,0,1,0,0v5.15a1.89,1.89,0,0,1-1.89,1.89h-1.49a1.89,1.89,0,0,1-1.89-1.89V252a0,0,0,0,1,0,0Z"/><path class="cls-23" d="M206.95,252h5.27a0,0,0,0,1,0,0v4.95a2.09,2.09,0,0,1-2.09,2.09H209a2.09,2.09,0,0,1-2.09-2.09V252A0,0,0,0,1,206.95,252Z"/><path class="cls-52" d="M181.9,254.39a1.43,1.43,0,1,1-1.43-1.42A1.42,1.42,0,0,1,181.9,254.39Z"/><path class="cls-52" d="M211,253.92a1.43,1.43,0,1,1-1.43-1.42A1.42,1.42,0,0,1,211,253.92Z"/><path class="cls-24" d="M245.46,160.33s-3.44-2.29-6-1.35a11.22,11.22,0,0,0-2.3,1.08.19.19,0,0,0,.14.35l2.25-.26a7.84,7.84,0,0,1-4.76,1.68.22.22,0,0,0-.12.41,4.83,4.83,0,0,0,3.86.33,6.61,6.61,0,0,1-4.7.66.15.15,0,0,0-.15.24c1.81,1.93,5,.53,5,.53a5.29,5.29,0,0,1-4.54,1.08c-.12,0,1.67,3.52,10.49-1.38C245.65,160,245.46,160.33,245.46,160.33Z"/><path class="cls-24" d="M288.48,143.2a1.31,1.31,0,0,0-1.65-1.26c-2.55.65-9.09,2.6-12.47,4.46a273.19,273.19,0,0,1-28.43,13.76,1.3,1.3,0,0,0-.74.68c-.41.91-1.15,2.74-.58,2.83.76.12,21.57,1,34.16-3.93,3-1.16,4.15-4.46,7-5.78a21.07,21.07,0,0,0,3.17-4.88Z"/><path class="cls-11" d="M265.78,150.49s9.86,12.69,13.45,9.76,18.09-13.47,8-21.51-14.78,5.81-14.78,5.81Z"/></g></g></g></svg>